%FSLAX45Y45*%
G04 Gerber Fmt 4.5, Leading zero omitted, Abs format (unit mm)*
G04 Created by KiCad (PCBNEW 5.0.2-bee76a0~70~ubuntu16.04.1) date Sun 01 Dec 2019 11:56:34 AM CET*
%MOMM*%
%LPD*%
G01*
G04 APERTURE LIST*
%ADD10C,0.150000*%
%ADD11C,0.200000*%
%ADD12C,0.300000*%
G04 APERTURE END LIST*
D10*
X16600000Y-10000000D02*
X13300000Y-10000000D01*
X16600000Y-5000000D02*
X16600000Y-10000000D01*
X19900000Y-5000000D02*
X19900000Y-10000000D01*
X13300000Y-5000000D02*
X13300000Y-10000000D01*
X13300000Y-5000000D02*
X13300000Y-10000000D01*
X13300000Y-10000000D02*
X10000000Y-10000000D01*
X10000000Y-5000000D02*
X10000000Y-10000000D01*
X16600000Y-5000000D02*
X16600000Y-10000000D01*
X13300000Y-5000000D02*
X10000000Y-5000000D01*
X19900000Y-5000000D02*
X16600000Y-5000000D01*
X19900000Y-10000000D02*
X16600000Y-10000000D01*
X16600000Y-5000000D02*
X13300000Y-5000000D01*
X19900000Y-15000000D02*
X16600000Y-15000000D01*
X19900000Y-10000000D02*
X19900000Y-15000000D01*
X16600000Y-10000000D02*
X16600000Y-15000000D01*
X19900000Y-10000000D02*
X16600000Y-10000000D01*
X16600000Y-10000000D02*
X16600000Y-15000000D01*
X16600000Y-15000000D02*
X13300000Y-15000000D01*
X13300000Y-10000000D02*
X13300000Y-15000000D01*
X16600000Y-10000000D02*
X13300000Y-10000000D01*
X10000000Y-10000000D02*
X10000000Y-15000000D01*
X13300000Y-10000000D02*
X13300000Y-15000000D01*
X13300000Y-10000000D02*
X10000000Y-10000000D01*
X13300000Y-15000000D02*
X10000000Y-15000000D01*
D11*
X10851200Y-7279960D02*
X10891200Y-7319960D01*
X10891200Y-7279960D02*
X10851200Y-7319960D01*
X10851200Y-12279960D02*
X10891200Y-12319960D01*
X10891200Y-12279960D02*
X10851200Y-12319960D01*
X11511600Y-8367080D02*
X11551600Y-8407080D01*
X11551600Y-8367080D02*
X11511600Y-8407080D01*
X11511600Y-13367080D02*
X11551600Y-13407080D01*
X11551600Y-13367080D02*
X11511600Y-13407080D01*
X11597960Y-8463600D02*
X11637960Y-8503600D01*
X11637960Y-8463600D02*
X11597960Y-8503600D01*
X11597960Y-13463600D02*
X11637960Y-13503600D01*
X11637960Y-13463600D02*
X11597960Y-13503600D01*
X11653840Y-7909880D02*
X11693840Y-7949880D01*
X11693840Y-7909880D02*
X11653840Y-7949880D01*
X11653840Y-12909880D02*
X11693840Y-12949880D01*
X11693840Y-12909880D02*
X11653840Y-12949880D01*
X11699580Y-8508060D02*
X11739580Y-8548060D01*
X11739580Y-8508060D02*
X11699580Y-8548060D01*
X11699580Y-13508060D02*
X11739580Y-13548060D01*
X11739580Y-13508060D02*
X11699580Y-13548060D01*
X11780860Y-8624900D02*
X11820860Y-8664900D01*
X11820860Y-8624900D02*
X11780860Y-8664900D01*
X11780860Y-13624900D02*
X11820860Y-13664900D01*
X11820860Y-13624900D02*
X11780860Y-13664900D01*
X11811320Y-7920040D02*
X11851320Y-7960040D01*
X11851320Y-7920040D02*
X11811320Y-7960040D01*
X11811320Y-12920040D02*
X11851320Y-12960040D01*
X11851320Y-12920040D02*
X11811320Y-12960040D01*
X11905300Y-7320600D02*
X11945300Y-7360600D01*
X11945300Y-7320600D02*
X11905300Y-7360600D01*
X11905300Y-12320600D02*
X11945300Y-12360600D01*
X11945300Y-12320600D02*
X11905300Y-12360600D01*
X11905320Y-8171799D02*
X11945320Y-8211799D01*
X11945320Y-8171799D02*
X11905320Y-8211799D01*
X11905320Y-13171799D02*
X11945320Y-13211799D01*
X11945320Y-13171799D02*
X11905320Y-13211799D01*
X11948500Y-7918780D02*
X11988500Y-7958780D01*
X11988500Y-7918780D02*
X11948500Y-7958780D01*
X11948500Y-12918780D02*
X11988500Y-12958780D01*
X11988500Y-12918780D02*
X11948500Y-12958780D01*
X12133900Y-9111300D02*
X12173900Y-9151300D01*
X12173900Y-9111300D02*
X12133900Y-9151300D01*
X12133900Y-14111300D02*
X12173900Y-14151300D01*
X12173900Y-14111300D02*
X12133900Y-14151300D01*
X12492600Y-9114400D02*
X12532600Y-9154400D01*
X12532600Y-9114400D02*
X12492600Y-9154400D01*
X12492600Y-14114400D02*
X12532600Y-14154400D01*
X12532600Y-14114400D02*
X12492600Y-14154400D01*
X12654600Y-8905560D02*
X12694600Y-8945560D01*
X12694600Y-8905560D02*
X12654600Y-8945560D01*
X12654600Y-13905560D02*
X12694600Y-13945560D01*
X12694600Y-13905560D02*
X12654600Y-13945560D01*
X14151200Y-7279960D02*
X14191200Y-7319960D01*
X14191200Y-7279960D02*
X14151200Y-7319960D01*
X14151200Y-12279960D02*
X14191200Y-12319960D01*
X14191200Y-12279960D02*
X14151200Y-12319960D01*
X14811600Y-8367080D02*
X14851600Y-8407080D01*
X14851600Y-8367080D02*
X14811600Y-8407080D01*
X14811600Y-13367080D02*
X14851600Y-13407080D01*
X14851600Y-13367080D02*
X14811600Y-13407080D01*
X14897960Y-8463600D02*
X14937960Y-8503600D01*
X14937960Y-8463600D02*
X14897960Y-8503600D01*
X14897960Y-13463600D02*
X14937960Y-13503600D01*
X14937960Y-13463600D02*
X14897960Y-13503600D01*
X14953840Y-7909880D02*
X14993840Y-7949880D01*
X14993840Y-7909880D02*
X14953840Y-7949880D01*
X14953840Y-12909880D02*
X14993840Y-12949880D01*
X14993840Y-12909880D02*
X14953840Y-12949880D01*
X14999580Y-8508060D02*
X15039580Y-8548060D01*
X15039580Y-8508060D02*
X14999580Y-8548060D01*
X14999580Y-13508060D02*
X15039580Y-13548060D01*
X15039580Y-13508060D02*
X14999580Y-13548060D01*
X15080860Y-8624900D02*
X15120860Y-8664900D01*
X15120860Y-8624900D02*
X15080860Y-8664900D01*
X15080860Y-13624900D02*
X15120860Y-13664900D01*
X15120860Y-13624900D02*
X15080860Y-13664900D01*
X15111320Y-7920040D02*
X15151320Y-7960040D01*
X15151320Y-7920040D02*
X15111320Y-7960040D01*
X15111320Y-12920040D02*
X15151320Y-12960040D01*
X15151320Y-12920040D02*
X15111320Y-12960040D01*
X15205300Y-7320600D02*
X15245300Y-7360600D01*
X15245300Y-7320600D02*
X15205300Y-7360600D01*
X15205300Y-12320600D02*
X15245300Y-12360600D01*
X15245300Y-12320600D02*
X15205300Y-12360600D01*
X15205320Y-8171799D02*
X15245320Y-8211799D01*
X15245320Y-8171799D02*
X15205320Y-8211799D01*
X15205320Y-13171799D02*
X15245320Y-13211799D01*
X15245320Y-13171799D02*
X15205320Y-13211799D01*
X15248500Y-7918780D02*
X15288500Y-7958780D01*
X15288500Y-7918780D02*
X15248500Y-7958780D01*
X15248500Y-12918780D02*
X15288500Y-12958780D01*
X15288500Y-12918780D02*
X15248500Y-12958780D01*
X15433900Y-9111300D02*
X15473900Y-9151300D01*
X15473900Y-9111300D02*
X15433900Y-9151300D01*
X15433900Y-14111300D02*
X15473900Y-14151300D01*
X15473900Y-14111300D02*
X15433900Y-14151300D01*
X15792600Y-9114400D02*
X15832600Y-9154400D01*
X15832600Y-9114400D02*
X15792600Y-9154400D01*
X15792600Y-14114400D02*
X15832600Y-14154400D01*
X15832600Y-14114400D02*
X15792600Y-14154400D01*
X15954600Y-8905560D02*
X15994600Y-8945560D01*
X15994600Y-8905560D02*
X15954600Y-8945560D01*
X15954600Y-13905560D02*
X15994600Y-13945560D01*
X15994600Y-13905560D02*
X15954600Y-13945560D01*
X17451200Y-7279960D02*
X17491200Y-7319960D01*
X17491200Y-7279960D02*
X17451200Y-7319960D01*
X17451200Y-12279960D02*
X17491200Y-12319960D01*
X17491200Y-12279960D02*
X17451200Y-12319960D01*
X18111600Y-8367080D02*
X18151600Y-8407080D01*
X18151600Y-8367080D02*
X18111600Y-8407080D01*
X18111600Y-13367080D02*
X18151600Y-13407080D01*
X18151600Y-13367080D02*
X18111600Y-13407080D01*
X18197960Y-8463600D02*
X18237960Y-8503600D01*
X18237960Y-8463600D02*
X18197960Y-8503600D01*
X18197960Y-13463600D02*
X18237960Y-13503600D01*
X18237960Y-13463600D02*
X18197960Y-13503600D01*
X18253840Y-7909880D02*
X18293840Y-7949880D01*
X18293840Y-7909880D02*
X18253840Y-7949880D01*
X18253840Y-12909880D02*
X18293840Y-12949880D01*
X18293840Y-12909880D02*
X18253840Y-12949880D01*
X18299580Y-8508060D02*
X18339580Y-8548060D01*
X18339580Y-8508060D02*
X18299580Y-8548060D01*
X18299580Y-13508060D02*
X18339580Y-13548060D01*
X18339580Y-13508060D02*
X18299580Y-13548060D01*
X18380860Y-8624900D02*
X18420860Y-8664900D01*
X18420860Y-8624900D02*
X18380860Y-8664900D01*
X18380860Y-13624900D02*
X18420860Y-13664900D01*
X18420860Y-13624900D02*
X18380860Y-13664900D01*
X18411320Y-7920040D02*
X18451320Y-7960040D01*
X18451320Y-7920040D02*
X18411320Y-7960040D01*
X18411320Y-12920040D02*
X18451320Y-12960040D01*
X18451320Y-12920040D02*
X18411320Y-12960040D01*
X18505300Y-7320600D02*
X18545300Y-7360600D01*
X18545300Y-7320600D02*
X18505300Y-7360600D01*
X18505300Y-12320600D02*
X18545300Y-12360600D01*
X18545300Y-12320600D02*
X18505300Y-12360600D01*
X18505320Y-8171799D02*
X18545320Y-8211799D01*
X18545320Y-8171799D02*
X18505320Y-8211799D01*
X18505320Y-13171799D02*
X18545320Y-13211799D01*
X18545320Y-13171799D02*
X18505320Y-13211799D01*
X18548500Y-7918780D02*
X18588500Y-7958780D01*
X18588500Y-7918780D02*
X18548500Y-7958780D01*
X18548500Y-12918780D02*
X18588500Y-12958780D01*
X18588500Y-12918780D02*
X18548500Y-12958780D01*
X18733900Y-9111300D02*
X18773900Y-9151300D01*
X18773900Y-9111300D02*
X18733900Y-9151300D01*
X18733900Y-14111300D02*
X18773900Y-14151300D01*
X18773900Y-14111300D02*
X18733900Y-14151300D01*
X19092600Y-9114400D02*
X19132600Y-9154400D01*
X19132600Y-9114400D02*
X19092600Y-9154400D01*
X19092600Y-14114400D02*
X19132600Y-14154400D01*
X19132600Y-14114400D02*
X19092600Y-14154400D01*
X19254600Y-8905560D02*
X19294600Y-8945560D01*
X19294600Y-8905560D02*
X19254600Y-8945560D01*
X19254600Y-13905560D02*
X19294600Y-13945560D01*
X19294600Y-13905560D02*
X19254600Y-13945560D01*
X16387900Y-11612000D02*
G75*
G03X16387900Y-11612000I-45000J0D01*
G01*
X16387900Y-11862000D02*
G75*
G03X16387900Y-11862000I-45000J0D01*
G01*
X16387900Y-12112000D02*
G75*
G03X16387900Y-12112000I-45000J0D01*
G01*
X13087900Y-11612000D02*
G75*
G03X13087900Y-11612000I-45000J0D01*
G01*
X13087900Y-11862000D02*
G75*
G03X13087900Y-11862000I-45000J0D01*
G01*
X13087900Y-12112000D02*
G75*
G03X13087900Y-12112000I-45000J0D01*
G01*
X19687900Y-6612000D02*
G75*
G03X19687900Y-6612000I-45000J0D01*
G01*
X19687900Y-6862000D02*
G75*
G03X19687900Y-6862000I-45000J0D01*
G01*
X19687900Y-7112000D02*
G75*
G03X19687900Y-7112000I-45000J0D01*
G01*
X16387900Y-6612000D02*
G75*
G03X16387900Y-6612000I-45000J0D01*
G01*
X16387900Y-6862000D02*
G75*
G03X16387900Y-6862000I-45000J0D01*
G01*
X16387900Y-7112000D02*
G75*
G03X16387900Y-7112000I-45000J0D01*
G01*
X13087900Y-12847900D02*
G75*
G03X13087900Y-12847900I-45000J0D01*
G01*
X13087900Y-13097900D02*
G75*
G03X13087900Y-13097900I-45000J0D01*
G01*
X13087900Y-13347900D02*
G75*
G03X13087900Y-13347900I-45000J0D01*
G01*
X13087900Y-13597900D02*
G75*
G03X13087900Y-13597900I-45000J0D01*
G01*
X16387900Y-12847900D02*
G75*
G03X16387900Y-12847900I-45000J0D01*
G01*
X16387900Y-13097900D02*
G75*
G03X16387900Y-13097900I-45000J0D01*
G01*
X16387900Y-13347900D02*
G75*
G03X16387900Y-13347900I-45000J0D01*
G01*
X16387900Y-13597900D02*
G75*
G03X16387900Y-13597900I-45000J0D01*
G01*
X13087900Y-6612000D02*
G75*
G03X13087900Y-6612000I-45000J0D01*
G01*
X13087900Y-6862000D02*
G75*
G03X13087900Y-6862000I-45000J0D01*
G01*
X13087900Y-7112000D02*
G75*
G03X13087900Y-7112000I-45000J0D01*
G01*
X19687900Y-12847900D02*
G75*
G03X19687900Y-12847900I-45000J0D01*
G01*
X19687900Y-13097900D02*
G75*
G03X19687900Y-13097900I-45000J0D01*
G01*
X19687900Y-13347900D02*
G75*
G03X19687900Y-13347900I-45000J0D01*
G01*
X19687900Y-13597900D02*
G75*
G03X19687900Y-13597900I-45000J0D01*
G01*
X19687900Y-11612000D02*
G75*
G03X19687900Y-11612000I-45000J0D01*
G01*
X19687900Y-11862000D02*
G75*
G03X19687900Y-11862000I-45000J0D01*
G01*
X19687900Y-12112000D02*
G75*
G03X19687900Y-12112000I-45000J0D01*
G01*
X19687900Y-7847900D02*
G75*
G03X19687900Y-7847900I-45000J0D01*
G01*
X19687900Y-8097900D02*
G75*
G03X19687900Y-8097900I-45000J0D01*
G01*
X19687900Y-8347900D02*
G75*
G03X19687900Y-8347900I-45000J0D01*
G01*
X19687900Y-8597900D02*
G75*
G03X19687900Y-8597900I-45000J0D01*
G01*
X16387900Y-7847900D02*
G75*
G03X16387900Y-7847900I-45000J0D01*
G01*
X16387900Y-8097900D02*
G75*
G03X16387900Y-8097900I-45000J0D01*
G01*
X16387900Y-8347900D02*
G75*
G03X16387900Y-8347900I-45000J0D01*
G01*
X16387900Y-8597900D02*
G75*
G03X16387900Y-8597900I-45000J0D01*
G01*
X13087900Y-7847900D02*
G75*
G03X13087900Y-7847900I-45000J0D01*
G01*
X13087900Y-8097900D02*
G75*
G03X13087900Y-8097900I-45000J0D01*
G01*
X13087900Y-8347900D02*
G75*
G03X13087900Y-8347900I-45000J0D01*
G01*
X13087900Y-8597900D02*
G75*
G03X13087900Y-8597900I-45000J0D01*
G01*
X11316000Y-9740000D02*
X11316000Y-9840000D01*
X11266000Y-9790000D02*
X11366000Y-9790000D01*
X11570000Y-9740000D02*
X11570000Y-9840000D01*
X11520000Y-9790000D02*
X11620000Y-9790000D01*
X11824000Y-9740000D02*
X11824000Y-9840000D01*
X11774000Y-9790000D02*
X11874000Y-9790000D01*
X16791000Y-10100000D02*
X16791000Y-10200000D01*
X16741000Y-10150000D02*
X16841000Y-10150000D01*
X17045000Y-10100000D02*
X17045000Y-10200000D01*
X16995000Y-10150000D02*
X17095000Y-10150000D01*
X18290000Y-10100000D02*
X18290000Y-10200000D01*
X18240000Y-10150000D02*
X18340000Y-10150000D01*
X18800000Y-10100000D02*
X18800000Y-10200000D01*
X18750000Y-10150000D02*
X18850000Y-10150000D01*
X17916000Y-14740000D02*
X17916000Y-14840000D01*
X17866000Y-14790000D02*
X17966000Y-14790000D01*
X18170000Y-14740000D02*
X18170000Y-14840000D01*
X18120000Y-14790000D02*
X18220000Y-14790000D01*
X18424000Y-14740000D02*
X18424000Y-14840000D01*
X18374000Y-14790000D02*
X18474000Y-14790000D01*
X16798100Y-14741700D02*
X16798100Y-14841700D01*
X16748100Y-14791700D02*
X16848100Y-14791700D01*
X17052100Y-14741700D02*
X17052100Y-14841700D01*
X17002100Y-14791700D02*
X17102100Y-14791700D01*
X17306100Y-14741700D02*
X17306100Y-14841700D01*
X17256100Y-14791700D02*
X17356100Y-14791700D01*
X17560100Y-14741700D02*
X17560100Y-14841700D01*
X17510100Y-14791700D02*
X17610100Y-14791700D01*
X16791000Y-5100000D02*
X16791000Y-5200000D01*
X16741000Y-5150000D02*
X16841000Y-5150000D01*
X17045000Y-5100000D02*
X17045000Y-5200000D01*
X16995000Y-5150000D02*
X17095000Y-5150000D01*
X18290000Y-5100000D02*
X18290000Y-5200000D01*
X18240000Y-5150000D02*
X18340000Y-5150000D01*
X18800000Y-5100000D02*
X18800000Y-5200000D01*
X18750000Y-5150000D02*
X18850000Y-5150000D01*
X13491000Y-5100000D02*
X13491000Y-5200000D01*
X13441000Y-5150000D02*
X13541000Y-5150000D01*
X13745000Y-5100000D02*
X13745000Y-5200000D01*
X13695000Y-5150000D02*
X13795000Y-5150000D01*
X14990000Y-5100000D02*
X14990000Y-5200000D01*
X14940000Y-5150000D02*
X15040000Y-5150000D01*
X15500000Y-5100000D02*
X15500000Y-5200000D01*
X15450000Y-5150000D02*
X15550000Y-5150000D01*
X16798100Y-9741700D02*
X16798100Y-9841700D01*
X16748100Y-9791700D02*
X16848100Y-9791700D01*
X17052100Y-9741700D02*
X17052100Y-9841700D01*
X17002100Y-9791700D02*
X17102100Y-9791700D01*
X17306100Y-9741700D02*
X17306100Y-9841700D01*
X17256100Y-9791700D02*
X17356100Y-9791700D01*
X17560100Y-9741700D02*
X17560100Y-9841700D01*
X17510100Y-9791700D02*
X17610100Y-9791700D01*
X10191000Y-10100000D02*
X10191000Y-10200000D01*
X10141000Y-10150000D02*
X10241000Y-10150000D01*
X10445000Y-10100000D02*
X10445000Y-10200000D01*
X10395000Y-10150000D02*
X10495000Y-10150000D01*
X11690000Y-10100000D02*
X11690000Y-10200000D01*
X11640000Y-10150000D02*
X11740000Y-10150000D01*
X12200000Y-10100000D02*
X12200000Y-10200000D01*
X12150000Y-10150000D02*
X12250000Y-10150000D01*
X13498100Y-9741700D02*
X13498100Y-9841700D01*
X13448100Y-9791700D02*
X13548100Y-9791700D01*
X13752100Y-9741700D02*
X13752100Y-9841700D01*
X13702100Y-9791700D02*
X13802100Y-9791700D01*
X14006100Y-9741700D02*
X14006100Y-9841700D01*
X13956100Y-9791700D02*
X14056100Y-9791700D01*
X14260100Y-9741700D02*
X14260100Y-9841700D01*
X14210100Y-9791700D02*
X14310100Y-9791700D01*
X11316000Y-14740000D02*
X11316000Y-14840000D01*
X11266000Y-14790000D02*
X11366000Y-14790000D01*
X11570000Y-14740000D02*
X11570000Y-14840000D01*
X11520000Y-14790000D02*
X11620000Y-14790000D01*
X11824000Y-14740000D02*
X11824000Y-14840000D01*
X11774000Y-14790000D02*
X11874000Y-14790000D01*
X13498100Y-14741700D02*
X13498100Y-14841700D01*
X13448100Y-14791700D02*
X13548100Y-14791700D01*
X13752100Y-14741700D02*
X13752100Y-14841700D01*
X13702100Y-14791700D02*
X13802100Y-14791700D01*
X14006100Y-14741700D02*
X14006100Y-14841700D01*
X13956100Y-14791700D02*
X14056100Y-14791700D01*
X14260100Y-14741700D02*
X14260100Y-14841700D01*
X14210100Y-14791700D02*
X14310100Y-14791700D01*
X14616000Y-14740000D02*
X14616000Y-14840000D01*
X14566000Y-14790000D02*
X14666000Y-14790000D01*
X14870000Y-14740000D02*
X14870000Y-14840000D01*
X14820000Y-14790000D02*
X14920000Y-14790000D01*
X15124000Y-14740000D02*
X15124000Y-14840000D01*
X15074000Y-14790000D02*
X15174000Y-14790000D01*
X17916000Y-9740000D02*
X17916000Y-9840000D01*
X17866000Y-9790000D02*
X17966000Y-9790000D01*
X18170000Y-9740000D02*
X18170000Y-9840000D01*
X18120000Y-9790000D02*
X18220000Y-9790000D01*
X18424000Y-9740000D02*
X18424000Y-9840000D01*
X18374000Y-9790000D02*
X18474000Y-9790000D01*
X10191000Y-5100000D02*
X10191000Y-5200000D01*
X10141000Y-5150000D02*
X10241000Y-5150000D01*
X10445000Y-5100000D02*
X10445000Y-5200000D01*
X10395000Y-5150000D02*
X10495000Y-5150000D01*
X11690000Y-5100000D02*
X11690000Y-5200000D01*
X11640000Y-5150000D02*
X11740000Y-5150000D01*
X12200000Y-5100000D02*
X12200000Y-5200000D01*
X12150000Y-5150000D02*
X12250000Y-5150000D01*
X10198100Y-14741700D02*
X10198100Y-14841700D01*
X10148100Y-14791700D02*
X10248100Y-14791700D01*
X10452100Y-14741700D02*
X10452100Y-14841700D01*
X10402100Y-14791700D02*
X10502100Y-14791700D01*
X10706100Y-14741700D02*
X10706100Y-14841700D01*
X10656100Y-14791700D02*
X10756100Y-14791700D01*
X10960100Y-14741700D02*
X10960100Y-14841700D01*
X10910100Y-14791700D02*
X11010100Y-14791700D01*
X10198100Y-9741700D02*
X10198100Y-9841700D01*
X10148100Y-9791700D02*
X10248100Y-9791700D01*
X10452100Y-9741700D02*
X10452100Y-9841700D01*
X10402100Y-9791700D02*
X10502100Y-9791700D01*
X10706100Y-9741700D02*
X10706100Y-9841700D01*
X10656100Y-9791700D02*
X10756100Y-9791700D01*
X10960100Y-9741700D02*
X10960100Y-9841700D01*
X10910100Y-9791700D02*
X11010100Y-9791700D01*
X14616000Y-9740000D02*
X14616000Y-9840000D01*
X14566000Y-9790000D02*
X14666000Y-9790000D01*
X14870000Y-9740000D02*
X14870000Y-9840000D01*
X14820000Y-9790000D02*
X14920000Y-9790000D01*
X15124000Y-9740000D02*
X15124000Y-9840000D01*
X15074000Y-9790000D02*
X15174000Y-9790000D01*
X13491000Y-10100000D02*
X13491000Y-10200000D01*
X13441000Y-10150000D02*
X13541000Y-10150000D01*
X13745000Y-10100000D02*
X13745000Y-10200000D01*
X13695000Y-10150000D02*
X13795000Y-10150000D01*
X14990000Y-10100000D02*
X14990000Y-10200000D01*
X14940000Y-10150000D02*
X15040000Y-10150000D01*
X15500000Y-10100000D02*
X15500000Y-10200000D01*
X15450000Y-10150000D02*
X15550000Y-10150000D01*
X15594521Y-14579521D02*
X15594521Y-14507679D01*
X15522679Y-14507679D01*
X15522679Y-14579521D01*
X15594521Y-14579521D01*
X15594521Y-14833521D02*
X15594521Y-14761679D01*
X15522679Y-14761679D01*
X15522679Y-14833521D01*
X15594521Y-14833521D01*
X15848521Y-14579521D02*
X15848521Y-14507679D01*
X15776679Y-14507679D01*
X15776679Y-14579521D01*
X15848521Y-14579521D01*
X15848521Y-14833521D02*
X15848521Y-14761679D01*
X15776679Y-14761679D01*
X15776679Y-14833521D01*
X15848521Y-14833521D01*
X16102521Y-14579521D02*
X16102521Y-14507679D01*
X16030679Y-14507679D01*
X16030679Y-14579521D01*
X16102521Y-14579521D01*
X16102521Y-14833521D02*
X16102521Y-14761679D01*
X16030679Y-14761679D01*
X16030679Y-14833521D01*
X16102521Y-14833521D01*
X16356521Y-14579521D02*
X16356521Y-14507679D01*
X16284679Y-14507679D01*
X16284679Y-14579521D01*
X16356521Y-14579521D01*
X16356521Y-14833521D02*
X16356521Y-14761679D01*
X16284679Y-14761679D01*
X16284679Y-14833521D01*
X16356521Y-14833521D01*
X15594521Y-9579521D02*
X15594521Y-9507679D01*
X15522679Y-9507679D01*
X15522679Y-9579521D01*
X15594521Y-9579521D01*
X15594521Y-9833521D02*
X15594521Y-9761679D01*
X15522679Y-9761679D01*
X15522679Y-9833521D01*
X15594521Y-9833521D01*
X15848521Y-9579521D02*
X15848521Y-9507679D01*
X15776679Y-9507679D01*
X15776679Y-9579521D01*
X15848521Y-9579521D01*
X15848521Y-9833521D02*
X15848521Y-9761679D01*
X15776679Y-9761679D01*
X15776679Y-9833521D01*
X15848521Y-9833521D01*
X16102521Y-9579521D02*
X16102521Y-9507679D01*
X16030679Y-9507679D01*
X16030679Y-9579521D01*
X16102521Y-9579521D01*
X16102521Y-9833521D02*
X16102521Y-9761679D01*
X16030679Y-9761679D01*
X16030679Y-9833521D01*
X16102521Y-9833521D01*
X16356521Y-9579521D02*
X16356521Y-9507679D01*
X16284679Y-9507679D01*
X16284679Y-9579521D01*
X16356521Y-9579521D01*
X16356521Y-9833521D02*
X16356521Y-9761679D01*
X16284679Y-9761679D01*
X16284679Y-9833521D01*
X16356521Y-9833521D01*
X12294521Y-14579521D02*
X12294521Y-14507679D01*
X12222679Y-14507679D01*
X12222679Y-14579521D01*
X12294521Y-14579521D01*
X12294521Y-14833521D02*
X12294521Y-14761679D01*
X12222679Y-14761679D01*
X12222679Y-14833521D01*
X12294521Y-14833521D01*
X12548521Y-14579521D02*
X12548521Y-14507679D01*
X12476679Y-14507679D01*
X12476679Y-14579521D01*
X12548521Y-14579521D01*
X12548521Y-14833521D02*
X12548521Y-14761679D01*
X12476679Y-14761679D01*
X12476679Y-14833521D01*
X12548521Y-14833521D01*
X12802521Y-14579521D02*
X12802521Y-14507679D01*
X12730679Y-14507679D01*
X12730679Y-14579521D01*
X12802521Y-14579521D01*
X12802521Y-14833521D02*
X12802521Y-14761679D01*
X12730679Y-14761679D01*
X12730679Y-14833521D01*
X12802521Y-14833521D01*
X13056521Y-14579521D02*
X13056521Y-14507679D01*
X12984679Y-14507679D01*
X12984679Y-14579521D01*
X13056521Y-14579521D01*
X13056521Y-14833521D02*
X13056521Y-14761679D01*
X12984679Y-14761679D01*
X12984679Y-14833521D01*
X13056521Y-14833521D01*
X10272121Y-11919321D02*
X10272121Y-11847479D01*
X10200279Y-11847479D01*
X10200279Y-11919321D01*
X10272121Y-11919321D01*
X10272121Y-12173321D02*
X10272121Y-12101479D01*
X10200279Y-12101479D01*
X10200279Y-12173321D01*
X10272121Y-12173321D01*
X10272121Y-12427321D02*
X10272121Y-12355479D01*
X10200279Y-12355479D01*
X10200279Y-12427321D01*
X10272121Y-12427321D01*
X10272121Y-12681321D02*
X10272121Y-12609479D01*
X10200279Y-12609479D01*
X10200279Y-12681321D01*
X10272121Y-12681321D01*
X10272121Y-12935321D02*
X10272121Y-12863479D01*
X10200279Y-12863479D01*
X10200279Y-12935321D01*
X10272121Y-12935321D01*
X10272121Y-13189321D02*
X10272121Y-13117479D01*
X10200279Y-13117479D01*
X10200279Y-13189321D01*
X10272121Y-13189321D01*
X10272121Y-13443321D02*
X10272121Y-13371479D01*
X10200279Y-13371479D01*
X10200279Y-13443321D01*
X10272121Y-13443321D01*
X10272121Y-13697321D02*
X10272121Y-13625479D01*
X10200279Y-13625479D01*
X10200279Y-13697321D01*
X10272121Y-13697321D01*
X12558121Y-11919321D02*
X12558121Y-11847479D01*
X12486279Y-11847479D01*
X12486279Y-11919321D01*
X12558121Y-11919321D01*
X12558121Y-12173321D02*
X12558121Y-12101479D01*
X12486279Y-12101479D01*
X12486279Y-12173321D01*
X12558121Y-12173321D01*
X12558121Y-12427321D02*
X12558121Y-12355479D01*
X12486279Y-12355479D01*
X12486279Y-12427321D01*
X12558121Y-12427321D01*
X12558121Y-12681321D02*
X12558121Y-12609479D01*
X12486279Y-12609479D01*
X12486279Y-12681321D01*
X12558121Y-12681321D01*
X12558121Y-12935321D02*
X12558121Y-12863479D01*
X12486279Y-12863479D01*
X12486279Y-12935321D01*
X12558121Y-12935321D01*
X12558121Y-13189321D02*
X12558121Y-13117479D01*
X12486279Y-13117479D01*
X12486279Y-13189321D01*
X12558121Y-13189321D01*
X12558121Y-13443321D02*
X12558121Y-13371479D01*
X12486279Y-13371479D01*
X12486279Y-13443321D01*
X12558121Y-13443321D01*
X12558121Y-13697321D02*
X12558121Y-13625479D01*
X12486279Y-13625479D01*
X12486279Y-13697321D01*
X12558121Y-13697321D01*
X16872121Y-6919321D02*
X16872121Y-6847479D01*
X16800279Y-6847479D01*
X16800279Y-6919321D01*
X16872121Y-6919321D01*
X16872121Y-7173321D02*
X16872121Y-7101479D01*
X16800279Y-7101479D01*
X16800279Y-7173321D01*
X16872121Y-7173321D01*
X16872121Y-7427321D02*
X16872121Y-7355479D01*
X16800279Y-7355479D01*
X16800279Y-7427321D01*
X16872121Y-7427321D01*
X16872121Y-7681321D02*
X16872121Y-7609479D01*
X16800279Y-7609479D01*
X16800279Y-7681321D01*
X16872121Y-7681321D01*
X16872121Y-7935321D02*
X16872121Y-7863479D01*
X16800279Y-7863479D01*
X16800279Y-7935321D01*
X16872121Y-7935321D01*
X16872121Y-8189321D02*
X16872121Y-8117479D01*
X16800279Y-8117479D01*
X16800279Y-8189321D01*
X16872121Y-8189321D01*
X16872121Y-8443321D02*
X16872121Y-8371479D01*
X16800279Y-8371479D01*
X16800279Y-8443321D01*
X16872121Y-8443321D01*
X16872121Y-8697321D02*
X16872121Y-8625479D01*
X16800279Y-8625479D01*
X16800279Y-8697321D01*
X16872121Y-8697321D01*
X19158121Y-6919321D02*
X19158121Y-6847479D01*
X19086279Y-6847479D01*
X19086279Y-6919321D01*
X19158121Y-6919321D01*
X19158121Y-7173321D02*
X19158121Y-7101479D01*
X19086279Y-7101479D01*
X19086279Y-7173321D01*
X19158121Y-7173321D01*
X19158121Y-7427321D02*
X19158121Y-7355479D01*
X19086279Y-7355479D01*
X19086279Y-7427321D01*
X19158121Y-7427321D01*
X19158121Y-7681321D02*
X19158121Y-7609479D01*
X19086279Y-7609479D01*
X19086279Y-7681321D01*
X19158121Y-7681321D01*
X19158121Y-7935321D02*
X19158121Y-7863479D01*
X19086279Y-7863479D01*
X19086279Y-7935321D01*
X19158121Y-7935321D01*
X19158121Y-8189321D02*
X19158121Y-8117479D01*
X19086279Y-8117479D01*
X19086279Y-8189321D01*
X19158121Y-8189321D01*
X19158121Y-8443321D02*
X19158121Y-8371479D01*
X19086279Y-8371479D01*
X19086279Y-8443321D01*
X19158121Y-8443321D01*
X19158121Y-8697321D02*
X19158121Y-8625479D01*
X19086279Y-8625479D01*
X19086279Y-8697321D01*
X19158121Y-8697321D01*
X12294521Y-9579521D02*
X12294521Y-9507679D01*
X12222679Y-9507679D01*
X12222679Y-9579521D01*
X12294521Y-9579521D01*
X12294521Y-9833521D02*
X12294521Y-9761679D01*
X12222679Y-9761679D01*
X12222679Y-9833521D01*
X12294521Y-9833521D01*
X12548521Y-9579521D02*
X12548521Y-9507679D01*
X12476679Y-9507679D01*
X12476679Y-9579521D01*
X12548521Y-9579521D01*
X12548521Y-9833521D02*
X12548521Y-9761679D01*
X12476679Y-9761679D01*
X12476679Y-9833521D01*
X12548521Y-9833521D01*
X12802521Y-9579521D02*
X12802521Y-9507679D01*
X12730679Y-9507679D01*
X12730679Y-9579521D01*
X12802521Y-9579521D01*
X12802521Y-9833521D02*
X12802521Y-9761679D01*
X12730679Y-9761679D01*
X12730679Y-9833521D01*
X12802521Y-9833521D01*
X13056521Y-9579521D02*
X13056521Y-9507679D01*
X12984679Y-9507679D01*
X12984679Y-9579521D01*
X13056521Y-9579521D01*
X13056521Y-9833521D02*
X13056521Y-9761679D01*
X12984679Y-9761679D01*
X12984679Y-9833521D01*
X13056521Y-9833521D01*
X18894521Y-9579521D02*
X18894521Y-9507679D01*
X18822679Y-9507679D01*
X18822679Y-9579521D01*
X18894521Y-9579521D01*
X18894521Y-9833521D02*
X18894521Y-9761679D01*
X18822679Y-9761679D01*
X18822679Y-9833521D01*
X18894521Y-9833521D01*
X19148521Y-9579521D02*
X19148521Y-9507679D01*
X19076679Y-9507679D01*
X19076679Y-9579521D01*
X19148521Y-9579521D01*
X19148521Y-9833521D02*
X19148521Y-9761679D01*
X19076679Y-9761679D01*
X19076679Y-9833521D01*
X19148521Y-9833521D01*
X19402521Y-9579521D02*
X19402521Y-9507679D01*
X19330679Y-9507679D01*
X19330679Y-9579521D01*
X19402521Y-9579521D01*
X19402521Y-9833521D02*
X19402521Y-9761679D01*
X19330679Y-9761679D01*
X19330679Y-9833521D01*
X19402521Y-9833521D01*
X19656521Y-9579521D02*
X19656521Y-9507679D01*
X19584679Y-9507679D01*
X19584679Y-9579521D01*
X19656521Y-9579521D01*
X19656521Y-9833521D02*
X19656521Y-9761679D01*
X19584679Y-9761679D01*
X19584679Y-9833521D01*
X19656521Y-9833521D01*
X10272121Y-6919321D02*
X10272121Y-6847479D01*
X10200279Y-6847479D01*
X10200279Y-6919321D01*
X10272121Y-6919321D01*
X10272121Y-7173321D02*
X10272121Y-7101479D01*
X10200279Y-7101479D01*
X10200279Y-7173321D01*
X10272121Y-7173321D01*
X10272121Y-7427321D02*
X10272121Y-7355479D01*
X10200279Y-7355479D01*
X10200279Y-7427321D01*
X10272121Y-7427321D01*
X10272121Y-7681321D02*
X10272121Y-7609479D01*
X10200279Y-7609479D01*
X10200279Y-7681321D01*
X10272121Y-7681321D01*
X10272121Y-7935321D02*
X10272121Y-7863479D01*
X10200279Y-7863479D01*
X10200279Y-7935321D01*
X10272121Y-7935321D01*
X10272121Y-8189321D02*
X10272121Y-8117479D01*
X10200279Y-8117479D01*
X10200279Y-8189321D01*
X10272121Y-8189321D01*
X10272121Y-8443321D02*
X10272121Y-8371479D01*
X10200279Y-8371479D01*
X10200279Y-8443321D01*
X10272121Y-8443321D01*
X10272121Y-8697321D02*
X10272121Y-8625479D01*
X10200279Y-8625479D01*
X10200279Y-8697321D01*
X10272121Y-8697321D01*
X12558121Y-6919321D02*
X12558121Y-6847479D01*
X12486279Y-6847479D01*
X12486279Y-6919321D01*
X12558121Y-6919321D01*
X12558121Y-7173321D02*
X12558121Y-7101479D01*
X12486279Y-7101479D01*
X12486279Y-7173321D01*
X12558121Y-7173321D01*
X12558121Y-7427321D02*
X12558121Y-7355479D01*
X12486279Y-7355479D01*
X12486279Y-7427321D01*
X12558121Y-7427321D01*
X12558121Y-7681321D02*
X12558121Y-7609479D01*
X12486279Y-7609479D01*
X12486279Y-7681321D01*
X12558121Y-7681321D01*
X12558121Y-7935321D02*
X12558121Y-7863479D01*
X12486279Y-7863479D01*
X12486279Y-7935321D01*
X12558121Y-7935321D01*
X12558121Y-8189321D02*
X12558121Y-8117479D01*
X12486279Y-8117479D01*
X12486279Y-8189321D01*
X12558121Y-8189321D01*
X12558121Y-8443321D02*
X12558121Y-8371479D01*
X12486279Y-8371479D01*
X12486279Y-8443321D01*
X12558121Y-8443321D01*
X12558121Y-8697321D02*
X12558121Y-8625479D01*
X12486279Y-8625479D01*
X12486279Y-8697321D01*
X12558121Y-8697321D01*
X13572121Y-6919321D02*
X13572121Y-6847479D01*
X13500279Y-6847479D01*
X13500279Y-6919321D01*
X13572121Y-6919321D01*
X13572121Y-7173321D02*
X13572121Y-7101479D01*
X13500279Y-7101479D01*
X13500279Y-7173321D01*
X13572121Y-7173321D01*
X13572121Y-7427321D02*
X13572121Y-7355479D01*
X13500279Y-7355479D01*
X13500279Y-7427321D01*
X13572121Y-7427321D01*
X13572121Y-7681321D02*
X13572121Y-7609479D01*
X13500279Y-7609479D01*
X13500279Y-7681321D01*
X13572121Y-7681321D01*
X13572121Y-7935321D02*
X13572121Y-7863479D01*
X13500279Y-7863479D01*
X13500279Y-7935321D01*
X13572121Y-7935321D01*
X13572121Y-8189321D02*
X13572121Y-8117479D01*
X13500279Y-8117479D01*
X13500279Y-8189321D01*
X13572121Y-8189321D01*
X13572121Y-8443321D02*
X13572121Y-8371479D01*
X13500279Y-8371479D01*
X13500279Y-8443321D01*
X13572121Y-8443321D01*
X13572121Y-8697321D02*
X13572121Y-8625479D01*
X13500279Y-8625479D01*
X13500279Y-8697321D01*
X13572121Y-8697321D01*
X15858121Y-6919321D02*
X15858121Y-6847479D01*
X15786279Y-6847479D01*
X15786279Y-6919321D01*
X15858121Y-6919321D01*
X15858121Y-7173321D02*
X15858121Y-7101479D01*
X15786279Y-7101479D01*
X15786279Y-7173321D01*
X15858121Y-7173321D01*
X15858121Y-7427321D02*
X15858121Y-7355479D01*
X15786279Y-7355479D01*
X15786279Y-7427321D01*
X15858121Y-7427321D01*
X15858121Y-7681321D02*
X15858121Y-7609479D01*
X15786279Y-7609479D01*
X15786279Y-7681321D01*
X15858121Y-7681321D01*
X15858121Y-7935321D02*
X15858121Y-7863479D01*
X15786279Y-7863479D01*
X15786279Y-7935321D01*
X15858121Y-7935321D01*
X15858121Y-8189321D02*
X15858121Y-8117479D01*
X15786279Y-8117479D01*
X15786279Y-8189321D01*
X15858121Y-8189321D01*
X15858121Y-8443321D02*
X15858121Y-8371479D01*
X15786279Y-8371479D01*
X15786279Y-8443321D01*
X15858121Y-8443321D01*
X15858121Y-8697321D02*
X15858121Y-8625479D01*
X15786279Y-8625479D01*
X15786279Y-8697321D01*
X15858121Y-8697321D01*
X16872121Y-11919321D02*
X16872121Y-11847479D01*
X16800279Y-11847479D01*
X16800279Y-11919321D01*
X16872121Y-11919321D01*
X16872121Y-12173321D02*
X16872121Y-12101479D01*
X16800279Y-12101479D01*
X16800279Y-12173321D01*
X16872121Y-12173321D01*
X16872121Y-12427321D02*
X16872121Y-12355479D01*
X16800279Y-12355479D01*
X16800279Y-12427321D01*
X16872121Y-12427321D01*
X16872121Y-12681321D02*
X16872121Y-12609479D01*
X16800279Y-12609479D01*
X16800279Y-12681321D01*
X16872121Y-12681321D01*
X16872121Y-12935321D02*
X16872121Y-12863479D01*
X16800279Y-12863479D01*
X16800279Y-12935321D01*
X16872121Y-12935321D01*
X16872121Y-13189321D02*
X16872121Y-13117479D01*
X16800279Y-13117479D01*
X16800279Y-13189321D01*
X16872121Y-13189321D01*
X16872121Y-13443321D02*
X16872121Y-13371479D01*
X16800279Y-13371479D01*
X16800279Y-13443321D01*
X16872121Y-13443321D01*
X16872121Y-13697321D02*
X16872121Y-13625479D01*
X16800279Y-13625479D01*
X16800279Y-13697321D01*
X16872121Y-13697321D01*
X19158121Y-11919321D02*
X19158121Y-11847479D01*
X19086279Y-11847479D01*
X19086279Y-11919321D01*
X19158121Y-11919321D01*
X19158121Y-12173321D02*
X19158121Y-12101479D01*
X19086279Y-12101479D01*
X19086279Y-12173321D01*
X19158121Y-12173321D01*
X19158121Y-12427321D02*
X19158121Y-12355479D01*
X19086279Y-12355479D01*
X19086279Y-12427321D01*
X19158121Y-12427321D01*
X19158121Y-12681321D02*
X19158121Y-12609479D01*
X19086279Y-12609479D01*
X19086279Y-12681321D01*
X19158121Y-12681321D01*
X19158121Y-12935321D02*
X19158121Y-12863479D01*
X19086279Y-12863479D01*
X19086279Y-12935321D01*
X19158121Y-12935321D01*
X19158121Y-13189321D02*
X19158121Y-13117479D01*
X19086279Y-13117479D01*
X19086279Y-13189321D01*
X19158121Y-13189321D01*
X19158121Y-13443321D02*
X19158121Y-13371479D01*
X19086279Y-13371479D01*
X19086279Y-13443321D01*
X19158121Y-13443321D01*
X19158121Y-13697321D02*
X19158121Y-13625479D01*
X19086279Y-13625479D01*
X19086279Y-13697321D01*
X19158121Y-13697321D01*
X18894521Y-14579521D02*
X18894521Y-14507679D01*
X18822679Y-14507679D01*
X18822679Y-14579521D01*
X18894521Y-14579521D01*
X18894521Y-14833521D02*
X18894521Y-14761679D01*
X18822679Y-14761679D01*
X18822679Y-14833521D01*
X18894521Y-14833521D01*
X19148521Y-14579521D02*
X19148521Y-14507679D01*
X19076679Y-14507679D01*
X19076679Y-14579521D01*
X19148521Y-14579521D01*
X19148521Y-14833521D02*
X19148521Y-14761679D01*
X19076679Y-14761679D01*
X19076679Y-14833521D01*
X19148521Y-14833521D01*
X19402521Y-14579521D02*
X19402521Y-14507679D01*
X19330679Y-14507679D01*
X19330679Y-14579521D01*
X19402521Y-14579521D01*
X19402521Y-14833521D02*
X19402521Y-14761679D01*
X19330679Y-14761679D01*
X19330679Y-14833521D01*
X19402521Y-14833521D01*
X19656521Y-14579521D02*
X19656521Y-14507679D01*
X19584679Y-14507679D01*
X19584679Y-14579521D01*
X19656521Y-14579521D01*
X19656521Y-14833521D02*
X19656521Y-14761679D01*
X19584679Y-14761679D01*
X19584679Y-14833521D01*
X19656521Y-14833521D01*
X13572121Y-11919321D02*
X13572121Y-11847479D01*
X13500279Y-11847479D01*
X13500279Y-11919321D01*
X13572121Y-11919321D01*
X13572121Y-12173321D02*
X13572121Y-12101479D01*
X13500279Y-12101479D01*
X13500279Y-12173321D01*
X13572121Y-12173321D01*
X13572121Y-12427321D02*
X13572121Y-12355479D01*
X13500279Y-12355479D01*
X13500279Y-12427321D01*
X13572121Y-12427321D01*
X13572121Y-12681321D02*
X13572121Y-12609479D01*
X13500279Y-12609479D01*
X13500279Y-12681321D01*
X13572121Y-12681321D01*
X13572121Y-12935321D02*
X13572121Y-12863479D01*
X13500279Y-12863479D01*
X13500279Y-12935321D01*
X13572121Y-12935321D01*
X13572121Y-13189321D02*
X13572121Y-13117479D01*
X13500279Y-13117479D01*
X13500279Y-13189321D01*
X13572121Y-13189321D01*
X13572121Y-13443321D02*
X13572121Y-13371479D01*
X13500279Y-13371479D01*
X13500279Y-13443321D01*
X13572121Y-13443321D01*
X13572121Y-13697321D02*
X13572121Y-13625479D01*
X13500279Y-13625479D01*
X13500279Y-13697321D01*
X13572121Y-13697321D01*
X15858121Y-11919321D02*
X15858121Y-11847479D01*
X15786279Y-11847479D01*
X15786279Y-11919321D01*
X15858121Y-11919321D01*
X15858121Y-12173321D02*
X15858121Y-12101479D01*
X15786279Y-12101479D01*
X15786279Y-12173321D01*
X15858121Y-12173321D01*
X15858121Y-12427321D02*
X15858121Y-12355479D01*
X15786279Y-12355479D01*
X15786279Y-12427321D01*
X15858121Y-12427321D01*
X15858121Y-12681321D02*
X15858121Y-12609479D01*
X15786279Y-12609479D01*
X15786279Y-12681321D01*
X15858121Y-12681321D01*
X15858121Y-12935321D02*
X15858121Y-12863479D01*
X15786279Y-12863479D01*
X15786279Y-12935321D01*
X15858121Y-12935321D01*
X15858121Y-13189321D02*
X15858121Y-13117479D01*
X15786279Y-13117479D01*
X15786279Y-13189321D01*
X15858121Y-13189321D01*
X15858121Y-13443321D02*
X15858121Y-13371479D01*
X15786279Y-13371479D01*
X15786279Y-13443321D01*
X15858121Y-13443321D01*
X15858121Y-13697321D02*
X15858121Y-13625479D01*
X15786279Y-13625479D01*
X15786279Y-13697321D01*
X15858121Y-13697321D01*
X19427000Y-10320284D02*
X19489484Y-10257800D01*
X19427000Y-10195316D01*
X19364516Y-10257800D01*
X19427000Y-10320284D01*
X19427000Y-10828284D02*
X19489484Y-10765800D01*
X19427000Y-10703316D01*
X19364516Y-10765800D01*
X19427000Y-10828284D01*
X12827000Y-10320284D02*
X12889484Y-10257800D01*
X12827000Y-10195316D01*
X12764516Y-10257800D01*
X12827000Y-10320284D01*
X12827000Y-10828284D02*
X12889484Y-10765800D01*
X12827000Y-10703316D01*
X12764516Y-10765800D01*
X12827000Y-10828284D01*
X16127000Y-10320284D02*
X16189484Y-10257800D01*
X16127000Y-10195316D01*
X16064516Y-10257800D01*
X16127000Y-10320284D01*
X16127000Y-10828284D02*
X16189484Y-10765800D01*
X16127000Y-10703316D01*
X16064516Y-10765800D01*
X16127000Y-10828284D01*
X16127000Y-5320284D02*
X16189484Y-5257800D01*
X16127000Y-5195316D01*
X16064516Y-5257800D01*
X16127000Y-5320284D01*
X16127000Y-5828284D02*
X16189484Y-5765800D01*
X16127000Y-5703316D01*
X16064516Y-5765800D01*
X16127000Y-5828284D01*
X12827000Y-5320284D02*
X12889484Y-5257800D01*
X12827000Y-5195316D01*
X12764516Y-5257800D01*
X12827000Y-5320284D01*
X12827000Y-5828284D02*
X12889484Y-5765800D01*
X12827000Y-5703316D01*
X12764516Y-5765800D01*
X12827000Y-5828284D01*
X19427000Y-5320284D02*
X19489484Y-5257800D01*
X19427000Y-5195316D01*
X19364516Y-5257800D01*
X19427000Y-5320284D01*
X19427000Y-5828284D02*
X19489484Y-5765800D01*
X19427000Y-5703316D01*
X19364516Y-5765800D01*
X19427000Y-5828284D01*
D12*
X10278928Y-15473214D02*
X10278928Y-15173214D01*
X10350357Y-15173214D01*
X10393214Y-15187500D01*
X10421786Y-15216071D01*
X10436071Y-15244643D01*
X10450357Y-15301786D01*
X10450357Y-15344643D01*
X10436071Y-15401786D01*
X10421786Y-15430357D01*
X10393214Y-15458929D01*
X10350357Y-15473214D01*
X10278928Y-15473214D01*
X10578928Y-15473214D02*
X10578928Y-15273214D01*
X10578928Y-15330357D02*
X10593214Y-15301786D01*
X10607500Y-15287500D01*
X10636071Y-15273214D01*
X10664643Y-15273214D01*
X10764643Y-15473214D02*
X10764643Y-15273214D01*
X10764643Y-15173214D02*
X10750357Y-15187500D01*
X10764643Y-15201786D01*
X10778928Y-15187500D01*
X10764643Y-15173214D01*
X10764643Y-15201786D01*
X10950357Y-15473214D02*
X10921786Y-15458929D01*
X10907500Y-15430357D01*
X10907500Y-15173214D01*
X11107500Y-15473214D02*
X11078928Y-15458929D01*
X11064643Y-15430357D01*
X11064643Y-15173214D01*
X11450357Y-15473214D02*
X11450357Y-15173214D01*
X11550357Y-15387500D01*
X11650357Y-15173214D01*
X11650357Y-15473214D01*
X11921786Y-15473214D02*
X11921786Y-15316071D01*
X11907500Y-15287500D01*
X11878928Y-15273214D01*
X11821786Y-15273214D01*
X11793214Y-15287500D01*
X11921786Y-15458929D02*
X11893214Y-15473214D01*
X11821786Y-15473214D01*
X11793214Y-15458929D01*
X11778928Y-15430357D01*
X11778928Y-15401786D01*
X11793214Y-15373214D01*
X11821786Y-15358929D01*
X11893214Y-15358929D01*
X11921786Y-15344643D01*
X12064643Y-15273214D02*
X12064643Y-15573214D01*
X12064643Y-15287500D02*
X12093214Y-15273214D01*
X12150357Y-15273214D01*
X12178928Y-15287500D01*
X12193214Y-15301786D01*
X12207500Y-15330357D01*
X12207500Y-15416071D01*
X12193214Y-15444643D01*
X12178928Y-15458929D01*
X12150357Y-15473214D01*
X12093214Y-15473214D01*
X12064643Y-15458929D01*
X12336071Y-15444643D02*
X12350357Y-15458929D01*
X12336071Y-15473214D01*
X12321786Y-15458929D01*
X12336071Y-15444643D01*
X12336071Y-15473214D01*
X12336071Y-15287500D02*
X12350357Y-15301786D01*
X12336071Y-15316071D01*
X12321786Y-15301786D01*
X12336071Y-15287500D01*
X12336071Y-15316071D01*
X9952500Y-15947500D02*
X9992500Y-15987500D01*
X9992500Y-15947500D02*
X9952500Y-15987500D01*
X10336071Y-15803214D02*
X10364643Y-15803214D01*
X10393214Y-15817500D01*
X10407500Y-15831786D01*
X10421786Y-15860357D01*
X10436071Y-15917500D01*
X10436071Y-15988929D01*
X10421786Y-16046071D01*
X10407500Y-16074643D01*
X10393214Y-16088929D01*
X10364643Y-16103214D01*
X10336071Y-16103214D01*
X10307500Y-16088929D01*
X10293214Y-16074643D01*
X10278928Y-16046071D01*
X10264643Y-15988929D01*
X10264643Y-15917500D01*
X10278928Y-15860357D01*
X10293214Y-15831786D01*
X10307500Y-15817500D01*
X10336071Y-15803214D01*
X10564643Y-16074643D02*
X10578928Y-16088929D01*
X10564643Y-16103214D01*
X10550357Y-16088929D01*
X10564643Y-16074643D01*
X10564643Y-16103214D01*
X10836071Y-15903214D02*
X10836071Y-16103214D01*
X10764643Y-15788929D02*
X10693214Y-16003214D01*
X10878928Y-16003214D01*
X11050357Y-15803214D02*
X11078928Y-15803214D01*
X11107500Y-15817500D01*
X11121786Y-15831786D01*
X11136071Y-15860357D01*
X11150357Y-15917500D01*
X11150357Y-15988929D01*
X11136071Y-16046071D01*
X11121786Y-16074643D01*
X11107500Y-16088929D01*
X11078928Y-16103214D01*
X11050357Y-16103214D01*
X11021786Y-16088929D01*
X11007500Y-16074643D01*
X10993214Y-16046071D01*
X10978928Y-15988929D01*
X10978928Y-15917500D01*
X10993214Y-15860357D01*
X11007500Y-15831786D01*
X11021786Y-15817500D01*
X11050357Y-15803214D01*
X11278928Y-16103214D02*
X11278928Y-15903214D01*
X11278928Y-15931786D02*
X11293214Y-15917500D01*
X11321786Y-15903214D01*
X11364643Y-15903214D01*
X11393214Y-15917500D01*
X11407500Y-15946071D01*
X11407500Y-16103214D01*
X11407500Y-15946071D02*
X11421786Y-15917500D01*
X11450357Y-15903214D01*
X11493214Y-15903214D01*
X11521786Y-15917500D01*
X11536071Y-15946071D01*
X11536071Y-16103214D01*
X11678928Y-16103214D02*
X11678928Y-15903214D01*
X11678928Y-15931786D02*
X11693214Y-15917500D01*
X11721786Y-15903214D01*
X11764643Y-15903214D01*
X11793214Y-15917500D01*
X11807500Y-15946071D01*
X11807500Y-16103214D01*
X11807500Y-15946071D02*
X11821786Y-15917500D01*
X11850357Y-15903214D01*
X11893214Y-15903214D01*
X11921786Y-15917500D01*
X11936071Y-15946071D01*
X11936071Y-16103214D01*
X12521786Y-15788929D02*
X12264643Y-16174643D01*
X12907500Y-15803214D02*
X12936071Y-15803214D01*
X12964643Y-15817500D01*
X12978928Y-15831786D01*
X12993214Y-15860357D01*
X13007500Y-15917500D01*
X13007500Y-15988929D01*
X12993214Y-16046071D01*
X12978928Y-16074643D01*
X12964643Y-16088929D01*
X12936071Y-16103214D01*
X12907500Y-16103214D01*
X12878928Y-16088929D01*
X12864643Y-16074643D01*
X12850357Y-16046071D01*
X12836071Y-15988929D01*
X12836071Y-15917500D01*
X12850357Y-15860357D01*
X12864643Y-15831786D01*
X12878928Y-15817500D01*
X12907500Y-15803214D01*
X13136071Y-16074643D02*
X13150357Y-16088929D01*
X13136071Y-16103214D01*
X13121786Y-16088929D01*
X13136071Y-16074643D01*
X13136071Y-16103214D01*
X13336071Y-15803214D02*
X13364643Y-15803214D01*
X13393214Y-15817500D01*
X13407500Y-15831786D01*
X13421786Y-15860357D01*
X13436071Y-15917500D01*
X13436071Y-15988929D01*
X13421786Y-16046071D01*
X13407500Y-16074643D01*
X13393214Y-16088929D01*
X13364643Y-16103214D01*
X13336071Y-16103214D01*
X13307500Y-16088929D01*
X13293214Y-16074643D01*
X13278928Y-16046071D01*
X13264643Y-15988929D01*
X13264643Y-15917500D01*
X13278928Y-15860357D01*
X13293214Y-15831786D01*
X13307500Y-15817500D01*
X13336071Y-15803214D01*
X13721786Y-16103214D02*
X13550357Y-16103214D01*
X13636071Y-16103214D02*
X13636071Y-15803214D01*
X13607500Y-15846071D01*
X13578928Y-15874643D01*
X13550357Y-15888929D01*
X13978928Y-15803214D02*
X13921786Y-15803214D01*
X13893214Y-15817500D01*
X13878928Y-15831786D01*
X13850357Y-15874643D01*
X13836071Y-15931786D01*
X13836071Y-16046071D01*
X13850357Y-16074643D01*
X13864643Y-16088929D01*
X13893214Y-16103214D01*
X13950357Y-16103214D01*
X13978928Y-16088929D01*
X13993214Y-16074643D01*
X14007500Y-16046071D01*
X14007500Y-15974643D01*
X13993214Y-15946071D01*
X13978928Y-15931786D01*
X13950357Y-15917500D01*
X13893214Y-15917500D01*
X13864643Y-15931786D01*
X13850357Y-15946071D01*
X13836071Y-15974643D01*
X14121786Y-15803214D02*
X14121786Y-15860357D01*
X14236071Y-15803214D02*
X14236071Y-15860357D01*
X14678928Y-16217500D02*
X14664643Y-16203214D01*
X14636071Y-16160357D01*
X14621786Y-16131786D01*
X14607500Y-16088929D01*
X14593214Y-16017500D01*
X14593214Y-15960357D01*
X14607500Y-15888929D01*
X14621786Y-15846071D01*
X14636071Y-15817500D01*
X14664643Y-15774643D01*
X14678928Y-15760357D01*
X14764643Y-15803214D02*
X14964643Y-15803214D01*
X14836071Y-16103214D01*
X15121786Y-15931786D02*
X15093214Y-15917500D01*
X15078928Y-15903214D01*
X15064643Y-15874643D01*
X15064643Y-15860357D01*
X15078928Y-15831786D01*
X15093214Y-15817500D01*
X15121786Y-15803214D01*
X15178928Y-15803214D01*
X15207500Y-15817500D01*
X15221786Y-15831786D01*
X15236071Y-15860357D01*
X15236071Y-15874643D01*
X15221786Y-15903214D01*
X15207500Y-15917500D01*
X15178928Y-15931786D01*
X15121786Y-15931786D01*
X15093214Y-15946071D01*
X15078928Y-15960357D01*
X15064643Y-15988929D01*
X15064643Y-16046071D01*
X15078928Y-16074643D01*
X15093214Y-16088929D01*
X15121786Y-16103214D01*
X15178928Y-16103214D01*
X15207500Y-16088929D01*
X15221786Y-16074643D01*
X15236071Y-16046071D01*
X15236071Y-15988929D01*
X15221786Y-15960357D01*
X15207500Y-15946071D01*
X15178928Y-15931786D01*
X15593214Y-16103214D02*
X15593214Y-15803214D01*
X15721786Y-16103214D02*
X15721786Y-15946071D01*
X15707500Y-15917500D01*
X15678928Y-15903214D01*
X15636071Y-15903214D01*
X15607500Y-15917500D01*
X15593214Y-15931786D01*
X15907500Y-16103214D02*
X15878928Y-16088929D01*
X15864643Y-16074643D01*
X15850357Y-16046071D01*
X15850357Y-15960357D01*
X15864643Y-15931786D01*
X15878928Y-15917500D01*
X15907500Y-15903214D01*
X15950357Y-15903214D01*
X15978928Y-15917500D01*
X15993214Y-15931786D01*
X16007500Y-15960357D01*
X16007500Y-16046071D01*
X15993214Y-16074643D01*
X15978928Y-16088929D01*
X15950357Y-16103214D01*
X15907500Y-16103214D01*
X16178928Y-16103214D02*
X16150357Y-16088929D01*
X16136071Y-16060357D01*
X16136071Y-15803214D01*
X16407500Y-16088929D02*
X16378928Y-16103214D01*
X16321786Y-16103214D01*
X16293214Y-16088929D01*
X16278928Y-16060357D01*
X16278928Y-15946071D01*
X16293214Y-15917500D01*
X16321786Y-15903214D01*
X16378928Y-15903214D01*
X16407500Y-15917500D01*
X16421786Y-15946071D01*
X16421786Y-15974643D01*
X16278928Y-16003214D01*
X16536071Y-16088929D02*
X16564643Y-16103214D01*
X16621786Y-16103214D01*
X16650357Y-16088929D01*
X16664643Y-16060357D01*
X16664643Y-16046071D01*
X16650357Y-16017500D01*
X16621786Y-16003214D01*
X16578928Y-16003214D01*
X16550357Y-15988929D01*
X16536071Y-15960357D01*
X16536071Y-15946071D01*
X16550357Y-15917500D01*
X16578928Y-15903214D01*
X16621786Y-15903214D01*
X16650357Y-15917500D01*
X16764643Y-16217500D02*
X16778928Y-16203214D01*
X16807500Y-16160357D01*
X16821786Y-16131786D01*
X16836071Y-16088929D01*
X16850357Y-16017500D01*
X16850357Y-15960357D01*
X16836071Y-15888929D01*
X16821786Y-15846071D01*
X16807500Y-15817500D01*
X16778928Y-15774643D01*
X16764643Y-15760357D01*
X9992500Y-16363500D02*
G75*
G03X9992500Y-16363500I-45000J0D01*
G01*
X10336071Y-16199214D02*
X10364643Y-16199214D01*
X10393214Y-16213500D01*
X10407500Y-16227786D01*
X10421786Y-16256357D01*
X10436071Y-16313500D01*
X10436071Y-16384929D01*
X10421786Y-16442071D01*
X10407500Y-16470643D01*
X10393214Y-16484929D01*
X10364643Y-16499214D01*
X10336071Y-16499214D01*
X10307500Y-16484929D01*
X10293214Y-16470643D01*
X10278928Y-16442071D01*
X10264643Y-16384929D01*
X10264643Y-16313500D01*
X10278928Y-16256357D01*
X10293214Y-16227786D01*
X10307500Y-16213500D01*
X10336071Y-16199214D01*
X10564643Y-16470643D02*
X10578928Y-16484929D01*
X10564643Y-16499214D01*
X10550357Y-16484929D01*
X10564643Y-16470643D01*
X10564643Y-16499214D01*
X10721786Y-16499214D02*
X10778928Y-16499214D01*
X10807500Y-16484929D01*
X10821786Y-16470643D01*
X10850357Y-16427786D01*
X10864643Y-16370643D01*
X10864643Y-16256357D01*
X10850357Y-16227786D01*
X10836071Y-16213500D01*
X10807500Y-16199214D01*
X10750357Y-16199214D01*
X10721786Y-16213500D01*
X10707500Y-16227786D01*
X10693214Y-16256357D01*
X10693214Y-16327786D01*
X10707500Y-16356357D01*
X10721786Y-16370643D01*
X10750357Y-16384929D01*
X10807500Y-16384929D01*
X10836071Y-16370643D01*
X10850357Y-16356357D01*
X10864643Y-16327786D01*
X11050357Y-16199214D02*
X11078928Y-16199214D01*
X11107500Y-16213500D01*
X11121786Y-16227786D01*
X11136071Y-16256357D01*
X11150357Y-16313500D01*
X11150357Y-16384929D01*
X11136071Y-16442071D01*
X11121786Y-16470643D01*
X11107500Y-16484929D01*
X11078928Y-16499214D01*
X11050357Y-16499214D01*
X11021786Y-16484929D01*
X11007500Y-16470643D01*
X10993214Y-16442071D01*
X10978928Y-16384929D01*
X10978928Y-16313500D01*
X10993214Y-16256357D01*
X11007500Y-16227786D01*
X11021786Y-16213500D01*
X11050357Y-16199214D01*
X11278928Y-16499214D02*
X11278928Y-16299214D01*
X11278928Y-16327786D02*
X11293214Y-16313500D01*
X11321786Y-16299214D01*
X11364643Y-16299214D01*
X11393214Y-16313500D01*
X11407500Y-16342071D01*
X11407500Y-16499214D01*
X11407500Y-16342071D02*
X11421786Y-16313500D01*
X11450357Y-16299214D01*
X11493214Y-16299214D01*
X11521786Y-16313500D01*
X11536071Y-16342071D01*
X11536071Y-16499214D01*
X11678928Y-16499214D02*
X11678928Y-16299214D01*
X11678928Y-16327786D02*
X11693214Y-16313500D01*
X11721786Y-16299214D01*
X11764643Y-16299214D01*
X11793214Y-16313500D01*
X11807500Y-16342071D01*
X11807500Y-16499214D01*
X11807500Y-16342071D02*
X11821786Y-16313500D01*
X11850357Y-16299214D01*
X11893214Y-16299214D01*
X11921786Y-16313500D01*
X11936071Y-16342071D01*
X11936071Y-16499214D01*
X12521786Y-16184929D02*
X12264643Y-16570643D01*
X12907500Y-16199214D02*
X12936071Y-16199214D01*
X12964643Y-16213500D01*
X12978928Y-16227786D01*
X12993214Y-16256357D01*
X13007500Y-16313500D01*
X13007500Y-16384929D01*
X12993214Y-16442071D01*
X12978928Y-16470643D01*
X12964643Y-16484929D01*
X12936071Y-16499214D01*
X12907500Y-16499214D01*
X12878928Y-16484929D01*
X12864643Y-16470643D01*
X12850357Y-16442071D01*
X12836071Y-16384929D01*
X12836071Y-16313500D01*
X12850357Y-16256357D01*
X12864643Y-16227786D01*
X12878928Y-16213500D01*
X12907500Y-16199214D01*
X13136071Y-16470643D02*
X13150357Y-16484929D01*
X13136071Y-16499214D01*
X13121786Y-16484929D01*
X13136071Y-16470643D01*
X13136071Y-16499214D01*
X13336071Y-16199214D02*
X13364643Y-16199214D01*
X13393214Y-16213500D01*
X13407500Y-16227786D01*
X13421786Y-16256357D01*
X13436071Y-16313500D01*
X13436071Y-16384929D01*
X13421786Y-16442071D01*
X13407500Y-16470643D01*
X13393214Y-16484929D01*
X13364643Y-16499214D01*
X13336071Y-16499214D01*
X13307500Y-16484929D01*
X13293214Y-16470643D01*
X13278928Y-16442071D01*
X13264643Y-16384929D01*
X13264643Y-16313500D01*
X13278928Y-16256357D01*
X13293214Y-16227786D01*
X13307500Y-16213500D01*
X13336071Y-16199214D01*
X13536071Y-16199214D02*
X13721786Y-16199214D01*
X13621786Y-16313500D01*
X13664643Y-16313500D01*
X13693214Y-16327786D01*
X13707500Y-16342071D01*
X13721786Y-16370643D01*
X13721786Y-16442071D01*
X13707500Y-16470643D01*
X13693214Y-16484929D01*
X13664643Y-16499214D01*
X13578928Y-16499214D01*
X13550357Y-16484929D01*
X13536071Y-16470643D01*
X13993214Y-16199214D02*
X13850357Y-16199214D01*
X13836071Y-16342071D01*
X13850357Y-16327786D01*
X13878928Y-16313500D01*
X13950357Y-16313500D01*
X13978928Y-16327786D01*
X13993214Y-16342071D01*
X14007500Y-16370643D01*
X14007500Y-16442071D01*
X13993214Y-16470643D01*
X13978928Y-16484929D01*
X13950357Y-16499214D01*
X13878928Y-16499214D01*
X13850357Y-16484929D01*
X13836071Y-16470643D01*
X14121786Y-16199214D02*
X14121786Y-16256357D01*
X14236071Y-16199214D02*
X14236071Y-16256357D01*
X14678928Y-16613500D02*
X14664643Y-16599214D01*
X14636071Y-16556357D01*
X14621786Y-16527786D01*
X14607500Y-16484929D01*
X14593214Y-16413500D01*
X14593214Y-16356357D01*
X14607500Y-16284929D01*
X14621786Y-16242071D01*
X14636071Y-16213500D01*
X14664643Y-16170643D01*
X14678928Y-16156357D01*
X14921786Y-16299214D02*
X14921786Y-16499214D01*
X14850357Y-16184929D02*
X14778928Y-16399214D01*
X14964643Y-16399214D01*
X15064643Y-16227786D02*
X15078928Y-16213500D01*
X15107500Y-16199214D01*
X15178928Y-16199214D01*
X15207500Y-16213500D01*
X15221786Y-16227786D01*
X15236071Y-16256357D01*
X15236071Y-16284929D01*
X15221786Y-16327786D01*
X15050357Y-16499214D01*
X15236071Y-16499214D01*
X15593214Y-16499214D02*
X15593214Y-16199214D01*
X15721786Y-16499214D02*
X15721786Y-16342071D01*
X15707500Y-16313500D01*
X15678928Y-16299214D01*
X15636071Y-16299214D01*
X15607500Y-16313500D01*
X15593214Y-16327786D01*
X15907500Y-16499214D02*
X15878928Y-16484929D01*
X15864643Y-16470643D01*
X15850357Y-16442071D01*
X15850357Y-16356357D01*
X15864643Y-16327786D01*
X15878928Y-16313500D01*
X15907500Y-16299214D01*
X15950357Y-16299214D01*
X15978928Y-16313500D01*
X15993214Y-16327786D01*
X16007500Y-16356357D01*
X16007500Y-16442071D01*
X15993214Y-16470643D01*
X15978928Y-16484929D01*
X15950357Y-16499214D01*
X15907500Y-16499214D01*
X16178928Y-16499214D02*
X16150357Y-16484929D01*
X16136071Y-16456357D01*
X16136071Y-16199214D01*
X16407500Y-16484929D02*
X16378928Y-16499214D01*
X16321786Y-16499214D01*
X16293214Y-16484929D01*
X16278928Y-16456357D01*
X16278928Y-16342071D01*
X16293214Y-16313500D01*
X16321786Y-16299214D01*
X16378928Y-16299214D01*
X16407500Y-16313500D01*
X16421786Y-16342071D01*
X16421786Y-16370643D01*
X16278928Y-16399214D01*
X16536071Y-16484929D02*
X16564643Y-16499214D01*
X16621786Y-16499214D01*
X16650357Y-16484929D01*
X16664643Y-16456357D01*
X16664643Y-16442071D01*
X16650357Y-16413500D01*
X16621786Y-16399214D01*
X16578928Y-16399214D01*
X16550357Y-16384929D01*
X16536071Y-16356357D01*
X16536071Y-16342071D01*
X16550357Y-16313500D01*
X16578928Y-16299214D01*
X16621786Y-16299214D01*
X16650357Y-16313500D01*
X16764643Y-16613500D02*
X16778928Y-16599214D01*
X16807500Y-16556357D01*
X16821786Y-16527786D01*
X16836071Y-16484929D01*
X16850357Y-16413500D01*
X16850357Y-16356357D01*
X16836071Y-16284929D01*
X16821786Y-16242071D01*
X16807500Y-16213500D01*
X16778928Y-16170643D01*
X16764643Y-16156357D01*
X9942500Y-16709500D02*
X9942500Y-16809500D01*
X9892500Y-16759500D02*
X9992500Y-16759500D01*
X10436071Y-16895214D02*
X10264643Y-16895214D01*
X10350357Y-16895214D02*
X10350357Y-16595214D01*
X10321786Y-16638071D01*
X10293214Y-16666643D01*
X10264643Y-16680929D01*
X10564643Y-16866643D02*
X10578928Y-16880929D01*
X10564643Y-16895214D01*
X10550357Y-16880929D01*
X10564643Y-16866643D01*
X10564643Y-16895214D01*
X10764643Y-16595214D02*
X10793214Y-16595214D01*
X10821786Y-16609500D01*
X10836071Y-16623786D01*
X10850357Y-16652357D01*
X10864643Y-16709500D01*
X10864643Y-16780929D01*
X10850357Y-16838072D01*
X10836071Y-16866643D01*
X10821786Y-16880929D01*
X10793214Y-16895214D01*
X10764643Y-16895214D01*
X10736071Y-16880929D01*
X10721786Y-16866643D01*
X10707500Y-16838072D01*
X10693214Y-16780929D01*
X10693214Y-16709500D01*
X10707500Y-16652357D01*
X10721786Y-16623786D01*
X10736071Y-16609500D01*
X10764643Y-16595214D01*
X11050357Y-16595214D02*
X11078928Y-16595214D01*
X11107500Y-16609500D01*
X11121786Y-16623786D01*
X11136071Y-16652357D01*
X11150357Y-16709500D01*
X11150357Y-16780929D01*
X11136071Y-16838072D01*
X11121786Y-16866643D01*
X11107500Y-16880929D01*
X11078928Y-16895214D01*
X11050357Y-16895214D01*
X11021786Y-16880929D01*
X11007500Y-16866643D01*
X10993214Y-16838072D01*
X10978928Y-16780929D01*
X10978928Y-16709500D01*
X10993214Y-16652357D01*
X11007500Y-16623786D01*
X11021786Y-16609500D01*
X11050357Y-16595214D01*
X11278928Y-16895214D02*
X11278928Y-16695214D01*
X11278928Y-16723786D02*
X11293214Y-16709500D01*
X11321786Y-16695214D01*
X11364643Y-16695214D01*
X11393214Y-16709500D01*
X11407500Y-16738071D01*
X11407500Y-16895214D01*
X11407500Y-16738071D02*
X11421786Y-16709500D01*
X11450357Y-16695214D01*
X11493214Y-16695214D01*
X11521786Y-16709500D01*
X11536071Y-16738071D01*
X11536071Y-16895214D01*
X11678928Y-16895214D02*
X11678928Y-16695214D01*
X11678928Y-16723786D02*
X11693214Y-16709500D01*
X11721786Y-16695214D01*
X11764643Y-16695214D01*
X11793214Y-16709500D01*
X11807500Y-16738071D01*
X11807500Y-16895214D01*
X11807500Y-16738071D02*
X11821786Y-16709500D01*
X11850357Y-16695214D01*
X11893214Y-16695214D01*
X11921786Y-16709500D01*
X11936071Y-16738071D01*
X11936071Y-16895214D01*
X12521786Y-16580929D02*
X12264643Y-16966643D01*
X12907500Y-16595214D02*
X12936071Y-16595214D01*
X12964643Y-16609500D01*
X12978928Y-16623786D01*
X12993214Y-16652357D01*
X13007500Y-16709500D01*
X13007500Y-16780929D01*
X12993214Y-16838072D01*
X12978928Y-16866643D01*
X12964643Y-16880929D01*
X12936071Y-16895214D01*
X12907500Y-16895214D01*
X12878928Y-16880929D01*
X12864643Y-16866643D01*
X12850357Y-16838072D01*
X12836071Y-16780929D01*
X12836071Y-16709500D01*
X12850357Y-16652357D01*
X12864643Y-16623786D01*
X12878928Y-16609500D01*
X12907500Y-16595214D01*
X13136071Y-16866643D02*
X13150357Y-16880929D01*
X13136071Y-16895214D01*
X13121786Y-16880929D01*
X13136071Y-16866643D01*
X13136071Y-16895214D01*
X13336071Y-16595214D02*
X13364643Y-16595214D01*
X13393214Y-16609500D01*
X13407500Y-16623786D01*
X13421786Y-16652357D01*
X13436071Y-16709500D01*
X13436071Y-16780929D01*
X13421786Y-16838072D01*
X13407500Y-16866643D01*
X13393214Y-16880929D01*
X13364643Y-16895214D01*
X13336071Y-16895214D01*
X13307500Y-16880929D01*
X13293214Y-16866643D01*
X13278928Y-16838072D01*
X13264643Y-16780929D01*
X13264643Y-16709500D01*
X13278928Y-16652357D01*
X13293214Y-16623786D01*
X13307500Y-16609500D01*
X13336071Y-16595214D01*
X13536071Y-16595214D02*
X13721786Y-16595214D01*
X13621786Y-16709500D01*
X13664643Y-16709500D01*
X13693214Y-16723786D01*
X13707500Y-16738071D01*
X13721786Y-16766643D01*
X13721786Y-16838072D01*
X13707500Y-16866643D01*
X13693214Y-16880929D01*
X13664643Y-16895214D01*
X13578928Y-16895214D01*
X13550357Y-16880929D01*
X13536071Y-16866643D01*
X13864643Y-16895214D02*
X13921786Y-16895214D01*
X13950357Y-16880929D01*
X13964643Y-16866643D01*
X13993214Y-16823786D01*
X14007500Y-16766643D01*
X14007500Y-16652357D01*
X13993214Y-16623786D01*
X13978928Y-16609500D01*
X13950357Y-16595214D01*
X13893214Y-16595214D01*
X13864643Y-16609500D01*
X13850357Y-16623786D01*
X13836071Y-16652357D01*
X13836071Y-16723786D01*
X13850357Y-16752357D01*
X13864643Y-16766643D01*
X13893214Y-16780929D01*
X13950357Y-16780929D01*
X13978928Y-16766643D01*
X13993214Y-16752357D01*
X14007500Y-16723786D01*
X14121786Y-16595214D02*
X14121786Y-16652357D01*
X14236071Y-16595214D02*
X14236071Y-16652357D01*
X14678928Y-17009500D02*
X14664643Y-16995214D01*
X14636071Y-16952357D01*
X14621786Y-16923786D01*
X14607500Y-16880929D01*
X14593214Y-16809500D01*
X14593214Y-16752357D01*
X14607500Y-16680929D01*
X14621786Y-16638071D01*
X14636071Y-16609500D01*
X14664643Y-16566643D01*
X14678928Y-16552357D01*
X14921786Y-16595214D02*
X14864643Y-16595214D01*
X14836071Y-16609500D01*
X14821786Y-16623786D01*
X14793214Y-16666643D01*
X14778928Y-16723786D01*
X14778928Y-16838072D01*
X14793214Y-16866643D01*
X14807500Y-16880929D01*
X14836071Y-16895214D01*
X14893214Y-16895214D01*
X14921786Y-16880929D01*
X14936071Y-16866643D01*
X14950357Y-16838072D01*
X14950357Y-16766643D01*
X14936071Y-16738071D01*
X14921786Y-16723786D01*
X14893214Y-16709500D01*
X14836071Y-16709500D01*
X14807500Y-16723786D01*
X14793214Y-16738071D01*
X14778928Y-16766643D01*
X15207500Y-16595214D02*
X15150357Y-16595214D01*
X15121786Y-16609500D01*
X15107500Y-16623786D01*
X15078928Y-16666643D01*
X15064643Y-16723786D01*
X15064643Y-16838072D01*
X15078928Y-16866643D01*
X15093214Y-16880929D01*
X15121786Y-16895214D01*
X15178928Y-16895214D01*
X15207500Y-16880929D01*
X15221786Y-16866643D01*
X15236071Y-16838072D01*
X15236071Y-16766643D01*
X15221786Y-16738071D01*
X15207500Y-16723786D01*
X15178928Y-16709500D01*
X15121786Y-16709500D01*
X15093214Y-16723786D01*
X15078928Y-16738071D01*
X15064643Y-16766643D01*
X15593214Y-16895214D02*
X15593214Y-16595214D01*
X15721786Y-16895214D02*
X15721786Y-16738071D01*
X15707500Y-16709500D01*
X15678928Y-16695214D01*
X15636071Y-16695214D01*
X15607500Y-16709500D01*
X15593214Y-16723786D01*
X15907500Y-16895214D02*
X15878928Y-16880929D01*
X15864643Y-16866643D01*
X15850357Y-16838072D01*
X15850357Y-16752357D01*
X15864643Y-16723786D01*
X15878928Y-16709500D01*
X15907500Y-16695214D01*
X15950357Y-16695214D01*
X15978928Y-16709500D01*
X15993214Y-16723786D01*
X16007500Y-16752357D01*
X16007500Y-16838072D01*
X15993214Y-16866643D01*
X15978928Y-16880929D01*
X15950357Y-16895214D01*
X15907500Y-16895214D01*
X16178928Y-16895214D02*
X16150357Y-16880929D01*
X16136071Y-16852357D01*
X16136071Y-16595214D01*
X16407500Y-16880929D02*
X16378928Y-16895214D01*
X16321786Y-16895214D01*
X16293214Y-16880929D01*
X16278928Y-16852357D01*
X16278928Y-16738071D01*
X16293214Y-16709500D01*
X16321786Y-16695214D01*
X16378928Y-16695214D01*
X16407500Y-16709500D01*
X16421786Y-16738071D01*
X16421786Y-16766643D01*
X16278928Y-16795214D01*
X16536071Y-16880929D02*
X16564643Y-16895214D01*
X16621786Y-16895214D01*
X16650357Y-16880929D01*
X16664643Y-16852357D01*
X16664643Y-16838072D01*
X16650357Y-16809500D01*
X16621786Y-16795214D01*
X16578928Y-16795214D01*
X16550357Y-16780929D01*
X16536071Y-16752357D01*
X16536071Y-16738071D01*
X16550357Y-16709500D01*
X16578928Y-16695214D01*
X16621786Y-16695214D01*
X16650357Y-16709500D01*
X16764643Y-17009500D02*
X16778928Y-16995214D01*
X16807500Y-16952357D01*
X16821786Y-16923786D01*
X16836071Y-16880929D01*
X16850357Y-16809500D01*
X16850357Y-16752357D01*
X16836071Y-16680929D01*
X16821786Y-16638071D01*
X16807500Y-16609500D01*
X16778928Y-16566643D01*
X16764643Y-16552357D01*
X9977621Y-17191422D02*
X9977621Y-17119579D01*
X9905779Y-17119579D01*
X9905779Y-17191422D01*
X9977621Y-17191422D01*
X10436071Y-17291214D02*
X10264643Y-17291214D01*
X10350357Y-17291214D02*
X10350357Y-16991214D01*
X10321786Y-17034072D01*
X10293214Y-17062643D01*
X10264643Y-17076929D01*
X10564643Y-17262643D02*
X10578928Y-17276929D01*
X10564643Y-17291214D01*
X10550357Y-17276929D01*
X10564643Y-17262643D01*
X10564643Y-17291214D01*
X10764643Y-16991214D02*
X10793214Y-16991214D01*
X10821786Y-17005500D01*
X10836071Y-17019786D01*
X10850357Y-17048357D01*
X10864643Y-17105500D01*
X10864643Y-17176929D01*
X10850357Y-17234072D01*
X10836071Y-17262643D01*
X10821786Y-17276929D01*
X10793214Y-17291214D01*
X10764643Y-17291214D01*
X10736071Y-17276929D01*
X10721786Y-17262643D01*
X10707500Y-17234072D01*
X10693214Y-17176929D01*
X10693214Y-17105500D01*
X10707500Y-17048357D01*
X10721786Y-17019786D01*
X10736071Y-17005500D01*
X10764643Y-16991214D01*
X10978928Y-17019786D02*
X10993214Y-17005500D01*
X11021786Y-16991214D01*
X11093214Y-16991214D01*
X11121786Y-17005500D01*
X11136071Y-17019786D01*
X11150357Y-17048357D01*
X11150357Y-17076929D01*
X11136071Y-17119786D01*
X10964643Y-17291214D01*
X11150357Y-17291214D01*
X11278928Y-17291214D02*
X11278928Y-17091214D01*
X11278928Y-17119786D02*
X11293214Y-17105500D01*
X11321786Y-17091214D01*
X11364643Y-17091214D01*
X11393214Y-17105500D01*
X11407500Y-17134072D01*
X11407500Y-17291214D01*
X11407500Y-17134072D02*
X11421786Y-17105500D01*
X11450357Y-17091214D01*
X11493214Y-17091214D01*
X11521786Y-17105500D01*
X11536071Y-17134072D01*
X11536071Y-17291214D01*
X11678928Y-17291214D02*
X11678928Y-17091214D01*
X11678928Y-17119786D02*
X11693214Y-17105500D01*
X11721786Y-17091214D01*
X11764643Y-17091214D01*
X11793214Y-17105500D01*
X11807500Y-17134072D01*
X11807500Y-17291214D01*
X11807500Y-17134072D02*
X11821786Y-17105500D01*
X11850357Y-17091214D01*
X11893214Y-17091214D01*
X11921786Y-17105500D01*
X11936071Y-17134072D01*
X11936071Y-17291214D01*
X12521786Y-16976929D02*
X12264643Y-17362643D01*
X12907500Y-16991214D02*
X12936071Y-16991214D01*
X12964643Y-17005500D01*
X12978928Y-17019786D01*
X12993214Y-17048357D01*
X13007500Y-17105500D01*
X13007500Y-17176929D01*
X12993214Y-17234072D01*
X12978928Y-17262643D01*
X12964643Y-17276929D01*
X12936071Y-17291214D01*
X12907500Y-17291214D01*
X12878928Y-17276929D01*
X12864643Y-17262643D01*
X12850357Y-17234072D01*
X12836071Y-17176929D01*
X12836071Y-17105500D01*
X12850357Y-17048357D01*
X12864643Y-17019786D01*
X12878928Y-17005500D01*
X12907500Y-16991214D01*
X13136071Y-17262643D02*
X13150357Y-17276929D01*
X13136071Y-17291214D01*
X13121786Y-17276929D01*
X13136071Y-17262643D01*
X13136071Y-17291214D01*
X13336071Y-16991214D02*
X13364643Y-16991214D01*
X13393214Y-17005500D01*
X13407500Y-17019786D01*
X13421786Y-17048357D01*
X13436071Y-17105500D01*
X13436071Y-17176929D01*
X13421786Y-17234072D01*
X13407500Y-17262643D01*
X13393214Y-17276929D01*
X13364643Y-17291214D01*
X13336071Y-17291214D01*
X13307500Y-17276929D01*
X13293214Y-17262643D01*
X13278928Y-17234072D01*
X13264643Y-17176929D01*
X13264643Y-17105500D01*
X13278928Y-17048357D01*
X13293214Y-17019786D01*
X13307500Y-17005500D01*
X13336071Y-16991214D01*
X13693214Y-17091214D02*
X13693214Y-17291214D01*
X13621786Y-16976929D02*
X13550357Y-17191214D01*
X13736071Y-17191214D01*
X13907500Y-16991214D02*
X13936071Y-16991214D01*
X13964643Y-17005500D01*
X13978928Y-17019786D01*
X13993214Y-17048357D01*
X14007500Y-17105500D01*
X14007500Y-17176929D01*
X13993214Y-17234072D01*
X13978928Y-17262643D01*
X13964643Y-17276929D01*
X13936071Y-17291214D01*
X13907500Y-17291214D01*
X13878928Y-17276929D01*
X13864643Y-17262643D01*
X13850357Y-17234072D01*
X13836071Y-17176929D01*
X13836071Y-17105500D01*
X13850357Y-17048357D01*
X13864643Y-17019786D01*
X13878928Y-17005500D01*
X13907500Y-16991214D01*
X14121786Y-16991214D02*
X14121786Y-17048357D01*
X14236071Y-16991214D02*
X14236071Y-17048357D01*
X14678928Y-17405500D02*
X14664643Y-17391214D01*
X14636071Y-17348357D01*
X14621786Y-17319786D01*
X14607500Y-17276929D01*
X14593214Y-17205500D01*
X14593214Y-17148357D01*
X14607500Y-17076929D01*
X14621786Y-17034072D01*
X14636071Y-17005500D01*
X14664643Y-16962643D01*
X14678928Y-16948357D01*
X14950357Y-17291214D02*
X14778928Y-17291214D01*
X14864643Y-17291214D02*
X14864643Y-16991214D01*
X14836071Y-17034072D01*
X14807500Y-17062643D01*
X14778928Y-17076929D01*
X15207500Y-17091214D02*
X15207500Y-17291214D01*
X15136071Y-16976929D02*
X15064643Y-17191214D01*
X15250357Y-17191214D01*
X15493214Y-17091214D02*
X15493214Y-17291214D01*
X15421786Y-16976929D02*
X15350357Y-17191214D01*
X15536071Y-17191214D01*
X15878928Y-17291214D02*
X15878928Y-16991214D01*
X16007500Y-17291214D02*
X16007500Y-17134072D01*
X15993214Y-17105500D01*
X15964643Y-17091214D01*
X15921786Y-17091214D01*
X15893214Y-17105500D01*
X15878928Y-17119786D01*
X16193214Y-17291214D02*
X16164643Y-17276929D01*
X16150357Y-17262643D01*
X16136071Y-17234072D01*
X16136071Y-17148357D01*
X16150357Y-17119786D01*
X16164643Y-17105500D01*
X16193214Y-17091214D01*
X16236071Y-17091214D01*
X16264643Y-17105500D01*
X16278928Y-17119786D01*
X16293214Y-17148357D01*
X16293214Y-17234072D01*
X16278928Y-17262643D01*
X16264643Y-17276929D01*
X16236071Y-17291214D01*
X16193214Y-17291214D01*
X16464643Y-17291214D02*
X16436071Y-17276929D01*
X16421786Y-17248357D01*
X16421786Y-16991214D01*
X16693214Y-17276929D02*
X16664643Y-17291214D01*
X16607500Y-17291214D01*
X16578928Y-17276929D01*
X16564643Y-17248357D01*
X16564643Y-17134072D01*
X16578928Y-17105500D01*
X16607500Y-17091214D01*
X16664643Y-17091214D01*
X16693214Y-17105500D01*
X16707500Y-17134072D01*
X16707500Y-17162643D01*
X16564643Y-17191214D01*
X16821786Y-17276929D02*
X16850357Y-17291214D01*
X16907500Y-17291214D01*
X16936071Y-17276929D01*
X16950357Y-17248357D01*
X16950357Y-17234072D01*
X16936071Y-17205500D01*
X16907500Y-17191214D01*
X16864643Y-17191214D01*
X16836071Y-17176929D01*
X16821786Y-17148357D01*
X16821786Y-17134072D01*
X16836071Y-17105500D01*
X16864643Y-17091214D01*
X16907500Y-17091214D01*
X16936071Y-17105500D01*
X17050357Y-17405500D02*
X17064643Y-17391214D01*
X17093214Y-17348357D01*
X17107500Y-17319786D01*
X17121786Y-17276929D01*
X17136071Y-17205500D01*
X17136071Y-17148357D01*
X17121786Y-17076929D01*
X17107500Y-17034072D01*
X17093214Y-17005500D01*
X17064643Y-16962643D01*
X17050357Y-16948357D01*
X9930016Y-17613984D02*
X9992500Y-17551500D01*
X9930016Y-17489016D01*
X9867532Y-17551500D01*
X9930016Y-17613984D01*
X10436071Y-17687214D02*
X10264643Y-17687214D01*
X10350357Y-17687214D02*
X10350357Y-17387214D01*
X10321786Y-17430072D01*
X10293214Y-17458643D01*
X10264643Y-17472929D01*
X10564643Y-17658643D02*
X10578928Y-17672929D01*
X10564643Y-17687214D01*
X10550357Y-17672929D01*
X10564643Y-17658643D01*
X10564643Y-17687214D01*
X10693214Y-17415786D02*
X10707500Y-17401500D01*
X10736071Y-17387214D01*
X10807500Y-17387214D01*
X10836071Y-17401500D01*
X10850357Y-17415786D01*
X10864643Y-17444357D01*
X10864643Y-17472929D01*
X10850357Y-17515786D01*
X10678928Y-17687214D01*
X10864643Y-17687214D01*
X11136071Y-17387214D02*
X10993214Y-17387214D01*
X10978928Y-17530072D01*
X10993214Y-17515786D01*
X11021786Y-17501500D01*
X11093214Y-17501500D01*
X11121786Y-17515786D01*
X11136071Y-17530072D01*
X11150357Y-17558643D01*
X11150357Y-17630072D01*
X11136071Y-17658643D01*
X11121786Y-17672929D01*
X11093214Y-17687214D01*
X11021786Y-17687214D01*
X10993214Y-17672929D01*
X10978928Y-17658643D01*
X11278928Y-17687214D02*
X11278928Y-17487214D01*
X11278928Y-17515786D02*
X11293214Y-17501500D01*
X11321786Y-17487214D01*
X11364643Y-17487214D01*
X11393214Y-17501500D01*
X11407500Y-17530072D01*
X11407500Y-17687214D01*
X11407500Y-17530072D02*
X11421786Y-17501500D01*
X11450357Y-17487214D01*
X11493214Y-17487214D01*
X11521786Y-17501500D01*
X11536071Y-17530072D01*
X11536071Y-17687214D01*
X11678928Y-17687214D02*
X11678928Y-17487214D01*
X11678928Y-17515786D02*
X11693214Y-17501500D01*
X11721786Y-17487214D01*
X11764643Y-17487214D01*
X11793214Y-17501500D01*
X11807500Y-17530072D01*
X11807500Y-17687214D01*
X11807500Y-17530072D02*
X11821786Y-17501500D01*
X11850357Y-17487214D01*
X11893214Y-17487214D01*
X11921786Y-17501500D01*
X11936071Y-17530072D01*
X11936071Y-17687214D01*
X12521786Y-17372929D02*
X12264643Y-17758643D01*
X12907500Y-17387214D02*
X12936071Y-17387214D01*
X12964643Y-17401500D01*
X12978928Y-17415786D01*
X12993214Y-17444357D01*
X13007500Y-17501500D01*
X13007500Y-17572929D01*
X12993214Y-17630072D01*
X12978928Y-17658643D01*
X12964643Y-17672929D01*
X12936071Y-17687214D01*
X12907500Y-17687214D01*
X12878928Y-17672929D01*
X12864643Y-17658643D01*
X12850357Y-17630072D01*
X12836071Y-17572929D01*
X12836071Y-17501500D01*
X12850357Y-17444357D01*
X12864643Y-17415786D01*
X12878928Y-17401500D01*
X12907500Y-17387214D01*
X13136071Y-17658643D02*
X13150357Y-17672929D01*
X13136071Y-17687214D01*
X13121786Y-17672929D01*
X13136071Y-17658643D01*
X13136071Y-17687214D01*
X13336071Y-17387214D02*
X13364643Y-17387214D01*
X13393214Y-17401500D01*
X13407500Y-17415786D01*
X13421786Y-17444357D01*
X13436071Y-17501500D01*
X13436071Y-17572929D01*
X13421786Y-17630072D01*
X13407500Y-17658643D01*
X13393214Y-17672929D01*
X13364643Y-17687214D01*
X13336071Y-17687214D01*
X13307500Y-17672929D01*
X13293214Y-17658643D01*
X13278928Y-17630072D01*
X13264643Y-17572929D01*
X13264643Y-17501500D01*
X13278928Y-17444357D01*
X13293214Y-17415786D01*
X13307500Y-17401500D01*
X13336071Y-17387214D01*
X13693214Y-17487214D02*
X13693214Y-17687214D01*
X13621786Y-17372929D02*
X13550357Y-17587214D01*
X13736071Y-17587214D01*
X13864643Y-17687214D02*
X13921786Y-17687214D01*
X13950357Y-17672929D01*
X13964643Y-17658643D01*
X13993214Y-17615786D01*
X14007500Y-17558643D01*
X14007500Y-17444357D01*
X13993214Y-17415786D01*
X13978928Y-17401500D01*
X13950357Y-17387214D01*
X13893214Y-17387214D01*
X13864643Y-17401500D01*
X13850357Y-17415786D01*
X13836071Y-17444357D01*
X13836071Y-17515786D01*
X13850357Y-17544357D01*
X13864643Y-17558643D01*
X13893214Y-17572929D01*
X13950357Y-17572929D01*
X13978928Y-17558643D01*
X13993214Y-17544357D01*
X14007500Y-17515786D01*
X14121786Y-17387214D02*
X14121786Y-17444357D01*
X14236071Y-17387214D02*
X14236071Y-17444357D01*
X14678928Y-17801500D02*
X14664643Y-17787214D01*
X14636071Y-17744357D01*
X14621786Y-17715786D01*
X14607500Y-17672929D01*
X14593214Y-17601500D01*
X14593214Y-17544357D01*
X14607500Y-17472929D01*
X14621786Y-17430072D01*
X14636071Y-17401500D01*
X14664643Y-17358643D01*
X14678928Y-17344357D01*
X14950357Y-17687214D02*
X14778928Y-17687214D01*
X14864643Y-17687214D02*
X14864643Y-17387214D01*
X14836071Y-17430072D01*
X14807500Y-17458643D01*
X14778928Y-17472929D01*
X15064643Y-17415786D02*
X15078928Y-17401500D01*
X15107500Y-17387214D01*
X15178928Y-17387214D01*
X15207500Y-17401500D01*
X15221786Y-17415786D01*
X15236071Y-17444357D01*
X15236071Y-17472929D01*
X15221786Y-17515786D01*
X15050357Y-17687214D01*
X15236071Y-17687214D01*
X15593214Y-17687214D02*
X15593214Y-17387214D01*
X15721786Y-17687214D02*
X15721786Y-17530072D01*
X15707500Y-17501500D01*
X15678928Y-17487214D01*
X15636071Y-17487214D01*
X15607500Y-17501500D01*
X15593214Y-17515786D01*
X15907500Y-17687214D02*
X15878928Y-17672929D01*
X15864643Y-17658643D01*
X15850357Y-17630072D01*
X15850357Y-17544357D01*
X15864643Y-17515786D01*
X15878928Y-17501500D01*
X15907500Y-17487214D01*
X15950357Y-17487214D01*
X15978928Y-17501500D01*
X15993214Y-17515786D01*
X16007500Y-17544357D01*
X16007500Y-17630072D01*
X15993214Y-17658643D01*
X15978928Y-17672929D01*
X15950357Y-17687214D01*
X15907500Y-17687214D01*
X16178928Y-17687214D02*
X16150357Y-17672929D01*
X16136071Y-17644357D01*
X16136071Y-17387214D01*
X16407500Y-17672929D02*
X16378928Y-17687214D01*
X16321786Y-17687214D01*
X16293214Y-17672929D01*
X16278928Y-17644357D01*
X16278928Y-17530072D01*
X16293214Y-17501500D01*
X16321786Y-17487214D01*
X16378928Y-17487214D01*
X16407500Y-17501500D01*
X16421786Y-17530072D01*
X16421786Y-17558643D01*
X16278928Y-17587214D01*
X16536071Y-17672929D02*
X16564643Y-17687214D01*
X16621786Y-17687214D01*
X16650357Y-17672929D01*
X16664643Y-17644357D01*
X16664643Y-17630072D01*
X16650357Y-17601500D01*
X16621786Y-17587214D01*
X16578928Y-17587214D01*
X16550357Y-17572929D01*
X16536071Y-17544357D01*
X16536071Y-17530072D01*
X16550357Y-17501500D01*
X16578928Y-17487214D01*
X16621786Y-17487214D01*
X16650357Y-17501500D01*
X16764643Y-17801500D02*
X16778928Y-17787214D01*
X16807500Y-17744357D01*
X16821786Y-17715786D01*
X16836071Y-17672929D01*
X16850357Y-17601500D01*
X16850357Y-17544357D01*
X16836071Y-17472929D01*
X16821786Y-17430072D01*
X16807500Y-17401500D01*
X16778928Y-17358643D01*
X16764643Y-17344357D01*
M02*
