G04 #@! TF.GenerationSoftware,KiCad,Pcbnew,5.0.2-bee76a0~70~ubuntu16.04.1*
G04 #@! TF.CreationDate,2019-12-01T11:56:29+01:00*
G04 #@! TF.ProjectId,RF_24G_Gateway,52465f32-3447-45f4-9761-74657761792e,rev?*
G04 #@! TF.SameCoordinates,Original*
G04 #@! TF.FileFunction,Legend,Top*
G04 #@! TF.FilePolarity,Positive*
%FSLAX46Y46*%
G04 Gerber Fmt 4.6, Leading zero omitted, Abs format (unit mm)*
G04 Created by KiCad (PCBNEW 5.0.2-bee76a0~70~ubuntu16.04.1) date Sun 01 Dec 2019 11:56:29 AM CET*
%MOMM*%
%LPD*%
G01*
G04 APERTURE LIST*
%ADD10C,0.120000*%
%ADD11C,0.150000*%
%ADD12C,0.254000*%
%ADD13C,0.304800*%
%ADD14C,2.002000*%
%ADD15R,1.102000X1.352000*%
%ADD16C,1.902000*%
%ADD17R,0.802000X1.402000*%
%ADD18C,1.602000*%
%ADD19R,1.602000X1.602000*%
%ADD20O,1.802000X1.802000*%
%ADD21R,1.802000X1.802000*%
%ADD22O,1.829200X1.829200*%
%ADD23R,1.829200X1.829200*%
%ADD24R,3.101740X3.101740*%
%ADD25C,3.101740*%
%ADD26R,1.652000X0.702000*%
G04 APERTURE END LIST*
D10*
G04 #@! TO.C,C2*
X145657000Y-77558000D02*
X146657000Y-77558000D01*
X146657000Y-75858000D02*
X145657000Y-75858000D01*
D11*
G04 #@! TO.C,U2*
X133462000Y-89024000D02*
X133462000Y-89024000D01*
X134622000Y-89024000D02*
X133462000Y-89024000D01*
X135612000Y-90024000D02*
G75*
G03X134612000Y-89024000I-1000000J0D01*
G01*
X135612000Y-96024000D02*
X135612000Y-90024000D01*
X160122000Y-62944000D02*
G75*
G03X158122000Y-60944000I-2000000J0D01*
G01*
X135462000Y-60944000D02*
G75*
G03X133462000Y-62944000I0J-2000000D01*
G01*
X151692000Y-96024000D02*
X160121999Y-96024000D01*
X151692000Y-95024000D02*
X151692000Y-96024000D01*
X143472000Y-95024000D02*
X151692000Y-95024000D01*
X143472000Y-96024000D02*
X143472000Y-95024000D01*
X135612000Y-96024000D02*
X143472000Y-96024000D01*
X133462000Y-62944000D02*
X133462000Y-89024000D01*
X158122000Y-60944000D02*
X135462000Y-60944000D01*
X160122000Y-96024000D02*
X160122000Y-62944000D01*
D10*
G04 #@! TO.C,R3*
X173153000Y-72254000D02*
X171953000Y-72254000D01*
X171953000Y-70494000D02*
X173153000Y-70494000D01*
G04 #@! TO.C,R1*
X162321000Y-89290000D02*
X163521000Y-89290000D01*
X163521000Y-91050000D02*
X162321000Y-91050000D01*
G04 #@! TO.C,R4*
X149500000Y-95880000D02*
X148300000Y-95880000D01*
X148300000Y-94120000D02*
X149500000Y-94120000D01*
G04 #@! TO.C,R3*
X138953000Y-70494000D02*
X140153000Y-70494000D01*
X140153000Y-72254000D02*
X138953000Y-72254000D01*
G04 #@! TO.C,J1*
X133651000Y-99247000D02*
X133651000Y-97917000D01*
X134981000Y-99247000D02*
X133651000Y-99247000D01*
X136251000Y-99247000D02*
X136251000Y-96587000D01*
X136251000Y-96587000D02*
X143931000Y-96587000D01*
X136251000Y-99247000D02*
X143931000Y-99247000D01*
X143931000Y-99247000D02*
X143931000Y-96587000D01*
G04 #@! TO.C,C1*
X195421000Y-93052000D02*
X196421000Y-93052000D01*
X196421000Y-91352000D02*
X195421000Y-91352000D01*
D11*
G04 #@! TO.C,U1*
X131756000Y-93886000D02*
X130206000Y-93886000D01*
X128936000Y-96706000D02*
X128936000Y-94166000D01*
X131476000Y-96706000D02*
X128936000Y-96706000D01*
X131756000Y-95436000D02*
X131756000Y-93886000D01*
X131476000Y-99246000D02*
X131476000Y-96706000D01*
X121316000Y-99246000D02*
X131476000Y-99246000D01*
X121316000Y-94166000D02*
X121316000Y-99246000D01*
X128936000Y-94166000D02*
X121316000Y-94166000D01*
D10*
G04 #@! TO.C,R4*
X181300000Y-94120000D02*
X182500000Y-94120000D01*
X182500000Y-95880000D02*
X181300000Y-95880000D01*
G04 #@! TO.C,R3*
X107153000Y-72254000D02*
X105953000Y-72254000D01*
X105953000Y-70494000D02*
X107153000Y-70494000D01*
D12*
G04 #@! TO.C,J4*
X124460000Y-50038000D02*
X123698000Y-50038000D01*
X123698000Y-50038000D02*
X123698000Y-60198000D01*
X123698000Y-60198000D02*
X124460000Y-60198000D01*
X132842000Y-50038000D02*
X132842000Y-60198000D01*
X132842000Y-60198000D02*
X131826000Y-60198000D01*
X131826000Y-60198000D02*
X131826000Y-50038000D01*
X131826000Y-50038000D02*
X132842000Y-50038000D01*
X132080000Y-50038000D02*
X124460000Y-50038000D01*
X124460000Y-60198000D02*
X132080000Y-60198000D01*
D10*
G04 #@! TO.C,C1*
X129421000Y-93052000D02*
X130421000Y-93052000D01*
X130421000Y-91352000D02*
X129421000Y-91352000D01*
G04 #@! TO.C,R4*
X115300000Y-94120000D02*
X116500000Y-94120000D01*
X116500000Y-95880000D02*
X115300000Y-95880000D01*
D11*
G04 #@! TO.C,U2*
X193122000Y-96024000D02*
X193122000Y-62944000D01*
X191122000Y-60944000D02*
X168462000Y-60944000D01*
X166462000Y-62944000D02*
X166462000Y-89024000D01*
X168612000Y-96024000D02*
X176472000Y-96024000D01*
X176472000Y-96024000D02*
X176472000Y-95024000D01*
X176472000Y-95024000D02*
X184692000Y-95024000D01*
X184692000Y-95024000D02*
X184692000Y-96024000D01*
X184692000Y-96024000D02*
X193121999Y-96024000D01*
X168462000Y-60944000D02*
G75*
G03X166462000Y-62944000I0J-2000000D01*
G01*
X193122000Y-62944000D02*
G75*
G03X191122000Y-60944000I-2000000J0D01*
G01*
X168612000Y-96024000D02*
X168612000Y-90024000D01*
X168612000Y-90024000D02*
G75*
G03X167612000Y-89024000I-1000000J0D01*
G01*
X167622000Y-89024000D02*
X166462000Y-89024000D01*
X166462000Y-89024000D02*
X166462000Y-89024000D01*
D10*
G04 #@! TO.C,J5*
X111830000Y-99230000D02*
X111830000Y-97900000D01*
X113160000Y-99230000D02*
X111830000Y-99230000D01*
X114430000Y-99230000D02*
X114430000Y-96570000D01*
X114430000Y-96570000D02*
X119570000Y-96570000D01*
X114430000Y-99230000D02*
X119570000Y-99230000D01*
X119570000Y-99230000D02*
X119570000Y-96570000D01*
D11*
G04 #@! TO.C,U2*
X127122000Y-96024000D02*
X127122000Y-62944000D01*
X125122000Y-60944000D02*
X102462000Y-60944000D01*
X100462000Y-62944000D02*
X100462000Y-89024000D01*
X102612000Y-96024000D02*
X110472000Y-96024000D01*
X110472000Y-96024000D02*
X110472000Y-95024000D01*
X110472000Y-95024000D02*
X118692000Y-95024000D01*
X118692000Y-95024000D02*
X118692000Y-96024000D01*
X118692000Y-96024000D02*
X127121999Y-96024000D01*
X102462000Y-60944000D02*
G75*
G03X100462000Y-62944000I0J-2000000D01*
G01*
X127122000Y-62944000D02*
G75*
G03X125122000Y-60944000I-2000000J0D01*
G01*
X102612000Y-96024000D02*
X102612000Y-90024000D01*
X102612000Y-90024000D02*
G75*
G03X101612000Y-89024000I-1000000J0D01*
G01*
X101622000Y-89024000D02*
X100462000Y-89024000D01*
X100462000Y-89024000D02*
X100462000Y-89024000D01*
D12*
G04 #@! TO.C,J4*
X157460000Y-60198000D02*
X165080000Y-60198000D01*
X165080000Y-50038000D02*
X157460000Y-50038000D01*
X164826000Y-50038000D02*
X165842000Y-50038000D01*
X164826000Y-60198000D02*
X164826000Y-50038000D01*
X165842000Y-60198000D02*
X164826000Y-60198000D01*
X165842000Y-50038000D02*
X165842000Y-60198000D01*
X156698000Y-60198000D02*
X157460000Y-60198000D01*
X156698000Y-50038000D02*
X156698000Y-60198000D01*
X157460000Y-50038000D02*
X156698000Y-50038000D01*
D10*
G04 #@! TO.C,R1*
X130521000Y-91050000D02*
X129321000Y-91050000D01*
X129321000Y-89290000D02*
X130521000Y-89290000D01*
G04 #@! TO.C,C2*
X113657000Y-75858000D02*
X112657000Y-75858000D01*
X112657000Y-77558000D02*
X113657000Y-77558000D01*
G04 #@! TO.C,C1*
X163421000Y-91352000D02*
X162421000Y-91352000D01*
X162421000Y-93052000D02*
X163421000Y-93052000D01*
D12*
G04 #@! TO.C,J4*
X190460000Y-50038000D02*
X189698000Y-50038000D01*
X189698000Y-50038000D02*
X189698000Y-60198000D01*
X189698000Y-60198000D02*
X190460000Y-60198000D01*
X198842000Y-50038000D02*
X198842000Y-60198000D01*
X198842000Y-60198000D02*
X197826000Y-60198000D01*
X197826000Y-60198000D02*
X197826000Y-50038000D01*
X197826000Y-50038000D02*
X198842000Y-50038000D01*
X198080000Y-50038000D02*
X190460000Y-50038000D01*
X190460000Y-60198000D02*
X198080000Y-60198000D01*
D10*
G04 #@! TO.C,J1*
X110931000Y-99247000D02*
X110931000Y-96587000D01*
X103251000Y-99247000D02*
X110931000Y-99247000D01*
X103251000Y-96587000D02*
X110931000Y-96587000D01*
X103251000Y-99247000D02*
X103251000Y-96587000D01*
X101981000Y-99247000D02*
X100651000Y-99247000D01*
X100651000Y-99247000D02*
X100651000Y-97917000D01*
G04 #@! TO.C,R1*
X196521000Y-91050000D02*
X195321000Y-91050000D01*
X195321000Y-89290000D02*
X196521000Y-89290000D01*
G04 #@! TO.C,R2*
X107153000Y-70349000D02*
X105953000Y-70349000D01*
X105953000Y-68589000D02*
X107153000Y-68589000D01*
X173153000Y-70349000D02*
X171953000Y-70349000D01*
X171953000Y-68589000D02*
X173153000Y-68589000D01*
G04 #@! TO.C,C2*
X179657000Y-75858000D02*
X178657000Y-75858000D01*
X178657000Y-77558000D02*
X179657000Y-77558000D01*
D11*
G04 #@! TO.C,U3*
X144336000Y-69992000D02*
X142936000Y-69992000D01*
X144336000Y-75092000D02*
X148486000Y-75092000D01*
X144336000Y-69942000D02*
X148486000Y-69942000D01*
X144336000Y-75092000D02*
X144336000Y-74947000D01*
X148486000Y-75092000D02*
X148486000Y-74947000D01*
X148486000Y-69942000D02*
X148486000Y-70087000D01*
X144336000Y-69942000D02*
X144336000Y-69992000D01*
X111336000Y-69942000D02*
X111336000Y-69992000D01*
X115486000Y-69942000D02*
X115486000Y-70087000D01*
X115486000Y-75092000D02*
X115486000Y-74947000D01*
X111336000Y-75092000D02*
X111336000Y-74947000D01*
X111336000Y-69942000D02*
X115486000Y-69942000D01*
X111336000Y-75092000D02*
X115486000Y-75092000D01*
X111336000Y-69992000D02*
X109936000Y-69992000D01*
G04 #@! TO.C,U1*
X161936000Y-94166000D02*
X154316000Y-94166000D01*
X154316000Y-94166000D02*
X154316000Y-99246000D01*
X154316000Y-99246000D02*
X164476000Y-99246000D01*
X164476000Y-99246000D02*
X164476000Y-96706000D01*
X164756000Y-95436000D02*
X164756000Y-93886000D01*
X164476000Y-96706000D02*
X161936000Y-96706000D01*
X161936000Y-96706000D02*
X161936000Y-94166000D01*
X164756000Y-93886000D02*
X163206000Y-93886000D01*
D10*
G04 #@! TO.C,J5*
X177830000Y-99230000D02*
X177830000Y-97900000D01*
X179160000Y-99230000D02*
X177830000Y-99230000D01*
X180430000Y-99230000D02*
X180430000Y-96570000D01*
X180430000Y-96570000D02*
X185570000Y-96570000D01*
X180430000Y-99230000D02*
X185570000Y-99230000D01*
X185570000Y-99230000D02*
X185570000Y-96570000D01*
G04 #@! TO.C,R2*
X138953000Y-68589000D02*
X140153000Y-68589000D01*
X140153000Y-70349000D02*
X138953000Y-70349000D01*
G04 #@! TO.C,J5*
X152570000Y-99230000D02*
X152570000Y-96570000D01*
X147430000Y-99230000D02*
X152570000Y-99230000D01*
X147430000Y-96570000D02*
X152570000Y-96570000D01*
X147430000Y-99230000D02*
X147430000Y-96570000D01*
X146160000Y-99230000D02*
X144830000Y-99230000D01*
X144830000Y-99230000D02*
X144830000Y-97900000D01*
D11*
G04 #@! TO.C,U1*
X197756000Y-93886000D02*
X196206000Y-93886000D01*
X194936000Y-96706000D02*
X194936000Y-94166000D01*
X197476000Y-96706000D02*
X194936000Y-96706000D01*
X197756000Y-95436000D02*
X197756000Y-93886000D01*
X197476000Y-99246000D02*
X197476000Y-96706000D01*
X187316000Y-99246000D02*
X197476000Y-99246000D01*
X187316000Y-94166000D02*
X187316000Y-99246000D01*
X194936000Y-94166000D02*
X187316000Y-94166000D01*
D10*
G04 #@! TO.C,J1*
X176931000Y-99247000D02*
X176931000Y-96587000D01*
X169251000Y-99247000D02*
X176931000Y-99247000D01*
X169251000Y-96587000D02*
X176931000Y-96587000D01*
X169251000Y-99247000D02*
X169251000Y-96587000D01*
X167981000Y-99247000D02*
X166651000Y-99247000D01*
X166651000Y-99247000D02*
X166651000Y-97917000D01*
D11*
G04 #@! TO.C,U3*
X177336000Y-69942000D02*
X177336000Y-69992000D01*
X181486000Y-69942000D02*
X181486000Y-70087000D01*
X181486000Y-75092000D02*
X181486000Y-74947000D01*
X177336000Y-75092000D02*
X177336000Y-74947000D01*
X177336000Y-69942000D02*
X181486000Y-69942000D01*
X177336000Y-75092000D02*
X181486000Y-75092000D01*
X177336000Y-69992000D02*
X175936000Y-69992000D01*
D10*
G04 #@! TO.C,C2*
X178657000Y-127558000D02*
X179657000Y-127558000D01*
X179657000Y-125858000D02*
X178657000Y-125858000D01*
D11*
G04 #@! TO.C,U2*
X166462000Y-139024000D02*
X166462000Y-139024000D01*
X167622000Y-139024000D02*
X166462000Y-139024000D01*
X168612000Y-140024000D02*
G75*
G03X167612000Y-139024000I-1000000J0D01*
G01*
X168612000Y-146024000D02*
X168612000Y-140024000D01*
X193122000Y-112944000D02*
G75*
G03X191122000Y-110944000I-2000000J0D01*
G01*
X168462000Y-110944000D02*
G75*
G03X166462000Y-112944000I0J-2000000D01*
G01*
X184692000Y-146024000D02*
X193121999Y-146024000D01*
X184692000Y-145024000D02*
X184692000Y-146024000D01*
X176472000Y-145024000D02*
X184692000Y-145024000D01*
X176472000Y-146024000D02*
X176472000Y-145024000D01*
X168612000Y-146024000D02*
X176472000Y-146024000D01*
X166462000Y-112944000D02*
X166462000Y-139024000D01*
X191122000Y-110944000D02*
X168462000Y-110944000D01*
X193122000Y-146024000D02*
X193122000Y-112944000D01*
D10*
G04 #@! TO.C,R1*
X195321000Y-139290000D02*
X196521000Y-139290000D01*
X196521000Y-141050000D02*
X195321000Y-141050000D01*
G04 #@! TO.C,R4*
X182500000Y-145880000D02*
X181300000Y-145880000D01*
X181300000Y-144120000D02*
X182500000Y-144120000D01*
G04 #@! TO.C,R3*
X171953000Y-120494000D02*
X173153000Y-120494000D01*
X173153000Y-122254000D02*
X171953000Y-122254000D01*
G04 #@! TO.C,J1*
X166651000Y-149247000D02*
X166651000Y-147917000D01*
X167981000Y-149247000D02*
X166651000Y-149247000D01*
X169251000Y-149247000D02*
X169251000Y-146587000D01*
X169251000Y-146587000D02*
X176931000Y-146587000D01*
X169251000Y-149247000D02*
X176931000Y-149247000D01*
X176931000Y-149247000D02*
X176931000Y-146587000D01*
D12*
G04 #@! TO.C,J4*
X190460000Y-110198000D02*
X198080000Y-110198000D01*
X198080000Y-100038000D02*
X190460000Y-100038000D01*
X197826000Y-100038000D02*
X198842000Y-100038000D01*
X197826000Y-110198000D02*
X197826000Y-100038000D01*
X198842000Y-110198000D02*
X197826000Y-110198000D01*
X198842000Y-100038000D02*
X198842000Y-110198000D01*
X189698000Y-110198000D02*
X190460000Y-110198000D01*
X189698000Y-100038000D02*
X189698000Y-110198000D01*
X190460000Y-100038000D02*
X189698000Y-100038000D01*
D10*
G04 #@! TO.C,C1*
X196421000Y-141352000D02*
X195421000Y-141352000D01*
X195421000Y-143052000D02*
X196421000Y-143052000D01*
D11*
G04 #@! TO.C,U3*
X177336000Y-119992000D02*
X175936000Y-119992000D01*
X177336000Y-125092000D02*
X181486000Y-125092000D01*
X177336000Y-119942000D02*
X181486000Y-119942000D01*
X177336000Y-125092000D02*
X177336000Y-124947000D01*
X181486000Y-125092000D02*
X181486000Y-124947000D01*
X181486000Y-119942000D02*
X181486000Y-120087000D01*
X177336000Y-119942000D02*
X177336000Y-119992000D01*
G04 #@! TO.C,U1*
X194936000Y-144166000D02*
X187316000Y-144166000D01*
X187316000Y-144166000D02*
X187316000Y-149246000D01*
X187316000Y-149246000D02*
X197476000Y-149246000D01*
X197476000Y-149246000D02*
X197476000Y-146706000D01*
X197756000Y-145436000D02*
X197756000Y-143886000D01*
X197476000Y-146706000D02*
X194936000Y-146706000D01*
X194936000Y-146706000D02*
X194936000Y-144166000D01*
X197756000Y-143886000D02*
X196206000Y-143886000D01*
D10*
G04 #@! TO.C,R2*
X171953000Y-118589000D02*
X173153000Y-118589000D01*
X173153000Y-120349000D02*
X171953000Y-120349000D01*
G04 #@! TO.C,J5*
X185570000Y-149230000D02*
X185570000Y-146570000D01*
X180430000Y-149230000D02*
X185570000Y-149230000D01*
X180430000Y-146570000D02*
X185570000Y-146570000D01*
X180430000Y-149230000D02*
X180430000Y-146570000D01*
X179160000Y-149230000D02*
X177830000Y-149230000D01*
X177830000Y-149230000D02*
X177830000Y-147900000D01*
D11*
G04 #@! TO.C,U1*
X164756000Y-143886000D02*
X163206000Y-143886000D01*
X161936000Y-146706000D02*
X161936000Y-144166000D01*
X164476000Y-146706000D02*
X161936000Y-146706000D01*
X164756000Y-145436000D02*
X164756000Y-143886000D01*
X164476000Y-149246000D02*
X164476000Y-146706000D01*
X154316000Y-149246000D02*
X164476000Y-149246000D01*
X154316000Y-144166000D02*
X154316000Y-149246000D01*
X161936000Y-144166000D02*
X154316000Y-144166000D01*
D10*
G04 #@! TO.C,R3*
X140153000Y-122254000D02*
X138953000Y-122254000D01*
X138953000Y-120494000D02*
X140153000Y-120494000D01*
D12*
G04 #@! TO.C,J4*
X157460000Y-100038000D02*
X156698000Y-100038000D01*
X156698000Y-100038000D02*
X156698000Y-110198000D01*
X156698000Y-110198000D02*
X157460000Y-110198000D01*
X165842000Y-100038000D02*
X165842000Y-110198000D01*
X165842000Y-110198000D02*
X164826000Y-110198000D01*
X164826000Y-110198000D02*
X164826000Y-100038000D01*
X164826000Y-100038000D02*
X165842000Y-100038000D01*
X165080000Y-100038000D02*
X157460000Y-100038000D01*
X157460000Y-110198000D02*
X165080000Y-110198000D01*
D10*
G04 #@! TO.C,C1*
X162421000Y-143052000D02*
X163421000Y-143052000D01*
X163421000Y-141352000D02*
X162421000Y-141352000D01*
G04 #@! TO.C,R4*
X148300000Y-144120000D02*
X149500000Y-144120000D01*
X149500000Y-145880000D02*
X148300000Y-145880000D01*
G04 #@! TO.C,J5*
X144830000Y-149230000D02*
X144830000Y-147900000D01*
X146160000Y-149230000D02*
X144830000Y-149230000D01*
X147430000Y-149230000D02*
X147430000Y-146570000D01*
X147430000Y-146570000D02*
X152570000Y-146570000D01*
X147430000Y-149230000D02*
X152570000Y-149230000D01*
X152570000Y-149230000D02*
X152570000Y-146570000D01*
D11*
G04 #@! TO.C,U2*
X160122000Y-146024000D02*
X160122000Y-112944000D01*
X158122000Y-110944000D02*
X135462000Y-110944000D01*
X133462000Y-112944000D02*
X133462000Y-139024000D01*
X135612000Y-146024000D02*
X143472000Y-146024000D01*
X143472000Y-146024000D02*
X143472000Y-145024000D01*
X143472000Y-145024000D02*
X151692000Y-145024000D01*
X151692000Y-145024000D02*
X151692000Y-146024000D01*
X151692000Y-146024000D02*
X160121999Y-146024000D01*
X135462000Y-110944000D02*
G75*
G03X133462000Y-112944000I0J-2000000D01*
G01*
X160122000Y-112944000D02*
G75*
G03X158122000Y-110944000I-2000000J0D01*
G01*
X135612000Y-146024000D02*
X135612000Y-140024000D01*
X135612000Y-140024000D02*
G75*
G03X134612000Y-139024000I-1000000J0D01*
G01*
X134622000Y-139024000D02*
X133462000Y-139024000D01*
X133462000Y-139024000D02*
X133462000Y-139024000D01*
D10*
G04 #@! TO.C,R1*
X163521000Y-141050000D02*
X162321000Y-141050000D01*
X162321000Y-139290000D02*
X163521000Y-139290000D01*
G04 #@! TO.C,C2*
X146657000Y-125858000D02*
X145657000Y-125858000D01*
X145657000Y-127558000D02*
X146657000Y-127558000D01*
G04 #@! TO.C,J1*
X143931000Y-149247000D02*
X143931000Y-146587000D01*
X136251000Y-149247000D02*
X143931000Y-149247000D01*
X136251000Y-146587000D02*
X143931000Y-146587000D01*
X136251000Y-149247000D02*
X136251000Y-146587000D01*
X134981000Y-149247000D02*
X133651000Y-149247000D01*
X133651000Y-149247000D02*
X133651000Y-147917000D01*
G04 #@! TO.C,R2*
X140153000Y-120349000D02*
X138953000Y-120349000D01*
X138953000Y-118589000D02*
X140153000Y-118589000D01*
D11*
G04 #@! TO.C,U3*
X144336000Y-119942000D02*
X144336000Y-119992000D01*
X148486000Y-119942000D02*
X148486000Y-120087000D01*
X148486000Y-125092000D02*
X148486000Y-124947000D01*
X144336000Y-125092000D02*
X144336000Y-124947000D01*
X144336000Y-119942000D02*
X148486000Y-119942000D01*
X144336000Y-125092000D02*
X148486000Y-125092000D01*
X144336000Y-119992000D02*
X142936000Y-119992000D01*
G04 #@! TO.C,U1*
X128936000Y-144166000D02*
X121316000Y-144166000D01*
X121316000Y-144166000D02*
X121316000Y-149246000D01*
X121316000Y-149246000D02*
X131476000Y-149246000D01*
X131476000Y-149246000D02*
X131476000Y-146706000D01*
X131756000Y-145436000D02*
X131756000Y-143886000D01*
X131476000Y-146706000D02*
X128936000Y-146706000D01*
X128936000Y-146706000D02*
X128936000Y-144166000D01*
X131756000Y-143886000D02*
X130206000Y-143886000D01*
G04 #@! TO.C,U3*
X111336000Y-119992000D02*
X109936000Y-119992000D01*
X111336000Y-125092000D02*
X115486000Y-125092000D01*
X111336000Y-119942000D02*
X115486000Y-119942000D01*
X111336000Y-125092000D02*
X111336000Y-124947000D01*
X115486000Y-125092000D02*
X115486000Y-124947000D01*
X115486000Y-119942000D02*
X115486000Y-120087000D01*
X111336000Y-119942000D02*
X111336000Y-119992000D01*
D12*
G04 #@! TO.C,J4*
X124460000Y-110198000D02*
X132080000Y-110198000D01*
X132080000Y-100038000D02*
X124460000Y-100038000D01*
X131826000Y-100038000D02*
X132842000Y-100038000D01*
X131826000Y-110198000D02*
X131826000Y-100038000D01*
X132842000Y-110198000D02*
X131826000Y-110198000D01*
X132842000Y-100038000D02*
X132842000Y-110198000D01*
X123698000Y-110198000D02*
X124460000Y-110198000D01*
X123698000Y-100038000D02*
X123698000Y-110198000D01*
X124460000Y-100038000D02*
X123698000Y-100038000D01*
D10*
G04 #@! TO.C,C1*
X130421000Y-141352000D02*
X129421000Y-141352000D01*
X129421000Y-143052000D02*
X130421000Y-143052000D01*
G04 #@! TO.C,R1*
X129321000Y-139290000D02*
X130521000Y-139290000D01*
X130521000Y-141050000D02*
X129321000Y-141050000D01*
D11*
G04 #@! TO.C,U2*
X100462000Y-139024000D02*
X100462000Y-139024000D01*
X101622000Y-139024000D02*
X100462000Y-139024000D01*
X102612000Y-140024000D02*
G75*
G03X101612000Y-139024000I-1000000J0D01*
G01*
X102612000Y-146024000D02*
X102612000Y-140024000D01*
X127122000Y-112944000D02*
G75*
G03X125122000Y-110944000I-2000000J0D01*
G01*
X102462000Y-110944000D02*
G75*
G03X100462000Y-112944000I0J-2000000D01*
G01*
X118692000Y-146024000D02*
X127121999Y-146024000D01*
X118692000Y-145024000D02*
X118692000Y-146024000D01*
X110472000Y-145024000D02*
X118692000Y-145024000D01*
X110472000Y-146024000D02*
X110472000Y-145024000D01*
X102612000Y-146024000D02*
X110472000Y-146024000D01*
X100462000Y-112944000D02*
X100462000Y-139024000D01*
X125122000Y-110944000D02*
X102462000Y-110944000D01*
X127122000Y-146024000D02*
X127122000Y-112944000D01*
D10*
G04 #@! TO.C,C2*
X112657000Y-127558000D02*
X113657000Y-127558000D01*
X113657000Y-125858000D02*
X112657000Y-125858000D01*
G04 #@! TO.C,J1*
X100651000Y-149247000D02*
X100651000Y-147917000D01*
X101981000Y-149247000D02*
X100651000Y-149247000D01*
X103251000Y-149247000D02*
X103251000Y-146587000D01*
X103251000Y-146587000D02*
X110931000Y-146587000D01*
X103251000Y-149247000D02*
X110931000Y-149247000D01*
X110931000Y-149247000D02*
X110931000Y-146587000D01*
G04 #@! TO.C,R3*
X105953000Y-120494000D02*
X107153000Y-120494000D01*
X107153000Y-122254000D02*
X105953000Y-122254000D01*
G04 #@! TO.C,R2*
X105953000Y-118589000D02*
X107153000Y-118589000D01*
X107153000Y-120349000D02*
X105953000Y-120349000D01*
G04 #@! TO.C,J5*
X119570000Y-149230000D02*
X119570000Y-146570000D01*
X114430000Y-149230000D02*
X119570000Y-149230000D01*
X114430000Y-146570000D02*
X119570000Y-146570000D01*
X114430000Y-149230000D02*
X114430000Y-146570000D01*
X113160000Y-149230000D02*
X111830000Y-149230000D01*
X111830000Y-149230000D02*
X111830000Y-147900000D01*
G04 #@! TO.C,R4*
X116500000Y-145880000D02*
X115300000Y-145880000D01*
X115300000Y-144120000D02*
X116500000Y-144120000D01*
G04 #@! TO.C,PS1*
D11*
X106888114Y-54757580D02*
X106888114Y-53757580D01*
X107269066Y-53757580D01*
X107364304Y-53805200D01*
X107411923Y-53852819D01*
X107459542Y-53948057D01*
X107459542Y-54090914D01*
X107411923Y-54186152D01*
X107364304Y-54233771D01*
X107269066Y-54281390D01*
X106888114Y-54281390D01*
X107840495Y-54709961D02*
X107983352Y-54757580D01*
X108221447Y-54757580D01*
X108316685Y-54709961D01*
X108364304Y-54662342D01*
X108411923Y-54567104D01*
X108411923Y-54471866D01*
X108364304Y-54376628D01*
X108316685Y-54329009D01*
X108221447Y-54281390D01*
X108030971Y-54233771D01*
X107935733Y-54186152D01*
X107888114Y-54138533D01*
X107840495Y-54043295D01*
X107840495Y-53948057D01*
X107888114Y-53852819D01*
X107935733Y-53805200D01*
X108030971Y-53757580D01*
X108269066Y-53757580D01*
X108411923Y-53805200D01*
X109364304Y-54757580D02*
X108792876Y-54757580D01*
X109078590Y-54757580D02*
X109078590Y-53757580D01*
X108983352Y-53900438D01*
X108888114Y-53995676D01*
X108792876Y-54043295D01*
G04 #@! TO.C,C2*
X149012933Y-77319142D02*
X148965314Y-77366761D01*
X148822457Y-77414380D01*
X148727219Y-77414380D01*
X148584361Y-77366761D01*
X148489123Y-77271523D01*
X148441504Y-77176285D01*
X148393885Y-76985809D01*
X148393885Y-76842952D01*
X148441504Y-76652476D01*
X148489123Y-76557238D01*
X148584361Y-76462000D01*
X148727219Y-76414380D01*
X148822457Y-76414380D01*
X148965314Y-76462000D01*
X149012933Y-76509619D01*
X149393885Y-76509619D02*
X149441504Y-76462000D01*
X149536742Y-76414380D01*
X149774838Y-76414380D01*
X149870076Y-76462000D01*
X149917695Y-76509619D01*
X149965314Y-76604857D01*
X149965314Y-76700095D01*
X149917695Y-76842952D01*
X149346266Y-77414380D01*
X149965314Y-77414380D01*
G04 #@! TO.C,U2*
X137343295Y-59142380D02*
X137343295Y-59951904D01*
X137390914Y-60047142D01*
X137438533Y-60094761D01*
X137533771Y-60142380D01*
X137724247Y-60142380D01*
X137819485Y-60094761D01*
X137867104Y-60047142D01*
X137914723Y-59951904D01*
X137914723Y-59142380D01*
X138343295Y-59237619D02*
X138390914Y-59190000D01*
X138486152Y-59142380D01*
X138724247Y-59142380D01*
X138819485Y-59190000D01*
X138867104Y-59237619D01*
X138914723Y-59332857D01*
X138914723Y-59428095D01*
X138867104Y-59570952D01*
X138295676Y-60142380D01*
X138914723Y-60142380D01*
G04 #@! TO.C,R3*
X172411733Y-68168780D02*
X172078400Y-67692590D01*
X171840304Y-68168780D02*
X171840304Y-67168780D01*
X172221257Y-67168780D01*
X172316495Y-67216400D01*
X172364114Y-67264019D01*
X172411733Y-67359257D01*
X172411733Y-67502114D01*
X172364114Y-67597352D01*
X172316495Y-67644971D01*
X172221257Y-67692590D01*
X171840304Y-67692590D01*
X172745066Y-67168780D02*
X173364114Y-67168780D01*
X173030780Y-67549733D01*
X173173638Y-67549733D01*
X173268876Y-67597352D01*
X173316495Y-67644971D01*
X173364114Y-67740209D01*
X173364114Y-67978304D01*
X173316495Y-68073542D01*
X173268876Y-68121161D01*
X173173638Y-68168780D01*
X172887923Y-68168780D01*
X172792685Y-68121161D01*
X172745066Y-68073542D01*
G04 #@! TO.C,R1*
X158833333Y-90622380D02*
X158500000Y-90146190D01*
X158261904Y-90622380D02*
X158261904Y-89622380D01*
X158642857Y-89622380D01*
X158738095Y-89670000D01*
X158785714Y-89717619D01*
X158833333Y-89812857D01*
X158833333Y-89955714D01*
X158785714Y-90050952D01*
X158738095Y-90098571D01*
X158642857Y-90146190D01*
X158261904Y-90146190D01*
X159785714Y-90622380D02*
X159214285Y-90622380D01*
X159500000Y-90622380D02*
X159500000Y-89622380D01*
X159404761Y-89765238D01*
X159309523Y-89860476D01*
X159214285Y-89908095D01*
G04 #@! TO.C,R4*
X148733333Y-93802380D02*
X148400000Y-93326190D01*
X148161904Y-93802380D02*
X148161904Y-92802380D01*
X148542857Y-92802380D01*
X148638095Y-92850000D01*
X148685714Y-92897619D01*
X148733333Y-92992857D01*
X148733333Y-93135714D01*
X148685714Y-93230952D01*
X148638095Y-93278571D01*
X148542857Y-93326190D01*
X148161904Y-93326190D01*
X149590476Y-93135714D02*
X149590476Y-93802380D01*
X149352380Y-92754761D02*
X149114285Y-93469047D01*
X149733333Y-93469047D01*
G04 #@! TO.C,R3*
X139411733Y-68168780D02*
X139078400Y-67692590D01*
X138840304Y-68168780D02*
X138840304Y-67168780D01*
X139221257Y-67168780D01*
X139316495Y-67216400D01*
X139364114Y-67264019D01*
X139411733Y-67359257D01*
X139411733Y-67502114D01*
X139364114Y-67597352D01*
X139316495Y-67644971D01*
X139221257Y-67692590D01*
X138840304Y-67692590D01*
X139745066Y-67168780D02*
X140364114Y-67168780D01*
X140030780Y-67549733D01*
X140173638Y-67549733D01*
X140268876Y-67597352D01*
X140316495Y-67644971D01*
X140364114Y-67740209D01*
X140364114Y-67978304D01*
X140316495Y-68073542D01*
X140268876Y-68121161D01*
X140173638Y-68168780D01*
X139887923Y-68168780D01*
X139792685Y-68121161D01*
X139745066Y-68073542D01*
G04 #@! TO.C,J3*
X130066666Y-61852380D02*
X130066666Y-62566666D01*
X130019047Y-62709523D01*
X129923809Y-62804761D01*
X129780952Y-62852380D01*
X129685714Y-62852380D01*
X130447619Y-61852380D02*
X131066666Y-61852380D01*
X130733333Y-62233333D01*
X130876190Y-62233333D01*
X130971428Y-62280952D01*
X131019047Y-62328571D01*
X131066666Y-62423809D01*
X131066666Y-62661904D01*
X131019047Y-62757142D01*
X130971428Y-62804761D01*
X130876190Y-62852380D01*
X130590476Y-62852380D01*
X130495238Y-62804761D01*
X130447619Y-62757142D01*
G04 #@! TO.C,J1*
X134165266Y-95121580D02*
X134165266Y-95835866D01*
X134117647Y-95978723D01*
X134022409Y-96073961D01*
X133879552Y-96121580D01*
X133784314Y-96121580D01*
X135165266Y-96121580D02*
X134593838Y-96121580D01*
X134879552Y-96121580D02*
X134879552Y-95121580D01*
X134784314Y-95264438D01*
X134689076Y-95359676D01*
X134593838Y-95407295D01*
G04 #@! TO.C,C1*
X191833333Y-92557142D02*
X191785714Y-92604761D01*
X191642857Y-92652380D01*
X191547619Y-92652380D01*
X191404761Y-92604761D01*
X191309523Y-92509523D01*
X191261904Y-92414285D01*
X191214285Y-92223809D01*
X191214285Y-92080952D01*
X191261904Y-91890476D01*
X191309523Y-91795238D01*
X191404761Y-91700000D01*
X191547619Y-91652380D01*
X191642857Y-91652380D01*
X191785714Y-91700000D01*
X191833333Y-91747619D01*
X192785714Y-92652380D02*
X192214285Y-92652380D01*
X192500000Y-92652380D02*
X192500000Y-91652380D01*
X192404761Y-91795238D01*
X192309523Y-91890476D01*
X192214285Y-91938095D01*
G04 #@! TO.C,U1*
X121209095Y-92149780D02*
X121209095Y-92959304D01*
X121256714Y-93054542D01*
X121304333Y-93102161D01*
X121399571Y-93149780D01*
X121590047Y-93149780D01*
X121685285Y-93102161D01*
X121732904Y-93054542D01*
X121780523Y-92959304D01*
X121780523Y-92149780D01*
X122780523Y-93149780D02*
X122209095Y-93149780D01*
X122494809Y-93149780D02*
X122494809Y-92149780D01*
X122399571Y-92292638D01*
X122304333Y-92387876D01*
X122209095Y-92435495D01*
G04 #@! TO.C,R4*
X181733333Y-93802380D02*
X181400000Y-93326190D01*
X181161904Y-93802380D02*
X181161904Y-92802380D01*
X181542857Y-92802380D01*
X181638095Y-92850000D01*
X181685714Y-92897619D01*
X181733333Y-92992857D01*
X181733333Y-93135714D01*
X181685714Y-93230952D01*
X181638095Y-93278571D01*
X181542857Y-93326190D01*
X181161904Y-93326190D01*
X182590476Y-93135714D02*
X182590476Y-93802380D01*
X182352380Y-92754761D02*
X182114285Y-93469047D01*
X182733333Y-93469047D01*
G04 #@! TO.C,R3*
X106411733Y-68168780D02*
X106078400Y-67692590D01*
X105840304Y-68168780D02*
X105840304Y-67168780D01*
X106221257Y-67168780D01*
X106316495Y-67216400D01*
X106364114Y-67264019D01*
X106411733Y-67359257D01*
X106411733Y-67502114D01*
X106364114Y-67597352D01*
X106316495Y-67644971D01*
X106221257Y-67692590D01*
X105840304Y-67692590D01*
X106745066Y-67168780D02*
X107364114Y-67168780D01*
X107030780Y-67549733D01*
X107173638Y-67549733D01*
X107268876Y-67597352D01*
X107316495Y-67644971D01*
X107364114Y-67740209D01*
X107364114Y-67978304D01*
X107316495Y-68073542D01*
X107268876Y-68121161D01*
X107173638Y-68168780D01*
X106887923Y-68168780D01*
X106792685Y-68121161D01*
X106745066Y-68073542D01*
G04 #@! TO.C,J3*
X196066666Y-61852380D02*
X196066666Y-62566666D01*
X196019047Y-62709523D01*
X195923809Y-62804761D01*
X195780952Y-62852380D01*
X195685714Y-62852380D01*
X196447619Y-61852380D02*
X197066666Y-61852380D01*
X196733333Y-62233333D01*
X196876190Y-62233333D01*
X196971428Y-62280952D01*
X197019047Y-62328571D01*
X197066666Y-62423809D01*
X197066666Y-62661904D01*
X197019047Y-62757142D01*
X196971428Y-62804761D01*
X196876190Y-62852380D01*
X196590476Y-62852380D01*
X196495238Y-62804761D01*
X196447619Y-62757142D01*
G04 #@! TO.C,J4*
D13*
X119510628Y-57505600D02*
X120599200Y-57505600D01*
X120816914Y-57578171D01*
X120962057Y-57723314D01*
X121034628Y-57941028D01*
X121034628Y-58086171D01*
X120018628Y-56126742D02*
X121034628Y-56126742D01*
X119438057Y-56489600D02*
X120526628Y-56852457D01*
X120526628Y-55909028D01*
G04 #@! TO.C,C1*
D11*
X125833333Y-92557142D02*
X125785714Y-92604761D01*
X125642857Y-92652380D01*
X125547619Y-92652380D01*
X125404761Y-92604761D01*
X125309523Y-92509523D01*
X125261904Y-92414285D01*
X125214285Y-92223809D01*
X125214285Y-92080952D01*
X125261904Y-91890476D01*
X125309523Y-91795238D01*
X125404761Y-91700000D01*
X125547619Y-91652380D01*
X125642857Y-91652380D01*
X125785714Y-91700000D01*
X125833333Y-91747619D01*
X126785714Y-92652380D02*
X126214285Y-92652380D01*
X126500000Y-92652380D02*
X126500000Y-91652380D01*
X126404761Y-91795238D01*
X126309523Y-91890476D01*
X126214285Y-91938095D01*
G04 #@! TO.C,R4*
X115733333Y-93802380D02*
X115400000Y-93326190D01*
X115161904Y-93802380D02*
X115161904Y-92802380D01*
X115542857Y-92802380D01*
X115638095Y-92850000D01*
X115685714Y-92897619D01*
X115733333Y-92992857D01*
X115733333Y-93135714D01*
X115685714Y-93230952D01*
X115638095Y-93278571D01*
X115542857Y-93326190D01*
X115161904Y-93326190D01*
X116590476Y-93135714D02*
X116590476Y-93802380D01*
X116352380Y-92754761D02*
X116114285Y-93469047D01*
X116733333Y-93469047D01*
G04 #@! TO.C,U2*
X170343295Y-59142380D02*
X170343295Y-59951904D01*
X170390914Y-60047142D01*
X170438533Y-60094761D01*
X170533771Y-60142380D01*
X170724247Y-60142380D01*
X170819485Y-60094761D01*
X170867104Y-60047142D01*
X170914723Y-59951904D01*
X170914723Y-59142380D01*
X171343295Y-59237619D02*
X171390914Y-59190000D01*
X171486152Y-59142380D01*
X171724247Y-59142380D01*
X171819485Y-59190000D01*
X171867104Y-59237619D01*
X171914723Y-59332857D01*
X171914723Y-59428095D01*
X171867104Y-59570952D01*
X171295676Y-60142380D01*
X171914723Y-60142380D01*
G04 #@! TO.C,J5*
X112138066Y-95197780D02*
X112138066Y-95912066D01*
X112090447Y-96054923D01*
X111995209Y-96150161D01*
X111852352Y-96197780D01*
X111757114Y-96197780D01*
X113090447Y-95197780D02*
X112614257Y-95197780D01*
X112566638Y-95673971D01*
X112614257Y-95626352D01*
X112709495Y-95578733D01*
X112947590Y-95578733D01*
X113042828Y-95626352D01*
X113090447Y-95673971D01*
X113138066Y-95769209D01*
X113138066Y-96007304D01*
X113090447Y-96102542D01*
X113042828Y-96150161D01*
X112947590Y-96197780D01*
X112709495Y-96197780D01*
X112614257Y-96150161D01*
X112566638Y-96102542D01*
G04 #@! TO.C,J2*
X130066666Y-74252380D02*
X130066666Y-74966666D01*
X130019047Y-75109523D01*
X129923809Y-75204761D01*
X129780952Y-75252380D01*
X129685714Y-75252380D01*
X130495238Y-74347619D02*
X130542857Y-74300000D01*
X130638095Y-74252380D01*
X130876190Y-74252380D01*
X130971428Y-74300000D01*
X131019047Y-74347619D01*
X131066666Y-74442857D01*
X131066666Y-74538095D01*
X131019047Y-74680952D01*
X130447619Y-75252380D01*
X131066666Y-75252380D01*
G04 #@! TO.C,U2*
X104343295Y-59142380D02*
X104343295Y-59951904D01*
X104390914Y-60047142D01*
X104438533Y-60094761D01*
X104533771Y-60142380D01*
X104724247Y-60142380D01*
X104819485Y-60094761D01*
X104867104Y-60047142D01*
X104914723Y-59951904D01*
X104914723Y-59142380D01*
X105343295Y-59237619D02*
X105390914Y-59190000D01*
X105486152Y-59142380D01*
X105724247Y-59142380D01*
X105819485Y-59190000D01*
X105867104Y-59237619D01*
X105914723Y-59332857D01*
X105914723Y-59428095D01*
X105867104Y-59570952D01*
X105295676Y-60142380D01*
X105914723Y-60142380D01*
G04 #@! TO.C,J4*
D13*
X152510628Y-57505600D02*
X153599200Y-57505600D01*
X153816914Y-57578171D01*
X153962057Y-57723314D01*
X154034628Y-57941028D01*
X154034628Y-58086171D01*
X153018628Y-56126742D02*
X154034628Y-56126742D01*
X152438057Y-56489600D02*
X153526628Y-56852457D01*
X153526628Y-55909028D01*
G04 #@! TO.C,R1*
D11*
X125833333Y-90622380D02*
X125500000Y-90146190D01*
X125261904Y-90622380D02*
X125261904Y-89622380D01*
X125642857Y-89622380D01*
X125738095Y-89670000D01*
X125785714Y-89717619D01*
X125833333Y-89812857D01*
X125833333Y-89955714D01*
X125785714Y-90050952D01*
X125738095Y-90098571D01*
X125642857Y-90146190D01*
X125261904Y-90146190D01*
X126785714Y-90622380D02*
X126214285Y-90622380D01*
X126500000Y-90622380D02*
X126500000Y-89622380D01*
X126404761Y-89765238D01*
X126309523Y-89860476D01*
X126214285Y-89908095D01*
G04 #@! TO.C,C2*
X116012933Y-77319142D02*
X115965314Y-77366761D01*
X115822457Y-77414380D01*
X115727219Y-77414380D01*
X115584361Y-77366761D01*
X115489123Y-77271523D01*
X115441504Y-77176285D01*
X115393885Y-76985809D01*
X115393885Y-76842952D01*
X115441504Y-76652476D01*
X115489123Y-76557238D01*
X115584361Y-76462000D01*
X115727219Y-76414380D01*
X115822457Y-76414380D01*
X115965314Y-76462000D01*
X116012933Y-76509619D01*
X116393885Y-76509619D02*
X116441504Y-76462000D01*
X116536742Y-76414380D01*
X116774838Y-76414380D01*
X116870076Y-76462000D01*
X116917695Y-76509619D01*
X116965314Y-76604857D01*
X116965314Y-76700095D01*
X116917695Y-76842952D01*
X116346266Y-77414380D01*
X116965314Y-77414380D01*
G04 #@! TO.C,C1*
X158833333Y-92557142D02*
X158785714Y-92604761D01*
X158642857Y-92652380D01*
X158547619Y-92652380D01*
X158404761Y-92604761D01*
X158309523Y-92509523D01*
X158261904Y-92414285D01*
X158214285Y-92223809D01*
X158214285Y-92080952D01*
X158261904Y-91890476D01*
X158309523Y-91795238D01*
X158404761Y-91700000D01*
X158547619Y-91652380D01*
X158642857Y-91652380D01*
X158785714Y-91700000D01*
X158833333Y-91747619D01*
X159785714Y-92652380D02*
X159214285Y-92652380D01*
X159500000Y-92652380D02*
X159500000Y-91652380D01*
X159404761Y-91795238D01*
X159309523Y-91890476D01*
X159214285Y-91938095D01*
G04 #@! TO.C,J4*
D13*
X185510628Y-57505600D02*
X186599200Y-57505600D01*
X186816914Y-57578171D01*
X186962057Y-57723314D01*
X187034628Y-57941028D01*
X187034628Y-58086171D01*
X186018628Y-56126742D02*
X187034628Y-56126742D01*
X185438057Y-56489600D02*
X186526628Y-56852457D01*
X186526628Y-55909028D01*
G04 #@! TO.C,PS1*
D11*
X139888114Y-54757580D02*
X139888114Y-53757580D01*
X140269066Y-53757580D01*
X140364304Y-53805200D01*
X140411923Y-53852819D01*
X140459542Y-53948057D01*
X140459542Y-54090914D01*
X140411923Y-54186152D01*
X140364304Y-54233771D01*
X140269066Y-54281390D01*
X139888114Y-54281390D01*
X140840495Y-54709961D02*
X140983352Y-54757580D01*
X141221447Y-54757580D01*
X141316685Y-54709961D01*
X141364304Y-54662342D01*
X141411923Y-54567104D01*
X141411923Y-54471866D01*
X141364304Y-54376628D01*
X141316685Y-54329009D01*
X141221447Y-54281390D01*
X141030971Y-54233771D01*
X140935733Y-54186152D01*
X140888114Y-54138533D01*
X140840495Y-54043295D01*
X140840495Y-53948057D01*
X140888114Y-53852819D01*
X140935733Y-53805200D01*
X141030971Y-53757580D01*
X141269066Y-53757580D01*
X141411923Y-53805200D01*
X142364304Y-54757580D02*
X141792876Y-54757580D01*
X142078590Y-54757580D02*
X142078590Y-53757580D01*
X141983352Y-53900438D01*
X141888114Y-53995676D01*
X141792876Y-54043295D01*
X172888114Y-54757580D02*
X172888114Y-53757580D01*
X173269066Y-53757580D01*
X173364304Y-53805200D01*
X173411923Y-53852819D01*
X173459542Y-53948057D01*
X173459542Y-54090914D01*
X173411923Y-54186152D01*
X173364304Y-54233771D01*
X173269066Y-54281390D01*
X172888114Y-54281390D01*
X173840495Y-54709961D02*
X173983352Y-54757580D01*
X174221447Y-54757580D01*
X174316685Y-54709961D01*
X174364304Y-54662342D01*
X174411923Y-54567104D01*
X174411923Y-54471866D01*
X174364304Y-54376628D01*
X174316685Y-54329009D01*
X174221447Y-54281390D01*
X174030971Y-54233771D01*
X173935733Y-54186152D01*
X173888114Y-54138533D01*
X173840495Y-54043295D01*
X173840495Y-53948057D01*
X173888114Y-53852819D01*
X173935733Y-53805200D01*
X174030971Y-53757580D01*
X174269066Y-53757580D01*
X174411923Y-53805200D01*
X175364304Y-54757580D02*
X174792876Y-54757580D01*
X175078590Y-54757580D02*
X175078590Y-53757580D01*
X174983352Y-53900438D01*
X174888114Y-53995676D01*
X174792876Y-54043295D01*
G04 #@! TO.C,J1*
X101165266Y-95121580D02*
X101165266Y-95835866D01*
X101117647Y-95978723D01*
X101022409Y-96073961D01*
X100879552Y-96121580D01*
X100784314Y-96121580D01*
X102165266Y-96121580D02*
X101593838Y-96121580D01*
X101879552Y-96121580D02*
X101879552Y-95121580D01*
X101784314Y-95264438D01*
X101689076Y-95359676D01*
X101593838Y-95407295D01*
G04 #@! TO.C,R1*
X191833333Y-90622380D02*
X191500000Y-90146190D01*
X191261904Y-90622380D02*
X191261904Y-89622380D01*
X191642857Y-89622380D01*
X191738095Y-89670000D01*
X191785714Y-89717619D01*
X191833333Y-89812857D01*
X191833333Y-89955714D01*
X191785714Y-90050952D01*
X191738095Y-90098571D01*
X191642857Y-90146190D01*
X191261904Y-90146190D01*
X192785714Y-90622380D02*
X192214285Y-90622380D01*
X192500000Y-90622380D02*
X192500000Y-89622380D01*
X192404761Y-89765238D01*
X192309523Y-89860476D01*
X192214285Y-89908095D01*
G04 #@! TO.C,R2*
X106360933Y-73604380D02*
X106027600Y-73128190D01*
X105789504Y-73604380D02*
X105789504Y-72604380D01*
X106170457Y-72604380D01*
X106265695Y-72652000D01*
X106313314Y-72699619D01*
X106360933Y-72794857D01*
X106360933Y-72937714D01*
X106313314Y-73032952D01*
X106265695Y-73080571D01*
X106170457Y-73128190D01*
X105789504Y-73128190D01*
X106741885Y-72699619D02*
X106789504Y-72652000D01*
X106884742Y-72604380D01*
X107122838Y-72604380D01*
X107218076Y-72652000D01*
X107265695Y-72699619D01*
X107313314Y-72794857D01*
X107313314Y-72890095D01*
X107265695Y-73032952D01*
X106694266Y-73604380D01*
X107313314Y-73604380D01*
X172360933Y-73604380D02*
X172027600Y-73128190D01*
X171789504Y-73604380D02*
X171789504Y-72604380D01*
X172170457Y-72604380D01*
X172265695Y-72652000D01*
X172313314Y-72699619D01*
X172360933Y-72794857D01*
X172360933Y-72937714D01*
X172313314Y-73032952D01*
X172265695Y-73080571D01*
X172170457Y-73128190D01*
X171789504Y-73128190D01*
X172741885Y-72699619D02*
X172789504Y-72652000D01*
X172884742Y-72604380D01*
X173122838Y-72604380D01*
X173218076Y-72652000D01*
X173265695Y-72699619D01*
X173313314Y-72794857D01*
X173313314Y-72890095D01*
X173265695Y-73032952D01*
X172694266Y-73604380D01*
X173313314Y-73604380D01*
G04 #@! TO.C,C2*
X182012933Y-77319142D02*
X181965314Y-77366761D01*
X181822457Y-77414380D01*
X181727219Y-77414380D01*
X181584361Y-77366761D01*
X181489123Y-77271523D01*
X181441504Y-77176285D01*
X181393885Y-76985809D01*
X181393885Y-76842952D01*
X181441504Y-76652476D01*
X181489123Y-76557238D01*
X181584361Y-76462000D01*
X181727219Y-76414380D01*
X181822457Y-76414380D01*
X181965314Y-76462000D01*
X182012933Y-76509619D01*
X182393885Y-76509619D02*
X182441504Y-76462000D01*
X182536742Y-76414380D01*
X182774838Y-76414380D01*
X182870076Y-76462000D01*
X182917695Y-76509619D01*
X182965314Y-76604857D01*
X182965314Y-76700095D01*
X182917695Y-76842952D01*
X182346266Y-77414380D01*
X182965314Y-77414380D01*
G04 #@! TO.C,U3*
X145649095Y-68469380D02*
X145649095Y-69278904D01*
X145696714Y-69374142D01*
X145744333Y-69421761D01*
X145839571Y-69469380D01*
X146030047Y-69469380D01*
X146125285Y-69421761D01*
X146172904Y-69374142D01*
X146220523Y-69278904D01*
X146220523Y-68469380D01*
X146601476Y-68469380D02*
X147220523Y-68469380D01*
X146887190Y-68850333D01*
X147030047Y-68850333D01*
X147125285Y-68897952D01*
X147172904Y-68945571D01*
X147220523Y-69040809D01*
X147220523Y-69278904D01*
X147172904Y-69374142D01*
X147125285Y-69421761D01*
X147030047Y-69469380D01*
X146744333Y-69469380D01*
X146649095Y-69421761D01*
X146601476Y-69374142D01*
X112649095Y-68469380D02*
X112649095Y-69278904D01*
X112696714Y-69374142D01*
X112744333Y-69421761D01*
X112839571Y-69469380D01*
X113030047Y-69469380D01*
X113125285Y-69421761D01*
X113172904Y-69374142D01*
X113220523Y-69278904D01*
X113220523Y-68469380D01*
X113601476Y-68469380D02*
X114220523Y-68469380D01*
X113887190Y-68850333D01*
X114030047Y-68850333D01*
X114125285Y-68897952D01*
X114172904Y-68945571D01*
X114220523Y-69040809D01*
X114220523Y-69278904D01*
X114172904Y-69374142D01*
X114125285Y-69421761D01*
X114030047Y-69469380D01*
X113744333Y-69469380D01*
X113649095Y-69421761D01*
X113601476Y-69374142D01*
G04 #@! TO.C,U1*
X154209095Y-92149780D02*
X154209095Y-92959304D01*
X154256714Y-93054542D01*
X154304333Y-93102161D01*
X154399571Y-93149780D01*
X154590047Y-93149780D01*
X154685285Y-93102161D01*
X154732904Y-93054542D01*
X154780523Y-92959304D01*
X154780523Y-92149780D01*
X155780523Y-93149780D02*
X155209095Y-93149780D01*
X155494809Y-93149780D02*
X155494809Y-92149780D01*
X155399571Y-92292638D01*
X155304333Y-92387876D01*
X155209095Y-92435495D01*
G04 #@! TO.C,J5*
X178138066Y-95197780D02*
X178138066Y-95912066D01*
X178090447Y-96054923D01*
X177995209Y-96150161D01*
X177852352Y-96197780D01*
X177757114Y-96197780D01*
X179090447Y-95197780D02*
X178614257Y-95197780D01*
X178566638Y-95673971D01*
X178614257Y-95626352D01*
X178709495Y-95578733D01*
X178947590Y-95578733D01*
X179042828Y-95626352D01*
X179090447Y-95673971D01*
X179138066Y-95769209D01*
X179138066Y-96007304D01*
X179090447Y-96102542D01*
X179042828Y-96150161D01*
X178947590Y-96197780D01*
X178709495Y-96197780D01*
X178614257Y-96150161D01*
X178566638Y-96102542D01*
G04 #@! TO.C,J2*
X196066666Y-74252380D02*
X196066666Y-74966666D01*
X196019047Y-75109523D01*
X195923809Y-75204761D01*
X195780952Y-75252380D01*
X195685714Y-75252380D01*
X196495238Y-74347619D02*
X196542857Y-74300000D01*
X196638095Y-74252380D01*
X196876190Y-74252380D01*
X196971428Y-74300000D01*
X197019047Y-74347619D01*
X197066666Y-74442857D01*
X197066666Y-74538095D01*
X197019047Y-74680952D01*
X196447619Y-75252380D01*
X197066666Y-75252380D01*
G04 #@! TO.C,R2*
X139360933Y-73604380D02*
X139027600Y-73128190D01*
X138789504Y-73604380D02*
X138789504Y-72604380D01*
X139170457Y-72604380D01*
X139265695Y-72652000D01*
X139313314Y-72699619D01*
X139360933Y-72794857D01*
X139360933Y-72937714D01*
X139313314Y-73032952D01*
X139265695Y-73080571D01*
X139170457Y-73128190D01*
X138789504Y-73128190D01*
X139741885Y-72699619D02*
X139789504Y-72652000D01*
X139884742Y-72604380D01*
X140122838Y-72604380D01*
X140218076Y-72652000D01*
X140265695Y-72699619D01*
X140313314Y-72794857D01*
X140313314Y-72890095D01*
X140265695Y-73032952D01*
X139694266Y-73604380D01*
X140313314Y-73604380D01*
G04 #@! TO.C,J5*
X145138066Y-95197780D02*
X145138066Y-95912066D01*
X145090447Y-96054923D01*
X144995209Y-96150161D01*
X144852352Y-96197780D01*
X144757114Y-96197780D01*
X146090447Y-95197780D02*
X145614257Y-95197780D01*
X145566638Y-95673971D01*
X145614257Y-95626352D01*
X145709495Y-95578733D01*
X145947590Y-95578733D01*
X146042828Y-95626352D01*
X146090447Y-95673971D01*
X146138066Y-95769209D01*
X146138066Y-96007304D01*
X146090447Y-96102542D01*
X146042828Y-96150161D01*
X145947590Y-96197780D01*
X145709495Y-96197780D01*
X145614257Y-96150161D01*
X145566638Y-96102542D01*
G04 #@! TO.C,U1*
X187209095Y-92149780D02*
X187209095Y-92959304D01*
X187256714Y-93054542D01*
X187304333Y-93102161D01*
X187399571Y-93149780D01*
X187590047Y-93149780D01*
X187685285Y-93102161D01*
X187732904Y-93054542D01*
X187780523Y-92959304D01*
X187780523Y-92149780D01*
X188780523Y-93149780D02*
X188209095Y-93149780D01*
X188494809Y-93149780D02*
X188494809Y-92149780D01*
X188399571Y-92292638D01*
X188304333Y-92387876D01*
X188209095Y-92435495D01*
G04 #@! TO.C,J3*
X163066666Y-61852380D02*
X163066666Y-62566666D01*
X163019047Y-62709523D01*
X162923809Y-62804761D01*
X162780952Y-62852380D01*
X162685714Y-62852380D01*
X163447619Y-61852380D02*
X164066666Y-61852380D01*
X163733333Y-62233333D01*
X163876190Y-62233333D01*
X163971428Y-62280952D01*
X164019047Y-62328571D01*
X164066666Y-62423809D01*
X164066666Y-62661904D01*
X164019047Y-62757142D01*
X163971428Y-62804761D01*
X163876190Y-62852380D01*
X163590476Y-62852380D01*
X163495238Y-62804761D01*
X163447619Y-62757142D01*
G04 #@! TO.C,J1*
X167165266Y-95121580D02*
X167165266Y-95835866D01*
X167117647Y-95978723D01*
X167022409Y-96073961D01*
X166879552Y-96121580D01*
X166784314Y-96121580D01*
X168165266Y-96121580D02*
X167593838Y-96121580D01*
X167879552Y-96121580D02*
X167879552Y-95121580D01*
X167784314Y-95264438D01*
X167689076Y-95359676D01*
X167593838Y-95407295D01*
G04 #@! TO.C,U3*
X178649095Y-68469380D02*
X178649095Y-69278904D01*
X178696714Y-69374142D01*
X178744333Y-69421761D01*
X178839571Y-69469380D01*
X179030047Y-69469380D01*
X179125285Y-69421761D01*
X179172904Y-69374142D01*
X179220523Y-69278904D01*
X179220523Y-68469380D01*
X179601476Y-68469380D02*
X180220523Y-68469380D01*
X179887190Y-68850333D01*
X180030047Y-68850333D01*
X180125285Y-68897952D01*
X180172904Y-68945571D01*
X180220523Y-69040809D01*
X180220523Y-69278904D01*
X180172904Y-69374142D01*
X180125285Y-69421761D01*
X180030047Y-69469380D01*
X179744333Y-69469380D01*
X179649095Y-69421761D01*
X179601476Y-69374142D01*
G04 #@! TO.C,J2*
X163066666Y-74252380D02*
X163066666Y-74966666D01*
X163019047Y-75109523D01*
X162923809Y-75204761D01*
X162780952Y-75252380D01*
X162685714Y-75252380D01*
X163495238Y-74347619D02*
X163542857Y-74300000D01*
X163638095Y-74252380D01*
X163876190Y-74252380D01*
X163971428Y-74300000D01*
X164019047Y-74347619D01*
X164066666Y-74442857D01*
X164066666Y-74538095D01*
X164019047Y-74680952D01*
X163447619Y-75252380D01*
X164066666Y-75252380D01*
G04 #@! TO.C,C2*
X182012933Y-127319142D02*
X181965314Y-127366761D01*
X181822457Y-127414380D01*
X181727219Y-127414380D01*
X181584361Y-127366761D01*
X181489123Y-127271523D01*
X181441504Y-127176285D01*
X181393885Y-126985809D01*
X181393885Y-126842952D01*
X181441504Y-126652476D01*
X181489123Y-126557238D01*
X181584361Y-126462000D01*
X181727219Y-126414380D01*
X181822457Y-126414380D01*
X181965314Y-126462000D01*
X182012933Y-126509619D01*
X182393885Y-126509619D02*
X182441504Y-126462000D01*
X182536742Y-126414380D01*
X182774838Y-126414380D01*
X182870076Y-126462000D01*
X182917695Y-126509619D01*
X182965314Y-126604857D01*
X182965314Y-126700095D01*
X182917695Y-126842952D01*
X182346266Y-127414380D01*
X182965314Y-127414380D01*
G04 #@! TO.C,U2*
X170343295Y-109142380D02*
X170343295Y-109951904D01*
X170390914Y-110047142D01*
X170438533Y-110094761D01*
X170533771Y-110142380D01*
X170724247Y-110142380D01*
X170819485Y-110094761D01*
X170867104Y-110047142D01*
X170914723Y-109951904D01*
X170914723Y-109142380D01*
X171343295Y-109237619D02*
X171390914Y-109190000D01*
X171486152Y-109142380D01*
X171724247Y-109142380D01*
X171819485Y-109190000D01*
X171867104Y-109237619D01*
X171914723Y-109332857D01*
X171914723Y-109428095D01*
X171867104Y-109570952D01*
X171295676Y-110142380D01*
X171914723Y-110142380D01*
G04 #@! TO.C,R1*
X191833333Y-140622380D02*
X191500000Y-140146190D01*
X191261904Y-140622380D02*
X191261904Y-139622380D01*
X191642857Y-139622380D01*
X191738095Y-139670000D01*
X191785714Y-139717619D01*
X191833333Y-139812857D01*
X191833333Y-139955714D01*
X191785714Y-140050952D01*
X191738095Y-140098571D01*
X191642857Y-140146190D01*
X191261904Y-140146190D01*
X192785714Y-140622380D02*
X192214285Y-140622380D01*
X192500000Y-140622380D02*
X192500000Y-139622380D01*
X192404761Y-139765238D01*
X192309523Y-139860476D01*
X192214285Y-139908095D01*
G04 #@! TO.C,R4*
X181733333Y-143802380D02*
X181400000Y-143326190D01*
X181161904Y-143802380D02*
X181161904Y-142802380D01*
X181542857Y-142802380D01*
X181638095Y-142850000D01*
X181685714Y-142897619D01*
X181733333Y-142992857D01*
X181733333Y-143135714D01*
X181685714Y-143230952D01*
X181638095Y-143278571D01*
X181542857Y-143326190D01*
X181161904Y-143326190D01*
X182590476Y-143135714D02*
X182590476Y-143802380D01*
X182352380Y-142754761D02*
X182114285Y-143469047D01*
X182733333Y-143469047D01*
G04 #@! TO.C,R3*
X172411733Y-118168780D02*
X172078400Y-117692590D01*
X171840304Y-118168780D02*
X171840304Y-117168780D01*
X172221257Y-117168780D01*
X172316495Y-117216400D01*
X172364114Y-117264019D01*
X172411733Y-117359257D01*
X172411733Y-117502114D01*
X172364114Y-117597352D01*
X172316495Y-117644971D01*
X172221257Y-117692590D01*
X171840304Y-117692590D01*
X172745066Y-117168780D02*
X173364114Y-117168780D01*
X173030780Y-117549733D01*
X173173638Y-117549733D01*
X173268876Y-117597352D01*
X173316495Y-117644971D01*
X173364114Y-117740209D01*
X173364114Y-117978304D01*
X173316495Y-118073542D01*
X173268876Y-118121161D01*
X173173638Y-118168780D01*
X172887923Y-118168780D01*
X172792685Y-118121161D01*
X172745066Y-118073542D01*
G04 #@! TO.C,J1*
X167165266Y-145121580D02*
X167165266Y-145835866D01*
X167117647Y-145978723D01*
X167022409Y-146073961D01*
X166879552Y-146121580D01*
X166784314Y-146121580D01*
X168165266Y-146121580D02*
X167593838Y-146121580D01*
X167879552Y-146121580D02*
X167879552Y-145121580D01*
X167784314Y-145264438D01*
X167689076Y-145359676D01*
X167593838Y-145407295D01*
G04 #@! TO.C,J4*
D13*
X185510628Y-107505600D02*
X186599200Y-107505600D01*
X186816914Y-107578171D01*
X186962057Y-107723314D01*
X187034628Y-107941028D01*
X187034628Y-108086171D01*
X186018628Y-106126742D02*
X187034628Y-106126742D01*
X185438057Y-106489600D02*
X186526628Y-106852457D01*
X186526628Y-105909028D01*
G04 #@! TO.C,C1*
D11*
X191833333Y-142557142D02*
X191785714Y-142604761D01*
X191642857Y-142652380D01*
X191547619Y-142652380D01*
X191404761Y-142604761D01*
X191309523Y-142509523D01*
X191261904Y-142414285D01*
X191214285Y-142223809D01*
X191214285Y-142080952D01*
X191261904Y-141890476D01*
X191309523Y-141795238D01*
X191404761Y-141700000D01*
X191547619Y-141652380D01*
X191642857Y-141652380D01*
X191785714Y-141700000D01*
X191833333Y-141747619D01*
X192785714Y-142652380D02*
X192214285Y-142652380D01*
X192500000Y-142652380D02*
X192500000Y-141652380D01*
X192404761Y-141795238D01*
X192309523Y-141890476D01*
X192214285Y-141938095D01*
G04 #@! TO.C,PS1*
X172888114Y-104757580D02*
X172888114Y-103757580D01*
X173269066Y-103757580D01*
X173364304Y-103805200D01*
X173411923Y-103852819D01*
X173459542Y-103948057D01*
X173459542Y-104090914D01*
X173411923Y-104186152D01*
X173364304Y-104233771D01*
X173269066Y-104281390D01*
X172888114Y-104281390D01*
X173840495Y-104709961D02*
X173983352Y-104757580D01*
X174221447Y-104757580D01*
X174316685Y-104709961D01*
X174364304Y-104662342D01*
X174411923Y-104567104D01*
X174411923Y-104471866D01*
X174364304Y-104376628D01*
X174316685Y-104329009D01*
X174221447Y-104281390D01*
X174030971Y-104233771D01*
X173935733Y-104186152D01*
X173888114Y-104138533D01*
X173840495Y-104043295D01*
X173840495Y-103948057D01*
X173888114Y-103852819D01*
X173935733Y-103805200D01*
X174030971Y-103757580D01*
X174269066Y-103757580D01*
X174411923Y-103805200D01*
X175364304Y-104757580D02*
X174792876Y-104757580D01*
X175078590Y-104757580D02*
X175078590Y-103757580D01*
X174983352Y-103900438D01*
X174888114Y-103995676D01*
X174792876Y-104043295D01*
G04 #@! TO.C,U3*
X178649095Y-118469380D02*
X178649095Y-119278904D01*
X178696714Y-119374142D01*
X178744333Y-119421761D01*
X178839571Y-119469380D01*
X179030047Y-119469380D01*
X179125285Y-119421761D01*
X179172904Y-119374142D01*
X179220523Y-119278904D01*
X179220523Y-118469380D01*
X179601476Y-118469380D02*
X180220523Y-118469380D01*
X179887190Y-118850333D01*
X180030047Y-118850333D01*
X180125285Y-118897952D01*
X180172904Y-118945571D01*
X180220523Y-119040809D01*
X180220523Y-119278904D01*
X180172904Y-119374142D01*
X180125285Y-119421761D01*
X180030047Y-119469380D01*
X179744333Y-119469380D01*
X179649095Y-119421761D01*
X179601476Y-119374142D01*
G04 #@! TO.C,U1*
X187209095Y-142149780D02*
X187209095Y-142959304D01*
X187256714Y-143054542D01*
X187304333Y-143102161D01*
X187399571Y-143149780D01*
X187590047Y-143149780D01*
X187685285Y-143102161D01*
X187732904Y-143054542D01*
X187780523Y-142959304D01*
X187780523Y-142149780D01*
X188780523Y-143149780D02*
X188209095Y-143149780D01*
X188494809Y-143149780D02*
X188494809Y-142149780D01*
X188399571Y-142292638D01*
X188304333Y-142387876D01*
X188209095Y-142435495D01*
G04 #@! TO.C,R2*
X172360933Y-123604380D02*
X172027600Y-123128190D01*
X171789504Y-123604380D02*
X171789504Y-122604380D01*
X172170457Y-122604380D01*
X172265695Y-122652000D01*
X172313314Y-122699619D01*
X172360933Y-122794857D01*
X172360933Y-122937714D01*
X172313314Y-123032952D01*
X172265695Y-123080571D01*
X172170457Y-123128190D01*
X171789504Y-123128190D01*
X172741885Y-122699619D02*
X172789504Y-122652000D01*
X172884742Y-122604380D01*
X173122838Y-122604380D01*
X173218076Y-122652000D01*
X173265695Y-122699619D01*
X173313314Y-122794857D01*
X173313314Y-122890095D01*
X173265695Y-123032952D01*
X172694266Y-123604380D01*
X173313314Y-123604380D01*
G04 #@! TO.C,J5*
X178138066Y-145197780D02*
X178138066Y-145912066D01*
X178090447Y-146054923D01*
X177995209Y-146150161D01*
X177852352Y-146197780D01*
X177757114Y-146197780D01*
X179090447Y-145197780D02*
X178614257Y-145197780D01*
X178566638Y-145673971D01*
X178614257Y-145626352D01*
X178709495Y-145578733D01*
X178947590Y-145578733D01*
X179042828Y-145626352D01*
X179090447Y-145673971D01*
X179138066Y-145769209D01*
X179138066Y-146007304D01*
X179090447Y-146102542D01*
X179042828Y-146150161D01*
X178947590Y-146197780D01*
X178709495Y-146197780D01*
X178614257Y-146150161D01*
X178566638Y-146102542D01*
G04 #@! TO.C,J3*
X196066666Y-111852380D02*
X196066666Y-112566666D01*
X196019047Y-112709523D01*
X195923809Y-112804761D01*
X195780952Y-112852380D01*
X195685714Y-112852380D01*
X196447619Y-111852380D02*
X197066666Y-111852380D01*
X196733333Y-112233333D01*
X196876190Y-112233333D01*
X196971428Y-112280952D01*
X197019047Y-112328571D01*
X197066666Y-112423809D01*
X197066666Y-112661904D01*
X197019047Y-112757142D01*
X196971428Y-112804761D01*
X196876190Y-112852380D01*
X196590476Y-112852380D01*
X196495238Y-112804761D01*
X196447619Y-112757142D01*
G04 #@! TO.C,J2*
X196066666Y-124252380D02*
X196066666Y-124966666D01*
X196019047Y-125109523D01*
X195923809Y-125204761D01*
X195780952Y-125252380D01*
X195685714Y-125252380D01*
X196495238Y-124347619D02*
X196542857Y-124300000D01*
X196638095Y-124252380D01*
X196876190Y-124252380D01*
X196971428Y-124300000D01*
X197019047Y-124347619D01*
X197066666Y-124442857D01*
X197066666Y-124538095D01*
X197019047Y-124680952D01*
X196447619Y-125252380D01*
X197066666Y-125252380D01*
G04 #@! TO.C,PS1*
X139888114Y-104757580D02*
X139888114Y-103757580D01*
X140269066Y-103757580D01*
X140364304Y-103805200D01*
X140411923Y-103852819D01*
X140459542Y-103948057D01*
X140459542Y-104090914D01*
X140411923Y-104186152D01*
X140364304Y-104233771D01*
X140269066Y-104281390D01*
X139888114Y-104281390D01*
X140840495Y-104709961D02*
X140983352Y-104757580D01*
X141221447Y-104757580D01*
X141316685Y-104709961D01*
X141364304Y-104662342D01*
X141411923Y-104567104D01*
X141411923Y-104471866D01*
X141364304Y-104376628D01*
X141316685Y-104329009D01*
X141221447Y-104281390D01*
X141030971Y-104233771D01*
X140935733Y-104186152D01*
X140888114Y-104138533D01*
X140840495Y-104043295D01*
X140840495Y-103948057D01*
X140888114Y-103852819D01*
X140935733Y-103805200D01*
X141030971Y-103757580D01*
X141269066Y-103757580D01*
X141411923Y-103805200D01*
X142364304Y-104757580D02*
X141792876Y-104757580D01*
X142078590Y-104757580D02*
X142078590Y-103757580D01*
X141983352Y-103900438D01*
X141888114Y-103995676D01*
X141792876Y-104043295D01*
G04 #@! TO.C,J3*
X163066666Y-111852380D02*
X163066666Y-112566666D01*
X163019047Y-112709523D01*
X162923809Y-112804761D01*
X162780952Y-112852380D01*
X162685714Y-112852380D01*
X163447619Y-111852380D02*
X164066666Y-111852380D01*
X163733333Y-112233333D01*
X163876190Y-112233333D01*
X163971428Y-112280952D01*
X164019047Y-112328571D01*
X164066666Y-112423809D01*
X164066666Y-112661904D01*
X164019047Y-112757142D01*
X163971428Y-112804761D01*
X163876190Y-112852380D01*
X163590476Y-112852380D01*
X163495238Y-112804761D01*
X163447619Y-112757142D01*
G04 #@! TO.C,U1*
X154209095Y-142149780D02*
X154209095Y-142959304D01*
X154256714Y-143054542D01*
X154304333Y-143102161D01*
X154399571Y-143149780D01*
X154590047Y-143149780D01*
X154685285Y-143102161D01*
X154732904Y-143054542D01*
X154780523Y-142959304D01*
X154780523Y-142149780D01*
X155780523Y-143149780D02*
X155209095Y-143149780D01*
X155494809Y-143149780D02*
X155494809Y-142149780D01*
X155399571Y-142292638D01*
X155304333Y-142387876D01*
X155209095Y-142435495D01*
G04 #@! TO.C,R3*
X139411733Y-118168780D02*
X139078400Y-117692590D01*
X138840304Y-118168780D02*
X138840304Y-117168780D01*
X139221257Y-117168780D01*
X139316495Y-117216400D01*
X139364114Y-117264019D01*
X139411733Y-117359257D01*
X139411733Y-117502114D01*
X139364114Y-117597352D01*
X139316495Y-117644971D01*
X139221257Y-117692590D01*
X138840304Y-117692590D01*
X139745066Y-117168780D02*
X140364114Y-117168780D01*
X140030780Y-117549733D01*
X140173638Y-117549733D01*
X140268876Y-117597352D01*
X140316495Y-117644971D01*
X140364114Y-117740209D01*
X140364114Y-117978304D01*
X140316495Y-118073542D01*
X140268876Y-118121161D01*
X140173638Y-118168780D01*
X139887923Y-118168780D01*
X139792685Y-118121161D01*
X139745066Y-118073542D01*
G04 #@! TO.C,J4*
D13*
X152510628Y-107505600D02*
X153599200Y-107505600D01*
X153816914Y-107578171D01*
X153962057Y-107723314D01*
X154034628Y-107941028D01*
X154034628Y-108086171D01*
X153018628Y-106126742D02*
X154034628Y-106126742D01*
X152438057Y-106489600D02*
X153526628Y-106852457D01*
X153526628Y-105909028D01*
G04 #@! TO.C,C1*
D11*
X158833333Y-142557142D02*
X158785714Y-142604761D01*
X158642857Y-142652380D01*
X158547619Y-142652380D01*
X158404761Y-142604761D01*
X158309523Y-142509523D01*
X158261904Y-142414285D01*
X158214285Y-142223809D01*
X158214285Y-142080952D01*
X158261904Y-141890476D01*
X158309523Y-141795238D01*
X158404761Y-141700000D01*
X158547619Y-141652380D01*
X158642857Y-141652380D01*
X158785714Y-141700000D01*
X158833333Y-141747619D01*
X159785714Y-142652380D02*
X159214285Y-142652380D01*
X159500000Y-142652380D02*
X159500000Y-141652380D01*
X159404761Y-141795238D01*
X159309523Y-141890476D01*
X159214285Y-141938095D01*
G04 #@! TO.C,R4*
X148733333Y-143802380D02*
X148400000Y-143326190D01*
X148161904Y-143802380D02*
X148161904Y-142802380D01*
X148542857Y-142802380D01*
X148638095Y-142850000D01*
X148685714Y-142897619D01*
X148733333Y-142992857D01*
X148733333Y-143135714D01*
X148685714Y-143230952D01*
X148638095Y-143278571D01*
X148542857Y-143326190D01*
X148161904Y-143326190D01*
X149590476Y-143135714D02*
X149590476Y-143802380D01*
X149352380Y-142754761D02*
X149114285Y-143469047D01*
X149733333Y-143469047D01*
G04 #@! TO.C,J5*
X145138066Y-145197780D02*
X145138066Y-145912066D01*
X145090447Y-146054923D01*
X144995209Y-146150161D01*
X144852352Y-146197780D01*
X144757114Y-146197780D01*
X146090447Y-145197780D02*
X145614257Y-145197780D01*
X145566638Y-145673971D01*
X145614257Y-145626352D01*
X145709495Y-145578733D01*
X145947590Y-145578733D01*
X146042828Y-145626352D01*
X146090447Y-145673971D01*
X146138066Y-145769209D01*
X146138066Y-146007304D01*
X146090447Y-146102542D01*
X146042828Y-146150161D01*
X145947590Y-146197780D01*
X145709495Y-146197780D01*
X145614257Y-146150161D01*
X145566638Y-146102542D01*
G04 #@! TO.C,J2*
X163066666Y-124252380D02*
X163066666Y-124966666D01*
X163019047Y-125109523D01*
X162923809Y-125204761D01*
X162780952Y-125252380D01*
X162685714Y-125252380D01*
X163495238Y-124347619D02*
X163542857Y-124300000D01*
X163638095Y-124252380D01*
X163876190Y-124252380D01*
X163971428Y-124300000D01*
X164019047Y-124347619D01*
X164066666Y-124442857D01*
X164066666Y-124538095D01*
X164019047Y-124680952D01*
X163447619Y-125252380D01*
X164066666Y-125252380D01*
G04 #@! TO.C,U2*
X137343295Y-109142380D02*
X137343295Y-109951904D01*
X137390914Y-110047142D01*
X137438533Y-110094761D01*
X137533771Y-110142380D01*
X137724247Y-110142380D01*
X137819485Y-110094761D01*
X137867104Y-110047142D01*
X137914723Y-109951904D01*
X137914723Y-109142380D01*
X138343295Y-109237619D02*
X138390914Y-109190000D01*
X138486152Y-109142380D01*
X138724247Y-109142380D01*
X138819485Y-109190000D01*
X138867104Y-109237619D01*
X138914723Y-109332857D01*
X138914723Y-109428095D01*
X138867104Y-109570952D01*
X138295676Y-110142380D01*
X138914723Y-110142380D01*
G04 #@! TO.C,R1*
X158833333Y-140622380D02*
X158500000Y-140146190D01*
X158261904Y-140622380D02*
X158261904Y-139622380D01*
X158642857Y-139622380D01*
X158738095Y-139670000D01*
X158785714Y-139717619D01*
X158833333Y-139812857D01*
X158833333Y-139955714D01*
X158785714Y-140050952D01*
X158738095Y-140098571D01*
X158642857Y-140146190D01*
X158261904Y-140146190D01*
X159785714Y-140622380D02*
X159214285Y-140622380D01*
X159500000Y-140622380D02*
X159500000Y-139622380D01*
X159404761Y-139765238D01*
X159309523Y-139860476D01*
X159214285Y-139908095D01*
G04 #@! TO.C,C2*
X149012933Y-127319142D02*
X148965314Y-127366761D01*
X148822457Y-127414380D01*
X148727219Y-127414380D01*
X148584361Y-127366761D01*
X148489123Y-127271523D01*
X148441504Y-127176285D01*
X148393885Y-126985809D01*
X148393885Y-126842952D01*
X148441504Y-126652476D01*
X148489123Y-126557238D01*
X148584361Y-126462000D01*
X148727219Y-126414380D01*
X148822457Y-126414380D01*
X148965314Y-126462000D01*
X149012933Y-126509619D01*
X149393885Y-126509619D02*
X149441504Y-126462000D01*
X149536742Y-126414380D01*
X149774838Y-126414380D01*
X149870076Y-126462000D01*
X149917695Y-126509619D01*
X149965314Y-126604857D01*
X149965314Y-126700095D01*
X149917695Y-126842952D01*
X149346266Y-127414380D01*
X149965314Y-127414380D01*
G04 #@! TO.C,J1*
X134165266Y-145121580D02*
X134165266Y-145835866D01*
X134117647Y-145978723D01*
X134022409Y-146073961D01*
X133879552Y-146121580D01*
X133784314Y-146121580D01*
X135165266Y-146121580D02*
X134593838Y-146121580D01*
X134879552Y-146121580D02*
X134879552Y-145121580D01*
X134784314Y-145264438D01*
X134689076Y-145359676D01*
X134593838Y-145407295D01*
G04 #@! TO.C,R2*
X139360933Y-123604380D02*
X139027600Y-123128190D01*
X138789504Y-123604380D02*
X138789504Y-122604380D01*
X139170457Y-122604380D01*
X139265695Y-122652000D01*
X139313314Y-122699619D01*
X139360933Y-122794857D01*
X139360933Y-122937714D01*
X139313314Y-123032952D01*
X139265695Y-123080571D01*
X139170457Y-123128190D01*
X138789504Y-123128190D01*
X139741885Y-122699619D02*
X139789504Y-122652000D01*
X139884742Y-122604380D01*
X140122838Y-122604380D01*
X140218076Y-122652000D01*
X140265695Y-122699619D01*
X140313314Y-122794857D01*
X140313314Y-122890095D01*
X140265695Y-123032952D01*
X139694266Y-123604380D01*
X140313314Y-123604380D01*
G04 #@! TO.C,U3*
X145649095Y-118469380D02*
X145649095Y-119278904D01*
X145696714Y-119374142D01*
X145744333Y-119421761D01*
X145839571Y-119469380D01*
X146030047Y-119469380D01*
X146125285Y-119421761D01*
X146172904Y-119374142D01*
X146220523Y-119278904D01*
X146220523Y-118469380D01*
X146601476Y-118469380D02*
X147220523Y-118469380D01*
X146887190Y-118850333D01*
X147030047Y-118850333D01*
X147125285Y-118897952D01*
X147172904Y-118945571D01*
X147220523Y-119040809D01*
X147220523Y-119278904D01*
X147172904Y-119374142D01*
X147125285Y-119421761D01*
X147030047Y-119469380D01*
X146744333Y-119469380D01*
X146649095Y-119421761D01*
X146601476Y-119374142D01*
G04 #@! TO.C,U1*
X121209095Y-142149780D02*
X121209095Y-142959304D01*
X121256714Y-143054542D01*
X121304333Y-143102161D01*
X121399571Y-143149780D01*
X121590047Y-143149780D01*
X121685285Y-143102161D01*
X121732904Y-143054542D01*
X121780523Y-142959304D01*
X121780523Y-142149780D01*
X122780523Y-143149780D02*
X122209095Y-143149780D01*
X122494809Y-143149780D02*
X122494809Y-142149780D01*
X122399571Y-142292638D01*
X122304333Y-142387876D01*
X122209095Y-142435495D01*
G04 #@! TO.C,U3*
X112649095Y-118469380D02*
X112649095Y-119278904D01*
X112696714Y-119374142D01*
X112744333Y-119421761D01*
X112839571Y-119469380D01*
X113030047Y-119469380D01*
X113125285Y-119421761D01*
X113172904Y-119374142D01*
X113220523Y-119278904D01*
X113220523Y-118469380D01*
X113601476Y-118469380D02*
X114220523Y-118469380D01*
X113887190Y-118850333D01*
X114030047Y-118850333D01*
X114125285Y-118897952D01*
X114172904Y-118945571D01*
X114220523Y-119040809D01*
X114220523Y-119278904D01*
X114172904Y-119374142D01*
X114125285Y-119421761D01*
X114030047Y-119469380D01*
X113744333Y-119469380D01*
X113649095Y-119421761D01*
X113601476Y-119374142D01*
G04 #@! TO.C,J4*
D13*
X119510628Y-107505600D02*
X120599200Y-107505600D01*
X120816914Y-107578171D01*
X120962057Y-107723314D01*
X121034628Y-107941028D01*
X121034628Y-108086171D01*
X120018628Y-106126742D02*
X121034628Y-106126742D01*
X119438057Y-106489600D02*
X120526628Y-106852457D01*
X120526628Y-105909028D01*
G04 #@! TO.C,C1*
D11*
X125833333Y-142557142D02*
X125785714Y-142604761D01*
X125642857Y-142652380D01*
X125547619Y-142652380D01*
X125404761Y-142604761D01*
X125309523Y-142509523D01*
X125261904Y-142414285D01*
X125214285Y-142223809D01*
X125214285Y-142080952D01*
X125261904Y-141890476D01*
X125309523Y-141795238D01*
X125404761Y-141700000D01*
X125547619Y-141652380D01*
X125642857Y-141652380D01*
X125785714Y-141700000D01*
X125833333Y-141747619D01*
X126785714Y-142652380D02*
X126214285Y-142652380D01*
X126500000Y-142652380D02*
X126500000Y-141652380D01*
X126404761Y-141795238D01*
X126309523Y-141890476D01*
X126214285Y-141938095D01*
G04 #@! TO.C,J2*
X130066666Y-124252380D02*
X130066666Y-124966666D01*
X130019047Y-125109523D01*
X129923809Y-125204761D01*
X129780952Y-125252380D01*
X129685714Y-125252380D01*
X130495238Y-124347619D02*
X130542857Y-124300000D01*
X130638095Y-124252380D01*
X130876190Y-124252380D01*
X130971428Y-124300000D01*
X131019047Y-124347619D01*
X131066666Y-124442857D01*
X131066666Y-124538095D01*
X131019047Y-124680952D01*
X130447619Y-125252380D01*
X131066666Y-125252380D01*
G04 #@! TO.C,J3*
X130066666Y-111852380D02*
X130066666Y-112566666D01*
X130019047Y-112709523D01*
X129923809Y-112804761D01*
X129780952Y-112852380D01*
X129685714Y-112852380D01*
X130447619Y-111852380D02*
X131066666Y-111852380D01*
X130733333Y-112233333D01*
X130876190Y-112233333D01*
X130971428Y-112280952D01*
X131019047Y-112328571D01*
X131066666Y-112423809D01*
X131066666Y-112661904D01*
X131019047Y-112757142D01*
X130971428Y-112804761D01*
X130876190Y-112852380D01*
X130590476Y-112852380D01*
X130495238Y-112804761D01*
X130447619Y-112757142D01*
G04 #@! TO.C,R1*
X125833333Y-140622380D02*
X125500000Y-140146190D01*
X125261904Y-140622380D02*
X125261904Y-139622380D01*
X125642857Y-139622380D01*
X125738095Y-139670000D01*
X125785714Y-139717619D01*
X125833333Y-139812857D01*
X125833333Y-139955714D01*
X125785714Y-140050952D01*
X125738095Y-140098571D01*
X125642857Y-140146190D01*
X125261904Y-140146190D01*
X126785714Y-140622380D02*
X126214285Y-140622380D01*
X126500000Y-140622380D02*
X126500000Y-139622380D01*
X126404761Y-139765238D01*
X126309523Y-139860476D01*
X126214285Y-139908095D01*
G04 #@! TO.C,U2*
X104343295Y-109142380D02*
X104343295Y-109951904D01*
X104390914Y-110047142D01*
X104438533Y-110094761D01*
X104533771Y-110142380D01*
X104724247Y-110142380D01*
X104819485Y-110094761D01*
X104867104Y-110047142D01*
X104914723Y-109951904D01*
X104914723Y-109142380D01*
X105343295Y-109237619D02*
X105390914Y-109190000D01*
X105486152Y-109142380D01*
X105724247Y-109142380D01*
X105819485Y-109190000D01*
X105867104Y-109237619D01*
X105914723Y-109332857D01*
X105914723Y-109428095D01*
X105867104Y-109570952D01*
X105295676Y-110142380D01*
X105914723Y-110142380D01*
G04 #@! TO.C,C2*
X116012933Y-127319142D02*
X115965314Y-127366761D01*
X115822457Y-127414380D01*
X115727219Y-127414380D01*
X115584361Y-127366761D01*
X115489123Y-127271523D01*
X115441504Y-127176285D01*
X115393885Y-126985809D01*
X115393885Y-126842952D01*
X115441504Y-126652476D01*
X115489123Y-126557238D01*
X115584361Y-126462000D01*
X115727219Y-126414380D01*
X115822457Y-126414380D01*
X115965314Y-126462000D01*
X116012933Y-126509619D01*
X116393885Y-126509619D02*
X116441504Y-126462000D01*
X116536742Y-126414380D01*
X116774838Y-126414380D01*
X116870076Y-126462000D01*
X116917695Y-126509619D01*
X116965314Y-126604857D01*
X116965314Y-126700095D01*
X116917695Y-126842952D01*
X116346266Y-127414380D01*
X116965314Y-127414380D01*
G04 #@! TO.C,J1*
X101165266Y-145121580D02*
X101165266Y-145835866D01*
X101117647Y-145978723D01*
X101022409Y-146073961D01*
X100879552Y-146121580D01*
X100784314Y-146121580D01*
X102165266Y-146121580D02*
X101593838Y-146121580D01*
X101879552Y-146121580D02*
X101879552Y-145121580D01*
X101784314Y-145264438D01*
X101689076Y-145359676D01*
X101593838Y-145407295D01*
G04 #@! TO.C,R3*
X106411733Y-118168780D02*
X106078400Y-117692590D01*
X105840304Y-118168780D02*
X105840304Y-117168780D01*
X106221257Y-117168780D01*
X106316495Y-117216400D01*
X106364114Y-117264019D01*
X106411733Y-117359257D01*
X106411733Y-117502114D01*
X106364114Y-117597352D01*
X106316495Y-117644971D01*
X106221257Y-117692590D01*
X105840304Y-117692590D01*
X106745066Y-117168780D02*
X107364114Y-117168780D01*
X107030780Y-117549733D01*
X107173638Y-117549733D01*
X107268876Y-117597352D01*
X107316495Y-117644971D01*
X107364114Y-117740209D01*
X107364114Y-117978304D01*
X107316495Y-118073542D01*
X107268876Y-118121161D01*
X107173638Y-118168780D01*
X106887923Y-118168780D01*
X106792685Y-118121161D01*
X106745066Y-118073542D01*
G04 #@! TO.C,R2*
X106360933Y-123604380D02*
X106027600Y-123128190D01*
X105789504Y-123604380D02*
X105789504Y-122604380D01*
X106170457Y-122604380D01*
X106265695Y-122652000D01*
X106313314Y-122699619D01*
X106360933Y-122794857D01*
X106360933Y-122937714D01*
X106313314Y-123032952D01*
X106265695Y-123080571D01*
X106170457Y-123128190D01*
X105789504Y-123128190D01*
X106741885Y-122699619D02*
X106789504Y-122652000D01*
X106884742Y-122604380D01*
X107122838Y-122604380D01*
X107218076Y-122652000D01*
X107265695Y-122699619D01*
X107313314Y-122794857D01*
X107313314Y-122890095D01*
X107265695Y-123032952D01*
X106694266Y-123604380D01*
X107313314Y-123604380D01*
G04 #@! TO.C,PS1*
X106888114Y-104757580D02*
X106888114Y-103757580D01*
X107269066Y-103757580D01*
X107364304Y-103805200D01*
X107411923Y-103852819D01*
X107459542Y-103948057D01*
X107459542Y-104090914D01*
X107411923Y-104186152D01*
X107364304Y-104233771D01*
X107269066Y-104281390D01*
X106888114Y-104281390D01*
X107840495Y-104709961D02*
X107983352Y-104757580D01*
X108221447Y-104757580D01*
X108316685Y-104709961D01*
X108364304Y-104662342D01*
X108411923Y-104567104D01*
X108411923Y-104471866D01*
X108364304Y-104376628D01*
X108316685Y-104329009D01*
X108221447Y-104281390D01*
X108030971Y-104233771D01*
X107935733Y-104186152D01*
X107888114Y-104138533D01*
X107840495Y-104043295D01*
X107840495Y-103948057D01*
X107888114Y-103852819D01*
X107935733Y-103805200D01*
X108030971Y-103757580D01*
X108269066Y-103757580D01*
X108411923Y-103805200D01*
X109364304Y-104757580D02*
X108792876Y-104757580D01*
X109078590Y-104757580D02*
X109078590Y-103757580D01*
X108983352Y-103900438D01*
X108888114Y-103995676D01*
X108792876Y-104043295D01*
G04 #@! TO.C,J5*
X112138066Y-145197780D02*
X112138066Y-145912066D01*
X112090447Y-146054923D01*
X111995209Y-146150161D01*
X111852352Y-146197780D01*
X111757114Y-146197780D01*
X113090447Y-145197780D02*
X112614257Y-145197780D01*
X112566638Y-145673971D01*
X112614257Y-145626352D01*
X112709495Y-145578733D01*
X112947590Y-145578733D01*
X113042828Y-145626352D01*
X113090447Y-145673971D01*
X113138066Y-145769209D01*
X113138066Y-146007304D01*
X113090447Y-146102542D01*
X113042828Y-146150161D01*
X112947590Y-146197780D01*
X112709495Y-146197780D01*
X112614257Y-146150161D01*
X112566638Y-146102542D01*
G04 #@! TO.C,R4*
X115733333Y-143802380D02*
X115400000Y-143326190D01*
X115161904Y-143802380D02*
X115161904Y-142802380D01*
X115542857Y-142802380D01*
X115638095Y-142850000D01*
X115685714Y-142897619D01*
X115733333Y-142992857D01*
X115733333Y-143135714D01*
X115685714Y-143230952D01*
X115638095Y-143278571D01*
X115542857Y-143326190D01*
X115161904Y-143326190D01*
X116590476Y-143135714D02*
X116590476Y-143802380D01*
X116352380Y-142754761D02*
X116114285Y-143469047D01*
X116733333Y-143469047D01*
G04 #@! TD*
%LPC*%
D14*
G04 #@! TO.C,PS1*
X116900000Y-51500000D03*
X101910000Y-51500000D03*
X122000000Y-51500000D03*
X104450000Y-51500000D03*
G04 #@! TD*
D15*
G04 #@! TO.C,C2*
X147157000Y-76708000D03*
X145157000Y-76708000D03*
G04 #@! TD*
D16*
G04 #@! TO.C,U2*
X158222000Y-68834000D03*
X135362000Y-68834000D03*
X158222000Y-71374000D03*
X135362000Y-71374000D03*
X158222000Y-73914000D03*
X135362000Y-73914000D03*
X158222000Y-76454000D03*
X135362000Y-76454000D03*
X158222000Y-78994000D03*
X135362000Y-78994000D03*
X158222000Y-81534000D03*
X135362000Y-81534000D03*
X158222000Y-84074000D03*
X135362000Y-84074000D03*
X158222000Y-86614000D03*
X135362000Y-86614000D03*
G04 #@! TD*
D17*
G04 #@! TO.C,R3*
X171603000Y-71374000D03*
X173503000Y-71374000D03*
G04 #@! TD*
G04 #@! TO.C,R1*
X163871000Y-90170000D03*
X161971000Y-90170000D03*
G04 #@! TD*
G04 #@! TO.C,R4*
X147950000Y-95000000D03*
X149850000Y-95000000D03*
G04 #@! TD*
G04 #@! TO.C,R3*
X140503000Y-71374000D03*
X138603000Y-71374000D03*
G04 #@! TD*
D18*
G04 #@! TO.C,J3*
X130429000Y-66120000D03*
X130429000Y-68620000D03*
D19*
X130429000Y-71120000D03*
G04 #@! TD*
D20*
G04 #@! TO.C,J1*
X142601000Y-97917000D03*
X140061000Y-97917000D03*
X137521000Y-97917000D03*
D21*
X134981000Y-97917000D03*
G04 #@! TD*
D15*
G04 #@! TO.C,C1*
X196921000Y-92202000D03*
X194921000Y-92202000D03*
G04 #@! TD*
D22*
G04 #@! TO.C,U1*
X122586000Y-97976000D03*
X122586000Y-95436000D03*
X125126000Y-97976000D03*
X125126000Y-95436000D03*
X127666000Y-97976000D03*
X127666000Y-95436000D03*
X130206000Y-97976000D03*
D23*
X130206000Y-95436000D03*
G04 #@! TD*
D17*
G04 #@! TO.C,R4*
X182850000Y-95000000D03*
X180950000Y-95000000D03*
G04 #@! TD*
G04 #@! TO.C,R3*
X105603000Y-71374000D03*
X107503000Y-71374000D03*
G04 #@! TD*
D18*
G04 #@! TO.C,J3*
X196429000Y-66120000D03*
X196429000Y-68620000D03*
D19*
X196429000Y-71120000D03*
G04 #@! TD*
D24*
G04 #@! TO.C,J4*
X128270000Y-57658000D03*
D25*
X128270000Y-52578000D03*
G04 #@! TD*
D15*
G04 #@! TO.C,C1*
X130921000Y-92202000D03*
X128921000Y-92202000D03*
G04 #@! TD*
D17*
G04 #@! TO.C,R4*
X116850000Y-95000000D03*
X114950000Y-95000000D03*
G04 #@! TD*
D16*
G04 #@! TO.C,U2*
X168362000Y-86614000D03*
X191222000Y-86614000D03*
X168362000Y-84074000D03*
X191222000Y-84074000D03*
X168362000Y-81534000D03*
X191222000Y-81534000D03*
X168362000Y-78994000D03*
X191222000Y-78994000D03*
X168362000Y-76454000D03*
X191222000Y-76454000D03*
X168362000Y-73914000D03*
X191222000Y-73914000D03*
X168362000Y-71374000D03*
X191222000Y-71374000D03*
X168362000Y-68834000D03*
X191222000Y-68834000D03*
G04 #@! TD*
D20*
G04 #@! TO.C,J5*
X118240000Y-97900000D03*
X115700000Y-97900000D03*
D21*
X113160000Y-97900000D03*
G04 #@! TD*
D18*
G04 #@! TO.C,J2*
X130429000Y-78479000D03*
X130429000Y-80979000D03*
X130429000Y-83479000D03*
D19*
X130429000Y-85979000D03*
G04 #@! TD*
D16*
G04 #@! TO.C,U2*
X102362000Y-86614000D03*
X125222000Y-86614000D03*
X102362000Y-84074000D03*
X125222000Y-84074000D03*
X102362000Y-81534000D03*
X125222000Y-81534000D03*
X102362000Y-78994000D03*
X125222000Y-78994000D03*
X102362000Y-76454000D03*
X125222000Y-76454000D03*
X102362000Y-73914000D03*
X125222000Y-73914000D03*
X102362000Y-71374000D03*
X125222000Y-71374000D03*
X102362000Y-68834000D03*
X125222000Y-68834000D03*
G04 #@! TD*
D25*
G04 #@! TO.C,J4*
X161270000Y-52578000D03*
D24*
X161270000Y-57658000D03*
G04 #@! TD*
D17*
G04 #@! TO.C,R1*
X128971000Y-90170000D03*
X130871000Y-90170000D03*
G04 #@! TD*
D15*
G04 #@! TO.C,C2*
X112157000Y-76708000D03*
X114157000Y-76708000D03*
G04 #@! TD*
G04 #@! TO.C,C1*
X161921000Y-92202000D03*
X163921000Y-92202000D03*
G04 #@! TD*
D24*
G04 #@! TO.C,J4*
X194270000Y-57658000D03*
D25*
X194270000Y-52578000D03*
G04 #@! TD*
D14*
G04 #@! TO.C,PS1*
X137450000Y-51500000D03*
X155000000Y-51500000D03*
X134910000Y-51500000D03*
X149900000Y-51500000D03*
G04 #@! TD*
G04 #@! TO.C,PS1*
X182900000Y-51500000D03*
X167910000Y-51500000D03*
X188000000Y-51500000D03*
X170450000Y-51500000D03*
G04 #@! TD*
D21*
G04 #@! TO.C,J1*
X101981000Y-97917000D03*
D20*
X104521000Y-97917000D03*
X107061000Y-97917000D03*
X109601000Y-97917000D03*
G04 #@! TD*
D17*
G04 #@! TO.C,R1*
X194971000Y-90170000D03*
X196871000Y-90170000D03*
G04 #@! TD*
G04 #@! TO.C,R2*
X105603000Y-69469000D03*
X107503000Y-69469000D03*
G04 #@! TD*
G04 #@! TO.C,R2*
X171603000Y-69469000D03*
X173503000Y-69469000D03*
G04 #@! TD*
D15*
G04 #@! TO.C,C2*
X178157000Y-76708000D03*
X180157000Y-76708000D03*
G04 #@! TD*
D26*
G04 #@! TO.C,U3*
X149111000Y-70612000D03*
X149111000Y-71882000D03*
X149111000Y-73152000D03*
X149111000Y-74422000D03*
X143711000Y-74422000D03*
X143711000Y-73152000D03*
X143711000Y-71882000D03*
X143711000Y-70612000D03*
G04 #@! TD*
G04 #@! TO.C,U3*
X110711000Y-70612000D03*
X110711000Y-71882000D03*
X110711000Y-73152000D03*
X110711000Y-74422000D03*
X116111000Y-74422000D03*
X116111000Y-73152000D03*
X116111000Y-71882000D03*
X116111000Y-70612000D03*
G04 #@! TD*
D23*
G04 #@! TO.C,U1*
X163206000Y-95436000D03*
D22*
X163206000Y-97976000D03*
X160666000Y-95436000D03*
X160666000Y-97976000D03*
X158126000Y-95436000D03*
X158126000Y-97976000D03*
X155586000Y-95436000D03*
X155586000Y-97976000D03*
G04 #@! TD*
D20*
G04 #@! TO.C,J5*
X184240000Y-97900000D03*
X181700000Y-97900000D03*
D21*
X179160000Y-97900000D03*
G04 #@! TD*
D18*
G04 #@! TO.C,J2*
X196429000Y-78479000D03*
X196429000Y-80979000D03*
X196429000Y-83479000D03*
D19*
X196429000Y-85979000D03*
G04 #@! TD*
D17*
G04 #@! TO.C,R2*
X140503000Y-69469000D03*
X138603000Y-69469000D03*
G04 #@! TD*
D21*
G04 #@! TO.C,J5*
X146160000Y-97900000D03*
D20*
X148700000Y-97900000D03*
X151240000Y-97900000D03*
G04 #@! TD*
D22*
G04 #@! TO.C,U1*
X188586000Y-97976000D03*
X188586000Y-95436000D03*
X191126000Y-97976000D03*
X191126000Y-95436000D03*
X193666000Y-97976000D03*
X193666000Y-95436000D03*
X196206000Y-97976000D03*
D23*
X196206000Y-95436000D03*
G04 #@! TD*
D19*
G04 #@! TO.C,J3*
X163429000Y-71120000D03*
D18*
X163429000Y-68620000D03*
X163429000Y-66120000D03*
G04 #@! TD*
D21*
G04 #@! TO.C,J1*
X167981000Y-97917000D03*
D20*
X170521000Y-97917000D03*
X173061000Y-97917000D03*
X175601000Y-97917000D03*
G04 #@! TD*
D26*
G04 #@! TO.C,U3*
X176711000Y-70612000D03*
X176711000Y-71882000D03*
X176711000Y-73152000D03*
X176711000Y-74422000D03*
X182111000Y-74422000D03*
X182111000Y-73152000D03*
X182111000Y-71882000D03*
X182111000Y-70612000D03*
G04 #@! TD*
D19*
G04 #@! TO.C,J2*
X163429000Y-85979000D03*
D18*
X163429000Y-83479000D03*
X163429000Y-80979000D03*
X163429000Y-78479000D03*
G04 #@! TD*
D15*
G04 #@! TO.C,C2*
X180157000Y-126708000D03*
X178157000Y-126708000D03*
G04 #@! TD*
D16*
G04 #@! TO.C,U2*
X191222000Y-118834000D03*
X168362000Y-118834000D03*
X191222000Y-121374000D03*
X168362000Y-121374000D03*
X191222000Y-123914000D03*
X168362000Y-123914000D03*
X191222000Y-126454000D03*
X168362000Y-126454000D03*
X191222000Y-128994000D03*
X168362000Y-128994000D03*
X191222000Y-131534000D03*
X168362000Y-131534000D03*
X191222000Y-134074000D03*
X168362000Y-134074000D03*
X191222000Y-136614000D03*
X168362000Y-136614000D03*
G04 #@! TD*
D17*
G04 #@! TO.C,R1*
X196871000Y-140170000D03*
X194971000Y-140170000D03*
G04 #@! TD*
G04 #@! TO.C,R4*
X180950000Y-145000000D03*
X182850000Y-145000000D03*
G04 #@! TD*
G04 #@! TO.C,R3*
X173503000Y-121374000D03*
X171603000Y-121374000D03*
G04 #@! TD*
D20*
G04 #@! TO.C,J1*
X175601000Y-147917000D03*
X173061000Y-147917000D03*
X170521000Y-147917000D03*
D21*
X167981000Y-147917000D03*
G04 #@! TD*
D25*
G04 #@! TO.C,J4*
X194270000Y-102578000D03*
D24*
X194270000Y-107658000D03*
G04 #@! TD*
D15*
G04 #@! TO.C,C1*
X194921000Y-142202000D03*
X196921000Y-142202000D03*
G04 #@! TD*
D14*
G04 #@! TO.C,PS1*
X170450000Y-101500000D03*
X188000000Y-101500000D03*
X167910000Y-101500000D03*
X182900000Y-101500000D03*
G04 #@! TD*
D26*
G04 #@! TO.C,U3*
X182111000Y-120612000D03*
X182111000Y-121882000D03*
X182111000Y-123152000D03*
X182111000Y-124422000D03*
X176711000Y-124422000D03*
X176711000Y-123152000D03*
X176711000Y-121882000D03*
X176711000Y-120612000D03*
G04 #@! TD*
D23*
G04 #@! TO.C,U1*
X196206000Y-145436000D03*
D22*
X196206000Y-147976000D03*
X193666000Y-145436000D03*
X193666000Y-147976000D03*
X191126000Y-145436000D03*
X191126000Y-147976000D03*
X188586000Y-145436000D03*
X188586000Y-147976000D03*
G04 #@! TD*
D17*
G04 #@! TO.C,R2*
X173503000Y-119469000D03*
X171603000Y-119469000D03*
G04 #@! TD*
D21*
G04 #@! TO.C,J5*
X179160000Y-147900000D03*
D20*
X181700000Y-147900000D03*
X184240000Y-147900000D03*
G04 #@! TD*
D19*
G04 #@! TO.C,J3*
X196429000Y-121120000D03*
D18*
X196429000Y-118620000D03*
X196429000Y-116120000D03*
G04 #@! TD*
D19*
G04 #@! TO.C,J2*
X196429000Y-135979000D03*
D18*
X196429000Y-133479000D03*
X196429000Y-130979000D03*
X196429000Y-128479000D03*
G04 #@! TD*
D14*
G04 #@! TO.C,PS1*
X149900000Y-101500000D03*
X134910000Y-101500000D03*
X155000000Y-101500000D03*
X137450000Y-101500000D03*
G04 #@! TD*
D18*
G04 #@! TO.C,J3*
X163429000Y-116120000D03*
X163429000Y-118620000D03*
D19*
X163429000Y-121120000D03*
G04 #@! TD*
D22*
G04 #@! TO.C,U1*
X155586000Y-147976000D03*
X155586000Y-145436000D03*
X158126000Y-147976000D03*
X158126000Y-145436000D03*
X160666000Y-147976000D03*
X160666000Y-145436000D03*
X163206000Y-147976000D03*
D23*
X163206000Y-145436000D03*
G04 #@! TD*
D17*
G04 #@! TO.C,R3*
X138603000Y-121374000D03*
X140503000Y-121374000D03*
G04 #@! TD*
D24*
G04 #@! TO.C,J4*
X161270000Y-107658000D03*
D25*
X161270000Y-102578000D03*
G04 #@! TD*
D15*
G04 #@! TO.C,C1*
X163921000Y-142202000D03*
X161921000Y-142202000D03*
G04 #@! TD*
D17*
G04 #@! TO.C,R4*
X149850000Y-145000000D03*
X147950000Y-145000000D03*
G04 #@! TD*
D20*
G04 #@! TO.C,J5*
X151240000Y-147900000D03*
X148700000Y-147900000D03*
D21*
X146160000Y-147900000D03*
G04 #@! TD*
D18*
G04 #@! TO.C,J2*
X163429000Y-128479000D03*
X163429000Y-130979000D03*
X163429000Y-133479000D03*
D19*
X163429000Y-135979000D03*
G04 #@! TD*
D16*
G04 #@! TO.C,U2*
X135362000Y-136614000D03*
X158222000Y-136614000D03*
X135362000Y-134074000D03*
X158222000Y-134074000D03*
X135362000Y-131534000D03*
X158222000Y-131534000D03*
X135362000Y-128994000D03*
X158222000Y-128994000D03*
X135362000Y-126454000D03*
X158222000Y-126454000D03*
X135362000Y-123914000D03*
X158222000Y-123914000D03*
X135362000Y-121374000D03*
X158222000Y-121374000D03*
X135362000Y-118834000D03*
X158222000Y-118834000D03*
G04 #@! TD*
D17*
G04 #@! TO.C,R1*
X161971000Y-140170000D03*
X163871000Y-140170000D03*
G04 #@! TD*
D15*
G04 #@! TO.C,C2*
X145157000Y-126708000D03*
X147157000Y-126708000D03*
G04 #@! TD*
D21*
G04 #@! TO.C,J1*
X134981000Y-147917000D03*
D20*
X137521000Y-147917000D03*
X140061000Y-147917000D03*
X142601000Y-147917000D03*
G04 #@! TD*
D17*
G04 #@! TO.C,R2*
X138603000Y-119469000D03*
X140503000Y-119469000D03*
G04 #@! TD*
D26*
G04 #@! TO.C,U3*
X143711000Y-120612000D03*
X143711000Y-121882000D03*
X143711000Y-123152000D03*
X143711000Y-124422000D03*
X149111000Y-124422000D03*
X149111000Y-123152000D03*
X149111000Y-121882000D03*
X149111000Y-120612000D03*
G04 #@! TD*
D23*
G04 #@! TO.C,U1*
X130206000Y-145436000D03*
D22*
X130206000Y-147976000D03*
X127666000Y-145436000D03*
X127666000Y-147976000D03*
X125126000Y-145436000D03*
X125126000Y-147976000D03*
X122586000Y-145436000D03*
X122586000Y-147976000D03*
G04 #@! TD*
D26*
G04 #@! TO.C,U3*
X116111000Y-120612000D03*
X116111000Y-121882000D03*
X116111000Y-123152000D03*
X116111000Y-124422000D03*
X110711000Y-124422000D03*
X110711000Y-123152000D03*
X110711000Y-121882000D03*
X110711000Y-120612000D03*
G04 #@! TD*
D25*
G04 #@! TO.C,J4*
X128270000Y-102578000D03*
D24*
X128270000Y-107658000D03*
G04 #@! TD*
D15*
G04 #@! TO.C,C1*
X128921000Y-142202000D03*
X130921000Y-142202000D03*
G04 #@! TD*
D19*
G04 #@! TO.C,J2*
X130429000Y-135979000D03*
D18*
X130429000Y-133479000D03*
X130429000Y-130979000D03*
X130429000Y-128479000D03*
G04 #@! TD*
D19*
G04 #@! TO.C,J3*
X130429000Y-121120000D03*
D18*
X130429000Y-118620000D03*
X130429000Y-116120000D03*
G04 #@! TD*
D17*
G04 #@! TO.C,R1*
X130871000Y-140170000D03*
X128971000Y-140170000D03*
G04 #@! TD*
D16*
G04 #@! TO.C,U2*
X125222000Y-118834000D03*
X102362000Y-118834000D03*
X125222000Y-121374000D03*
X102362000Y-121374000D03*
X125222000Y-123914000D03*
X102362000Y-123914000D03*
X125222000Y-126454000D03*
X102362000Y-126454000D03*
X125222000Y-128994000D03*
X102362000Y-128994000D03*
X125222000Y-131534000D03*
X102362000Y-131534000D03*
X125222000Y-134074000D03*
X102362000Y-134074000D03*
X125222000Y-136614000D03*
X102362000Y-136614000D03*
G04 #@! TD*
D15*
G04 #@! TO.C,C2*
X114157000Y-126708000D03*
X112157000Y-126708000D03*
G04 #@! TD*
D20*
G04 #@! TO.C,J1*
X109601000Y-147917000D03*
X107061000Y-147917000D03*
X104521000Y-147917000D03*
D21*
X101981000Y-147917000D03*
G04 #@! TD*
D17*
G04 #@! TO.C,R3*
X107503000Y-121374000D03*
X105603000Y-121374000D03*
G04 #@! TD*
G04 #@! TO.C,R2*
X107503000Y-119469000D03*
X105603000Y-119469000D03*
G04 #@! TD*
D14*
G04 #@! TO.C,PS1*
X104450000Y-101500000D03*
X122000000Y-101500000D03*
X101910000Y-101500000D03*
X116900000Y-101500000D03*
G04 #@! TD*
D21*
G04 #@! TO.C,J5*
X113160000Y-147900000D03*
D20*
X115700000Y-147900000D03*
X118240000Y-147900000D03*
G04 #@! TD*
D17*
G04 #@! TO.C,R4*
X114950000Y-145000000D03*
X116850000Y-145000000D03*
G04 #@! TD*
M02*
