M48
;DRILL file {KiCad 5.0.2-bee76a0~70~ubuntu16.04.1} date Sun 01 Dec 2019 11:56:33 AM CET
;FORMAT={-:-/ absolute / metric / decimal}
FMAT,2
METRIC,TZ
T1C0.400
T2C0.900
T3C1.000
T4C1.016
T5C1.250
%
G90
G05
T1
X108.712Y-73.
X108.712Y-123.
X115.316Y-83.871
X115.316Y-133.871
X116.18Y-84.836
X116.18Y-134.836
X116.738Y-79.299
X116.738Y-129.299
X117.196Y-85.281
X117.196Y-135.281
X118.009Y-86.449
X118.009Y-136.449
X118.313Y-79.4
X118.313Y-129.4
X119.253Y-73.406
X119.253Y-123.406
X119.253Y-81.918
X119.253Y-131.918
X119.685Y-79.388
X119.685Y-129.388
X121.539Y-91.313
X121.539Y-141.313
X125.126Y-91.344
X125.126Y-141.344
X126.746Y-89.256
X126.746Y-139.256
X141.712Y-73.
X141.712Y-123.
X148.316Y-83.871
X148.316Y-133.871
X149.18Y-84.836
X149.18Y-134.836
X149.738Y-79.299
X149.738Y-129.299
X150.196Y-85.281
X150.196Y-135.281
X151.009Y-86.449
X151.009Y-136.449
X151.313Y-79.4
X151.313Y-129.4
X152.253Y-73.406
X152.253Y-123.406
X152.253Y-81.918
X152.253Y-131.918
X152.685Y-79.388
X152.685Y-129.388
X154.539Y-91.313
X154.539Y-141.313
X158.126Y-91.344
X158.126Y-141.344
X159.746Y-89.256
X159.746Y-139.256
X174.712Y-73.
X174.712Y-123.
X181.316Y-83.871
X181.316Y-133.871
X182.18Y-84.836
X182.18Y-134.836
X182.738Y-79.299
X182.738Y-129.299
X183.196Y-85.281
X183.196Y-135.281
X184.009Y-86.449
X184.009Y-136.449
X184.313Y-79.4
X184.313Y-129.4
X185.253Y-73.406
X185.253Y-123.406
X185.253Y-81.918
X185.253Y-131.918
X185.685Y-79.388
X185.685Y-129.388
X187.539Y-91.313
X187.539Y-141.313
X191.126Y-91.344
X191.126Y-141.344
X192.746Y-89.256
X192.746Y-139.256
T2
X163.429Y-116.12
X163.429Y-118.62
X163.429Y-121.12
X130.429Y-116.12
X130.429Y-118.62
X130.429Y-121.12
X196.429Y-66.12
X196.429Y-68.62
X196.429Y-71.12
X163.429Y-66.12
X163.429Y-68.62
X163.429Y-71.12
X130.429Y-128.479
X130.429Y-130.979
X130.429Y-133.479
X130.429Y-135.979
X163.429Y-128.479
X163.429Y-130.979
X163.429Y-133.479
X163.429Y-135.979
X130.429Y-66.12
X130.429Y-68.62
X130.429Y-71.12
X196.429Y-128.479
X196.429Y-130.979
X196.429Y-133.479
X196.429Y-135.979
X196.429Y-116.12
X196.429Y-118.62
X196.429Y-121.12
X196.429Y-78.479
X196.429Y-80.979
X196.429Y-83.479
X196.429Y-85.979
X163.429Y-78.479
X163.429Y-80.979
X163.429Y-83.479
X163.429Y-85.979
X130.429Y-78.479
X130.429Y-80.979
X130.429Y-83.479
X130.429Y-85.979
T3
X113.16Y-97.9
X115.7Y-97.9
X118.24Y-97.9
X167.91Y-101.5
X170.45Y-101.5
X182.9Y-101.5
X188.Y-101.5
X179.16Y-147.9
X181.7Y-147.9
X184.24Y-147.9
X167.981Y-147.917
X170.521Y-147.917
X173.061Y-147.917
X175.601Y-147.917
X167.91Y-51.5
X170.45Y-51.5
X182.9Y-51.5
X188.Y-51.5
X134.91Y-51.5
X137.45Y-51.5
X149.9Y-51.5
X155.Y-51.5
X167.981Y-97.917
X170.521Y-97.917
X173.061Y-97.917
X175.601Y-97.917
X101.91Y-101.5
X104.45Y-101.5
X116.9Y-101.5
X122.Y-101.5
X134.981Y-97.917
X137.521Y-97.917
X140.061Y-97.917
X142.601Y-97.917
X113.16Y-147.9
X115.7Y-147.9
X118.24Y-147.9
X134.981Y-147.917
X137.521Y-147.917
X140.061Y-147.917
X142.601Y-147.917
X146.16Y-147.9
X148.7Y-147.9
X151.24Y-147.9
X179.16Y-97.9
X181.7Y-97.9
X184.24Y-97.9
X101.91Y-51.5
X104.45Y-51.5
X116.9Y-51.5
X122.Y-51.5
X101.981Y-147.917
X104.521Y-147.917
X107.061Y-147.917
X109.601Y-147.917
X101.981Y-97.917
X104.521Y-97.917
X107.061Y-97.917
X109.601Y-97.917
X146.16Y-97.9
X148.7Y-97.9
X151.24Y-97.9
X134.91Y-101.5
X137.45Y-101.5
X149.9Y-101.5
X155.Y-101.5
T4
X155.586Y-145.436
X155.586Y-147.976
X158.126Y-145.436
X158.126Y-147.976
X160.666Y-145.436
X160.666Y-147.976
X163.206Y-145.436
X163.206Y-147.976
X155.586Y-95.436
X155.586Y-97.976
X158.126Y-95.436
X158.126Y-97.976
X160.666Y-95.436
X160.666Y-97.976
X163.206Y-95.436
X163.206Y-97.976
X122.586Y-145.436
X122.586Y-147.976
X125.126Y-145.436
X125.126Y-147.976
X127.666Y-145.436
X127.666Y-147.976
X130.206Y-145.436
X130.206Y-147.976
X102.362Y-118.834
X102.362Y-121.374
X102.362Y-123.914
X102.362Y-126.454
X102.362Y-128.994
X102.362Y-131.534
X102.362Y-134.074
X102.362Y-136.614
X125.222Y-118.834
X125.222Y-121.374
X125.222Y-123.914
X125.222Y-126.454
X125.222Y-128.994
X125.222Y-131.534
X125.222Y-134.074
X125.222Y-136.614
X168.362Y-68.834
X168.362Y-71.374
X168.362Y-73.914
X168.362Y-76.454
X168.362Y-78.994
X168.362Y-81.534
X168.362Y-84.074
X168.362Y-86.614
X191.222Y-68.834
X191.222Y-71.374
X191.222Y-73.914
X191.222Y-76.454
X191.222Y-78.994
X191.222Y-81.534
X191.222Y-84.074
X191.222Y-86.614
X122.586Y-95.436
X122.586Y-97.976
X125.126Y-95.436
X125.126Y-97.976
X127.666Y-95.436
X127.666Y-97.976
X130.206Y-95.436
X130.206Y-97.976
X188.586Y-95.436
X188.586Y-97.976
X191.126Y-95.436
X191.126Y-97.976
X193.666Y-95.436
X193.666Y-97.976
X196.206Y-95.436
X196.206Y-97.976
X102.362Y-68.834
X102.362Y-71.374
X102.362Y-73.914
X102.362Y-76.454
X102.362Y-78.994
X102.362Y-81.534
X102.362Y-84.074
X102.362Y-86.614
X125.222Y-68.834
X125.222Y-71.374
X125.222Y-73.914
X125.222Y-76.454
X125.222Y-78.994
X125.222Y-81.534
X125.222Y-84.074
X125.222Y-86.614
X135.362Y-68.834
X135.362Y-71.374
X135.362Y-73.914
X135.362Y-76.454
X135.362Y-78.994
X135.362Y-81.534
X135.362Y-84.074
X135.362Y-86.614
X158.222Y-68.834
X158.222Y-71.374
X158.222Y-73.914
X158.222Y-76.454
X158.222Y-78.994
X158.222Y-81.534
X158.222Y-84.074
X158.222Y-86.614
X168.362Y-118.834
X168.362Y-121.374
X168.362Y-123.914
X168.362Y-126.454
X168.362Y-128.994
X168.362Y-131.534
X168.362Y-134.074
X168.362Y-136.614
X191.222Y-118.834
X191.222Y-121.374
X191.222Y-123.914
X191.222Y-126.454
X191.222Y-128.994
X191.222Y-131.534
X191.222Y-134.074
X191.222Y-136.614
X188.586Y-145.436
X188.586Y-147.976
X191.126Y-145.436
X191.126Y-147.976
X193.666Y-145.436
X193.666Y-147.976
X196.206Y-145.436
X196.206Y-147.976
X135.362Y-118.834
X135.362Y-121.374
X135.362Y-123.914
X135.362Y-126.454
X135.362Y-128.994
X135.362Y-131.534
X135.362Y-134.074
X135.362Y-136.614
X158.222Y-118.834
X158.222Y-121.374
X158.222Y-123.914
X158.222Y-126.454
X158.222Y-128.994
X158.222Y-131.534
X158.222Y-134.074
X158.222Y-136.614
T5
X194.27Y-102.578
X194.27Y-107.658
X128.27Y-102.578
X128.27Y-107.658
X161.27Y-102.578
X161.27Y-107.658
X161.27Y-52.578
X161.27Y-57.658
X128.27Y-52.578
X128.27Y-57.658
X194.27Y-52.578
X194.27Y-57.658
T0
M30
